<svg width="315" height="503" viewBox="0 0 315 503" fill="none" xmlns="http://www.w3.org/2000/svg">
<path d="M256.732 3.6347C254.223 -1.086 247.584 -1.23352 244.781 3.33966C230.911 26.5007 198.303 81.9692 189.155 103.36C177.499 130.504 213.353 252.505 222.501 282.305C223.681 286.288 227.37 288.944 231.354 288.944H265.732C270.159 288.944 273.995 286.14 275.471 282.01C285.651 252.063 323.866 134.192 308.374 103.36C294.947 76.2161 268.388 25.6157 256.732 3.6347Z" fill="#F5ECE4"/>
<path d="M260.717 48.9243C260.717 48.9243 284.324 114.277 288.013 132.422C291.701 150.567 284.324 246.752 253.486 289.386L273.406 288.501C273.406 288.501 314.276 171.516 311.915 130.209C311.915 130.209 312.358 117.08 310.145 107.491C307.931 97.9019 269.569 29.894 269.569 29.894C269.569 29.894 258.946 48.9243 260.717 48.9243Z" fill="#EFDED0"/>
<path d="M218.96 48.7767L280.045 48.9243L258.06 6.73256C255.109 0.979324 246.994 0.684286 243.748 6.29005L218.96 48.7767Z" fill="#FF7B29"/>
<path d="M218.665 141.273C229.666 141.273 238.584 132.357 238.584 121.358C238.584 110.359 229.666 101.442 218.665 101.442C207.664 101.442 198.746 110.359 198.746 121.358C198.746 132.357 207.664 141.273 218.665 141.273Z" fill="#74B0DB"/>
<path d="M213.501 140.831C224.502 140.831 233.419 131.914 233.419 120.915C233.419 109.916 224.502 101 213.501 101C202.5 101 193.582 109.916 193.582 120.915C193.582 131.914 202.5 140.831 213.501 140.831Z" fill="#95CAF0"/>
<path d="M213.502 129.766C219.613 129.766 224.568 124.813 224.568 118.702C224.568 112.592 219.613 107.638 213.502 107.638C207.39 107.638 202.436 112.592 202.436 118.702C202.436 124.813 207.39 129.766 213.502 129.766Z" fill="white"/>
<path d="M189.894 151.6L309.997 152.633" stroke="#1A1A2D" stroke-width="3.51253" stroke-miterlimit="10"/>
<path d="M205.682 221.968L293.325 222.263" stroke="#1A1A2D" stroke-width="3.51253" stroke-miterlimit="10"/>
<path d="M232.83 288.796L233.125 294.697C233.273 298.828 236.666 302.074 240.797 302.074H257.47C261.159 302.074 264.257 298.976 264.257 295.287V288.796H232.83Z" fill="#4B4343"/>
<path d="M250.977 231.41V275.519L234.452 316.826C234.157 317.563 232.976 317.416 232.976 316.678C231.648 304.434 228.255 258.112 250.977 231.41Z" fill="#FF7B29"/>
<path d="M276.651 278.027L309.85 320.366C311.03 321.841 313.243 321.103 313.391 319.333C314.423 310.924 316.046 292.927 312.801 279.945C308.374 262.242 290.226 235.983 290.226 235.983L276.651 278.027Z" fill="#FF7B29"/>
<path d="M208.779 233.623L223.091 282.748L189.302 319.186C187.384 321.251 184.138 320.071 183.843 317.268C182.663 301.04 182.368 259.734 208.779 233.623Z" fill="#FF7B29"/>
<path d="M160.826 121.947C160.826 121.947 165.4 130.061 159.351 138.174C156.104 142.453 145.924 140.093 147.399 120.915C148.875 102.622 160.826 121.947 160.826 121.947Z" fill="#F7AE81"/>
<path d="M129.546 154.993C129.546 154.993 133.972 136.553 136.776 129.472L151.53 139.946C151.53 139.946 148.137 160.156 149.317 161.927C149.317 161.927 132.349 172.253 129.546 154.993Z" fill="#F7AE81"/>
<path d="M151.235 117.227C151.235 117.227 165.4 130.504 168.351 114.277C168.351 114.277 166.432 120.177 160.825 117.669C160.825 117.669 165.547 117.374 166.137 113.981C167.023 109.408 161.563 109.998 158.317 110.883C155.071 111.769 151.53 106.605 144.005 106.752C136.48 106.9 131.906 115.162 131.906 115.162C131.906 115.162 129.25 113.096 128.218 118.997C127.185 124.898 133.677 130.651 133.972 136.7C133.972 136.7 138.103 138.913 140.021 136.257C142.087 133.602 142.677 149.387 150.35 149.239L152.415 143.044C152.415 143.044 160.825 146.141 161.416 143.191C162.006 140.24 159.35 138.323 161.563 134.192C161.563 134.192 153.006 139.798 150.645 136.405C148.432 133.012 148.727 122.833 151.235 117.227Z" fill="#1A1A2D"/>
<path d="M144.301 126.225C144.301 126.225 140.76 126.668 143.121 128.881C144.449 130.208 145.186 131.979 142.678 131.389C140.022 130.946 139.58 123.57 144.301 126.225Z" fill="#F7AE81"/>
<path d="M72.2976 294.55C72.2976 294.55 53.1162 291.157 50.1653 291.894L44.7061 310.482C44.7061 310.482 60.6412 309.007 74.8059 307.679L78.7895 296.91L72.2976 294.55Z" fill="#F7AE81"/>
<path d="M54.1504 292.042C54.1504 292.042 45.7403 303.106 52.8224 310.187C52.8224 310.187 45.445 318.743 50.1664 321.103C54.8882 323.464 54.8882 325.824 38.2152 323.464C38.2152 323.464 33.0508 317.268 38.2152 304.286C42.9366 292.484 48.101 288.353 54.1504 292.042Z" fill="#FF7B29"/>
<path d="M93.9879 226.246C93.9879 226.246 76.1346 238.048 93.9879 295.287L59.9045 291.304L57.9863 310.186C57.9863 310.186 109.185 327.151 121.727 323.168C134.268 319.185 118.923 273.601 111.841 247.932C104.759 222.263 93.9879 226.246 93.9879 226.246Z" fill="#37474F"/>
<path d="M100.775 292.485C100.775 292.485 77.9048 289.091 75.1016 289.829L73.3311 309.154C73.3311 309.154 89.2662 307.679 103.431 306.351L107.414 295.582L100.775 292.485Z" fill="#F7AE81"/>
<path d="M97.5281 230.229C97.5281 230.229 83.2163 253.98 131.612 291.451L95.7576 289.534L93.1016 315.35C93.1016 315.35 176.319 333.495 174.4 315.055C172.187 293.369 153.744 262.832 138.989 239.523C124.234 216.215 97.5281 230.229 97.5281 230.229Z" fill="#2D3134"/>
<path d="M203.615 161.927L218.665 169.45L220.731 154.846C220.731 154.846 237.404 130.799 227.813 136.111C227.813 136.111 230.174 127.554 228.403 128.144C226.485 128.586 223.829 135.963 223.829 135.963C223.829 135.963 229.141 124.751 227.075 125.489C225.01 126.226 222.206 130.357 221.469 134.488C221.469 134.488 226.485 123.571 224.567 124.161C222.649 124.603 217.19 133.603 217.19 133.603C217.19 133.603 218.075 129.324 216.157 129.914C214.239 130.357 213.353 134.635 213.501 142.602C213.649 150.715 203.615 161.927 203.615 161.927Z" fill="#F7AE81"/>
<path d="M129.842 152.633L131.76 146.437C131.76 146.437 145.039 147.322 149.466 153.37C149.466 153.37 149.761 157.206 150.351 159.272C151.089 161.336 129.842 152.633 129.842 152.633Z" fill="#FF7B29"/>
<path d="M73.627 232.148C73.627 232.148 91.3327 236.131 109.333 236.131C127.334 236.131 129.252 244.982 140.023 250.293L158.614 190.546C158.614 190.546 189.894 207.511 198.895 207.511C207.895 207.511 223.978 166.352 223.978 166.352L206.125 159.124C206.125 159.124 194.468 183.317 192.698 183.317C190.927 183.317 173.074 165.467 162.303 160.009C151.532 154.55 128.219 149.24 117.596 154.698C106.973 160.156 105.054 188.776 96.0541 201.168C87.3491 213.264 73.627 232.148 73.627 232.148Z" fill="#31C3E0"/>
<path opacity="0.2" d="M134.776 161.894C134.103 162.029 133.429 162.299 132.621 161.984C131.902 161.715 131.364 160.86 131.364 160.051C131.409 159.511 131.094 159.016 130.6 158.746C130.376 158.567 130.106 158.522 129.747 158.477C129.388 158.387 129.074 158.387 128.715 158.297C129.388 158.162 130.062 157.892 130.87 158.162C131.633 158.432 132.172 159.196 132.172 160.051C132.172 160.59 132.441 161.085 132.935 161.445C133.16 161.58 133.429 161.67 133.743 161.715C134.103 161.76 134.417 161.804 134.776 161.894ZM144.303 189.576C143.675 189.711 143.001 189.981 142.193 189.666C141.43 189.397 140.936 188.542 140.936 187.778C140.936 187.238 140.622 186.698 140.173 186.428C139.903 186.249 139.634 186.204 139.275 186.159C138.96 186.114 138.601 186.069 138.287 185.979C138.96 185.889 139.589 185.619 140.397 185.889C141.16 186.114 141.744 186.923 141.744 187.733C141.699 188.317 142.014 188.812 142.463 189.127C142.687 189.307 142.956 189.352 143.316 189.397C143.63 189.441 143.989 189.486 144.303 189.576ZM123.437 163.136C122.808 163.226 122.09 163.496 121.327 163.181C120.563 162.911 120.07 162.102 120.07 161.292C120.07 160.753 119.755 160.258 119.306 159.943C119.037 159.808 118.767 159.718 118.408 159.718C118.094 159.628 117.735 159.583 117.42 159.493C118.094 159.403 118.723 159.134 119.531 159.403C120.294 159.628 120.833 160.438 120.878 161.292C120.833 161.832 121.147 162.327 121.596 162.641C121.821 162.821 122.09 162.911 122.449 162.911C122.764 163.001 123.123 163.046 123.437 163.136ZM105.824 204.732C105.151 204.822 104.477 205.091 103.669 204.777C102.951 204.507 102.412 203.697 102.412 202.888C102.457 202.348 102.142 201.853 101.649 201.539C101.424 201.404 101.155 201.314 100.795 201.314C100.436 201.224 100.122 201.179 99.7628 201.089C100.436 200.999 101.11 200.729 101.918 200.999C102.681 201.269 103.22 202.033 103.22 202.888C103.22 203.427 103.489 203.922 103.983 204.237C104.208 204.417 104.477 204.507 104.792 204.507C105.151 204.597 105.465 204.642 105.824 204.732ZM104.118 222.389C103.445 222.479 102.771 222.748 102.008 222.434C101.244 222.164 100.706 221.354 100.751 220.545C100.751 220.005 100.436 219.511 99.9424 219.196C99.7179 219.061 99.4485 218.971 99.0893 218.971C98.775 218.881 98.4158 218.836 98.1015 218.746C98.775 218.656 99.4036 218.386 100.212 218.656C100.975 218.881 101.514 219.69 101.514 220.5C101.514 221.085 101.783 221.579 102.277 221.894C102.502 222.074 102.771 222.164 103.13 222.164C103.445 222.254 103.804 222.299 104.118 222.389ZM112.742 176.392C112.204 176.482 111.62 176.707 110.991 176.572C111.201 176.452 111.41 176.332 111.62 176.212C111.65 176.212 111.68 176.212 111.71 176.212C112.069 176.257 112.383 176.302 112.742 176.392ZM156.965 174.196C156.561 174.781 156.292 175.411 155.528 175.815C154.81 176.13 153.867 175.995 153.283 175.411C152.879 175.006 152.34 174.826 151.802 174.961C151.487 175.006 151.263 175.141 150.993 175.366C150.724 175.546 150.455 175.77 150.14 175.95C150.544 175.366 150.814 174.691 151.577 174.376C152.34 174.017 153.283 174.241 153.822 174.826C154.181 175.186 154.765 175.366 155.349 175.231C155.618 175.141 155.843 175.006 156.112 174.781C156.381 174.601 156.651 174.376 156.965 174.196ZM166.259 186.428C166.17 186.488 166.095 186.563 166.035 186.653C165.766 186.878 165.541 187.148 165.272 187.373C165.496 186.833 165.676 186.249 166.17 185.799C166.2 186.009 166.229 186.219 166.259 186.428ZM116.674 197.997C116.27 198.582 116.001 199.211 115.238 199.616C114.519 199.976 113.576 199.796 112.993 199.211C112.678 198.897 112.274 198.717 111.825 198.717L112.005 197.997C112.544 197.997 113.127 198.222 113.531 198.627C113.891 199.032 114.474 199.166 115.013 199.031C115.327 198.942 115.552 198.807 115.821 198.582C116.091 198.402 116.36 198.177 116.674 197.997ZM119.743 219.257C119.339 219.797 119.07 220.426 118.306 220.831C117.588 221.191 116.645 221.011 116.061 220.426C115.657 220.022 115.119 219.887 114.535 219.977C114.265 220.022 114.041 220.157 113.772 220.381C113.457 220.561 113.188 220.786 112.918 220.966C113.278 220.426 113.592 219.752 114.355 219.392C115.074 219.032 116.061 219.257 116.6 219.842C116.959 220.247 117.543 220.381 118.082 220.247C118.396 220.202 118.621 220.022 118.89 219.797C119.16 219.617 119.429 219.392 119.743 219.257ZM135.136 226.886C134.732 227.425 134.463 228.1 133.699 228.46C133.071 228.775 132.307 228.685 131.724 228.325C131.754 227.995 131.769 227.65 131.769 227.29C131.858 227.35 131.933 227.425 131.993 227.515C132.352 227.875 132.936 228.01 133.475 227.875C133.789 227.83 134.014 227.695 134.283 227.47C134.552 227.246 134.822 227.066 135.136 226.886ZM127.708 184.721C127.304 185.261 127.034 185.89 126.271 186.295C125.553 186.655 124.61 186.475 124.026 185.89C123.622 185.486 123.083 185.351 122.544 185.441C122.23 185.486 122.005 185.621 121.736 185.845C121.467 186.025 121.197 186.25 120.883 186.43C121.287 185.89 121.556 185.216 122.32 184.856C123.083 184.541 124.026 184.766 124.565 185.306C124.924 185.711 125.508 185.845 126.046 185.711C126.361 185.666 126.585 185.531 126.855 185.306C127.124 185.081 127.393 184.901 127.708 184.721ZM145.785 213.186C145.381 213.726 145.112 214.4 144.348 214.76C143.63 215.12 142.687 214.985 142.103 214.4C141.699 213.996 141.16 213.816 140.622 213.906C140.307 213.996 140.083 214.13 139.813 214.31C139.544 214.535 139.275 214.715 138.96 214.895C139.364 214.355 139.634 213.681 140.397 213.366C141.16 213.006 142.103 213.231 142.642 213.816C143.046 214.175 143.585 214.31 144.169 214.22C144.438 214.13 144.663 213.996 144.932 213.771C145.201 213.591 145.471 213.366 145.785 213.186ZM140.128 198.851C139.858 199.616 139.05 200.156 138.242 200.156C137.658 200.156 137.164 200.425 136.85 200.92C136.715 201.145 136.626 201.415 136.581 201.775C136.536 202.089 136.491 202.449 136.401 202.764C136.266 202.089 135.997 201.415 136.311 200.65C136.581 199.886 137.434 199.346 138.242 199.391C138.736 199.391 139.275 199.076 139.544 198.582C139.724 198.357 139.769 198.087 139.813 197.727C139.858 197.412 139.903 197.053 139.993 196.738C140.128 197.412 140.397 198.042 140.128 198.851ZM153.489 197.082C153.264 197.801 152.456 198.386 151.603 198.386C151.064 198.386 150.57 198.656 150.256 199.105C150.077 199.375 149.987 199.6 149.987 199.96C149.897 200.32 149.852 200.634 149.762 200.994C149.672 200.32 149.403 199.645 149.717 198.836C149.987 198.071 150.795 197.576 151.603 197.576C152.142 197.576 152.636 197.262 152.95 196.812C153.085 196.542 153.175 196.317 153.175 195.957C153.264 195.598 153.309 195.283 153.399 194.923C153.489 195.598 153.758 196.272 153.489 197.082ZM156.561 163.594C156.337 164.358 155.528 164.898 154.72 164.943C154.136 164.898 153.643 165.213 153.328 165.662C153.149 165.887 153.104 166.157 153.059 166.517C152.969 166.832 152.969 167.191 152.879 167.506C152.745 166.877 152.475 166.157 152.789 165.393C153.059 164.628 153.867 164.133 154.675 164.133C155.214 164.133 155.708 163.819 156.022 163.369C156.202 163.099 156.247 162.829 156.292 162.469C156.337 162.155 156.381 161.795 156.471 161.48C156.561 162.155 156.83 162.784 156.561 163.594ZM141.447 168.352C141.178 169.116 140.414 169.656 139.561 169.656C139.022 169.656 138.529 169.926 138.214 170.42C138.035 170.645 137.945 170.915 137.945 171.23C137.855 171.59 137.81 171.904 137.72 172.264C137.631 171.59 137.361 170.915 137.675 170.151C137.945 169.386 138.753 168.846 139.561 168.891C140.1 168.891 140.594 168.577 140.908 168.082C141.043 167.857 141.133 167.587 141.133 167.228C141.223 166.913 141.267 166.553 141.357 166.238C141.447 166.913 141.716 167.542 141.447 168.352ZM89.9746 216.199C89.7501 216.964 88.9419 217.503 88.1337 217.548C87.55 217.503 87.0561 217.773 86.7418 218.268C86.5622 218.493 86.5173 218.762 86.4724 219.122C86.3826 219.437 86.3826 219.797 86.2928 220.112C86.1581 219.437 85.8887 218.762 86.203 217.998C86.4724 217.233 87.2806 216.694 88.0888 216.739C88.6276 216.739 89.1215 216.424 89.4358 215.929C89.6154 215.704 89.6603 215.435 89.7052 215.075C89.7501 214.76 89.795 214.4 89.8848 214.086C89.9746 214.76 90.244 215.39 89.9746 216.199ZM147.259 235.835L147.079 235.925C147.139 235.775 147.184 235.625 147.214 235.475C147.214 235.595 147.229 235.715 147.259 235.835ZM122.264 172.434C122.04 173.199 121.277 173.739 120.468 173.739C120.618 173.439 120.768 173.139 120.917 172.839C121.232 172.704 121.546 172.479 121.726 172.165C121.86 171.94 121.95 171.67 121.95 171.31C121.98 171.16 122.01 170.995 122.04 170.815C122.1 170.726 122.16 170.636 122.22 170.546C122.309 171.13 122.489 171.715 122.264 172.434ZM120.508 228.955C120.239 229.719 119.475 230.259 118.622 230.259C118.084 230.259 117.59 230.529 117.275 231.023C117.096 231.248 117.006 231.518 117.006 231.833C116.916 232.193 116.871 232.507 116.781 232.867C116.692 232.193 116.422 231.518 116.737 230.708C117.006 229.989 117.814 229.449 118.622 229.494C119.161 229.494 119.655 229.179 119.969 228.685C120.104 228.46 120.194 228.19 120.194 227.83C120.284 227.471 120.329 227.156 120.418 226.796C120.508 227.471 120.778 228.145 120.508 228.955ZM128.454 200.594C128.184 201.314 127.421 201.898 126.568 201.898C126.029 201.898 125.535 202.168 125.221 202.618C125.041 202.888 124.952 203.113 124.907 203.472C124.862 203.832 124.817 204.147 124.727 204.507C124.637 203.832 124.323 203.158 124.637 202.348C124.952 201.584 125.76 201.089 126.568 201.089C127.107 201.089 127.601 200.774 127.915 200.324C128.05 200.055 128.095 199.83 128.139 199.47C128.229 199.11 128.229 198.795 128.319 198.436C128.454 199.11 128.723 199.785 128.454 200.594ZM169.036 175.372C168.857 175.282 168.722 175.147 168.587 175.012C168.228 174.652 167.644 174.517 167.106 174.652C166.836 174.697 166.612 174.832 166.342 175.057C166.028 175.282 165.759 175.462 165.489 175.642C165.848 175.102 166.118 174.428 166.881 174.068C167.42 173.798 168.093 173.843 168.677 174.113C168.797 174.532 168.917 174.952 169.036 175.372ZM96.8116 227.12C96.4075 227.66 96.1381 228.335 95.3299 228.694C94.6115 229.009 93.6686 228.784 93.0849 228.2C92.7257 227.84 92.142 227.705 91.6032 227.84C91.3338 227.885 91.1093 228.02 90.8399 228.245C90.5256 228.424 90.2562 228.649 89.9868 228.829C90.3909 228.29 90.6603 227.615 91.3787 227.255C92.0971 226.895 93.0849 227.075 93.6686 227.615C94.0278 228.02 94.6115 228.2 95.1503 228.11C95.4197 228.02 95.6891 227.93 95.9585 227.705C96.2279 227.48 96.4973 227.3 96.8116 227.12Z" fill="black"/>
<path d="M202.436 166.353L220.289 175.352L227.076 167.238L203.616 156.764L202.436 166.353Z" fill="#FF7B29"/>
<path d="M82.3314 289.976C82.3314 289.976 75.5442 301.778 82.7744 309.006C82.7744 309.006 74.069 317.563 78.7904 319.923C83.5118 322.284 85.1351 325.677 68.4621 323.316C68.4621 323.316 61.6748 316.088 66.8392 303.253C71.5606 291.157 76.4297 286.288 82.3314 289.976Z" fill="#FF7B29"/>
<path d="M291.11 323.316H31.1318V334.971H291.11V323.316Z" fill="#FFB588"/>
<path d="M0 500.637L7.52508 502.704L54.1498 333.643L46.1822 333.053L0 500.637Z" fill="#FFB588"/>
<path d="M107.915 335.128L100.375 333.054L54.2803 500.612L61.8201 502.689L107.915 335.128Z" fill="#FFB588"/>
<path d="M93.1022 362.114H38.8047V369.933H93.1022V362.114Z" fill="#FFB588"/>
<path d="M85.4293 396.93H31.1318V404.749H85.4293V396.93Z" fill="#FFB588"/>
<path d="M73.774 431.893H19.4766V439.712H73.774V431.893Z" fill="#FFB588"/>
<path d="M64.7731 466.856H10.4756V474.672H64.7731V466.856Z" fill="#FFB588"/>
<path d="M131.598 291.26L149.023 305.024L122.09 290.829L131.598 291.26Z" fill="#1C1D37"/>
<path d="M148.497 171.073C148.497 171.073 152.333 185.382 158.825 190.545L154.251 208.396C154.399 208.396 142.005 184.054 148.497 171.073Z" fill="#62E1FB"/>
<path d="M141.538 244.609L151.262 246.553C151.262 246.553 154.125 217.9 157.961 193.854C158.109 193.706 146.85 222.481 141.538 244.609Z" fill="#FF7B29"/>
<path d="M223.977 39.1881L275.028 39.3358L256.732 4.07764C254.371 -0.79058 247.437 -0.9381 244.781 3.63508L223.977 39.1881Z" fill="#FFB588"/>
<path d="M297.013 246.752C297.898 248.375 278.422 272.569 278.422 272.569L290.207 235.97C290.847 236.103 295.242 243.212 297.013 246.752Z" fill="#FF7B29"/>
<path d="M204.204 238.561L218.518 267.258L208.742 233.594L206.365 235.97L204.204 238.561Z" fill="#FF7B29"/>
</svg>
