<svg width="361" height="184" viewBox="0 0 361 184" fill="none" xmlns="http://www.w3.org/2000/svg">
<path d="M117.698 47.4323C131.455 54.2418 156.636 70.6668 160.856 69.7086C165.59 68.6479 182.847 61.5304 189.776 55.8843C193.036 53.2152 206.484 82.6775 203.225 84.9017C190.531 93.559 164.973 99.034 157.871 99.821C149.946 100.711 126 76.347 112.655 59.751C107.338 53.1126 100.991 39.1171 117.698 47.4323Z" fill="#D3766A"/>
<path d="M195.917 54.5495C198.73 53.0781 201.475 51.641 203.533 50.5802C205.317 49.6221 206.552 48.9719 206.792 48.835C211.527 45.9264 217.462 36.7901 221.201 38.7405C223.98 40.2119 221.304 43.976 220.687 44.763C220.664 44.8086 220.641 44.8428 220.618 44.8657C220.652 44.8314 220.687 44.7972 220.721 44.763C221.544 43.9418 225.49 40.2804 227.719 42.9836C230.19 45.9949 226.347 51.1277 226.347 51.1277C226.37 51.1277 226.45 51.0706 226.587 50.9566C226.622 50.9566 226.622 50.9566 226.622 50.9224C226.69 50.8881 226.759 50.8539 226.828 50.7855C228.2 49.8958 232.042 47.6716 233.929 50.2722C236.193 53.4888 232.111 58.1767 232.111 58.1767C232.111 58.1767 235.61 55.6788 237.566 59.0322C239.521 62.3856 228.44 71.83 224.289 74.7043C217.359 79.4607 207.822 83.8749 202.435 85.8254C201.166 86.2702 200.137 86.5782 199.417 86.7493L192.864 75.6967L192.658 75.3887L192.624 75.3203L183.979 60.7431C183.979 60.7431 190.051 57.595 195.917 54.5495Z" fill="#D3766A"/>
<path d="M205.867 57.0476C208.646 55.7815 210.807 54.6865 212.66 53.4204C215.61 51.4357 217.806 49.0404 220.447 44.9342C220.539 44.8201 220.619 44.7631 220.687 44.7631C220.71 44.7403 220.722 44.7403 220.722 44.7631C220.824 44.7631 220.893 44.9 220.79 45.1053C218.663 49.9301 216.124 52.5307 212.625 54.4812C210.738 55.5077 208.543 56.3632 205.935 57.2871C205.798 57.3555 205.73 57.116 205.867 57.0476Z" fill="#2D3134"/>
<path d="M210.945 63.8228C218.184 59.8535 221.478 57.4582 226.589 50.9566C226.624 50.9566 226.624 50.9566 226.624 50.9224C226.692 50.8197 226.795 50.7855 226.829 50.7855C226.967 50.7855 227.07 51.025 226.932 51.2304C222.644 58.4505 218.459 60.7089 211.014 64.0281C210.911 64.0624 210.843 63.8913 210.945 63.8228Z" fill="#2D3134"/>
<path d="M231.837 58.861C227.685 64.9861 223.26 68.408 215.301 70.7007C215.095 70.7349 215.026 70.4953 215.198 70.4269C222.711 67.4499 226.245 64.6782 231.665 58.6899C232.008 58.3135 232.111 58.4504 231.837 58.861Z" fill="#2D3134"/>
<path d="M178.282 62.728C178.282 62.728 184.8 52.1886 187.168 50.3408C189.02 48.9036 194.509 46.7479 199.552 45.516C204.149 44.3868 208.369 44.0446 209.124 45.6871C209.147 45.7099 209.17 45.7327 209.193 45.7555C209.307 46.0749 209.375 46.3943 209.398 46.7136C209.433 47.2611 209.33 47.8771 209.09 48.4588C209.09 48.4588 209.124 48.4588 209.09 48.4588C208.232 50.6146 205.693 52.7019 202.914 54.3786C200.822 55.6789 198.592 56.7055 196.876 57.3899C196.876 57.3899 200.444 66.6289 196.328 72.0012V72.0354C196.236 72.1267 196.156 72.2179 196.087 72.3092C195.813 72.6172 195.538 72.9594 195.195 73.2331C189.363 78.2975 178.282 62.728 178.282 62.728Z" fill="#D3766A"/>
<path d="M209.295 47.1927C208.815 53.1467 202.365 55.5078 197.665 57.6636C199.552 62.6595 199.655 69.5374 195.675 73.4041C195.572 73.5068 195.435 73.3699 195.504 73.2331C198.66 69.1953 198.008 62.2489 196.567 57.6293C196.396 57.3898 196.361 57.0476 196.705 56.8765C201.267 54.6865 207.82 52.6334 209.261 47.1927C209.261 47.1584 209.295 47.1584 209.295 47.1927Z" fill="#2D3134"/>
<path d="M155.471 100.403C147.477 98.9314 117.836 69.435 110.975 58.2112C104.079 46.9875 105.417 41.6494 115.812 46.0636C126.173 50.4436 157.735 69.4008 160.411 69.1954C163.087 68.9559 177.049 61.8726 177.049 61.8726L195.438 90.6847C195.438 90.6847 163.43 101.874 155.471 100.403Z" fill="#31C3E0"/>
<path opacity="0.2" fill-rule="evenodd" clip-rule="evenodd" d="M128.094 62.1805C127.82 62.5911 127.58 63.1044 126.996 63.3782C126.447 63.6177 125.727 63.4466 125.281 63.0018C125.007 62.728 124.561 62.6254 124.149 62.728C123.943 62.7622 123.771 62.8649 123.566 63.036C123.325 63.2071 123.12 63.344 122.914 63.4808C123.188 63.0702 123.394 62.5569 123.977 62.2832C124.526 62.0094 125.247 62.1463 125.727 62.5911C126.001 62.8991 126.413 63.0018 126.859 62.9333C127.065 62.8991 127.271 62.7965 127.442 62.6254C127.682 62.4885 127.888 62.3174 128.094 62.1805ZM191.596 91.985C191.344 92.0762 191.081 92.1561 190.807 92.2245C191.047 92.0876 191.321 91.985 191.596 91.985ZM193.174 91.4375C192.945 91.5287 192.705 91.6086 192.453 91.677C192.545 91.6086 192.636 91.5059 192.728 91.369C192.831 91.1979 192.899 90.9926 192.899 90.7189C192.968 90.4451 193.002 90.2056 193.071 89.9318C193.14 90.4109 193.311 90.89 193.174 91.4375ZM173.996 81.3772C173.791 81.9589 173.207 82.3695 172.556 82.3695C172.144 82.3695 171.766 82.5748 171.492 82.9512C171.389 83.1223 171.32 83.3277 171.286 83.5672C171.252 83.8409 171.218 84.1147 171.149 84.3542C171.08 83.8409 170.84 83.3276 171.08 82.7459C171.286 82.1642 171.938 81.7536 172.556 81.7878C172.967 81.7878 173.345 81.5483 173.585 81.1719C173.688 81.0008 173.722 80.7955 173.756 80.5217C173.825 80.2822 173.825 80.0084 173.893 79.7689C173.996 80.2822 174.202 80.7612 173.996 81.3772ZM150.771 95.0646C150.599 95.6464 149.982 96.0912 149.33 96.0912C148.987 96.0912 148.644 96.2281 148.404 96.5018C148.266 96.4106 148.129 96.3079 147.992 96.1939C148.266 95.749 148.815 95.4753 149.33 95.4753C149.742 95.4753 150.119 95.2357 150.359 94.8935C150.462 94.6882 150.531 94.4829 150.531 94.2434C150.599 93.9696 150.634 93.7301 150.702 93.4564C150.771 93.9696 150.977 94.4829 150.771 95.0646ZM139.278 58.4165C139.278 58.4165 139.267 58.4279 139.244 58.4507C139.141 58.6218 139.072 58.8271 139.038 59.1008C139.004 59.3404 138.969 59.6141 138.901 59.8536C138.798 59.3404 138.592 58.8271 138.832 58.2454C138.832 58.2226 138.844 58.1997 138.866 58.1769C139.004 58.2454 139.141 58.3252 139.278 58.4165ZM126.001 76.1417C125.91 76.0505 125.83 75.9706 125.761 75.9022C125.784 75.7425 125.818 75.5828 125.864 75.4231C125.898 75.6627 125.967 75.9022 126.001 76.1417ZM113.377 53.5232C113.171 54.1049 112.553 54.5155 111.936 54.5155C111.49 54.5155 111.112 54.7209 110.872 55.0973C110.769 55.2684 110.701 55.4737 110.666 55.7474C110.632 55.9869 110.598 56.2607 110.529 56.5002C110.426 55.9869 110.22 55.4737 110.46 54.8919C110.666 54.3102 111.318 53.8996 111.936 53.9338C112.313 53.9338 112.725 53.6943 112.931 53.3179C113.068 53.1468 113.102 52.9415 113.136 52.6677C113.171 52.4282 113.205 52.1544 113.274 51.9149C113.377 52.4282 113.582 52.9073 113.377 53.5232ZM145.213 70.701C144.904 71.1458 144.699 71.6249 144.115 71.9328C143.566 72.1724 142.846 72.0697 142.4 71.6249C142.091 71.3169 141.68 71.18 141.268 71.2827C141.028 71.3169 140.856 71.4196 140.65 71.5907C140.444 71.7275 140.239 71.8986 139.999 72.0355C140.307 71.5906 140.513 71.0774 141.131 70.8378C141.68 70.5641 142.4 70.7352 142.812 71.18C143.12 71.488 143.532 71.5906 143.978 71.488C144.184 71.4195 144.355 71.3169 144.561 71.1458C144.767 71.0089 144.973 70.8378 145.213 70.701ZM179.52 65.7735C179.474 65.8419 179.417 65.899 179.348 65.9446C178.834 66.321 178.113 66.2868 177.599 65.9446C177.256 65.6708 176.81 65.6366 176.398 65.7735C176.192 65.8761 176.021 65.9788 175.849 66.1841C175.677 66.3552 175.506 66.5605 175.3 66.7316C175.506 66.2525 175.643 65.7393 176.192 65.3629C176.707 65.0207 177.427 65.0891 177.942 65.4313C178.25 65.6708 178.696 65.705 179.108 65.5339C179.177 65.5111 179.245 65.4769 179.314 65.4313L179.52 65.7735ZM158.558 82.0616C158.318 82.5064 158.181 83.0539 157.666 83.4303C157.186 83.7725 156.431 83.7725 155.917 83.3961C155.574 83.1566 155.162 83.1223 154.75 83.2592C154.545 83.3276 154.373 83.4645 154.201 83.6698C153.996 83.8409 153.824 84.012 153.618 84.1831C153.858 83.7383 153.961 83.1908 154.51 82.8486C155.025 82.5064 155.78 82.5406 156.26 82.917C156.603 83.1565 157.049 83.1908 157.426 83.0197C157.666 82.917 157.804 82.8144 157.975 82.609C158.181 82.4037 158.353 82.2326 158.558 82.0616ZM180.343 93.5248C180.034 93.9696 179.829 94.4487 179.245 94.7567C178.696 95.0304 177.976 94.8936 177.53 94.4487C177.221 94.1407 176.81 94.0381 176.398 94.1065C176.158 94.1407 175.986 94.2434 175.78 94.4145C175.575 94.5514 175.369 94.7225 175.129 94.8593C175.437 94.4145 175.643 93.9012 176.226 93.6617C176.81 93.3879 177.53 93.559 177.942 94.0039C178.216 94.3118 178.662 94.4145 179.074 94.3118C179.314 94.2776 179.485 94.1407 179.691 93.9696C179.897 93.8328 180.103 93.6617 180.343 93.5248ZM163.876 71.9328C163.361 72.0355 162.847 72.2408 162.264 72.0013C161.68 71.7959 161.303 71.1458 161.303 70.5299C161.303 70.1535 161.063 69.7428 160.685 69.5375C160.514 69.4007 160.308 69.3664 160.034 69.3322C159.793 69.298 159.519 69.2638 159.279 69.1953C159.45 69.1611 159.622 69.1269 159.828 69.0927C160.079 69.1611 160.274 69.1953 160.411 69.1953C160.525 69.1725 160.685 69.1383 160.891 69.0927C161.474 69.298 161.886 69.9139 161.92 70.5299C161.886 70.9747 162.092 71.3511 162.469 71.5907C162.641 71.6933 162.847 71.7617 163.121 71.796C163.361 71.8302 163.636 71.8644 163.876 71.9328ZM166.174 94.8251C165.694 94.9278 165.18 95.1331 164.562 94.8935C163.979 94.6882 163.601 94.0381 163.601 93.4564C163.601 93.0457 163.361 92.6351 163.018 92.4298C162.812 92.2929 162.607 92.2587 162.332 92.2245C162.092 92.1903 161.818 92.1561 161.577 92.0876C162.092 91.985 162.572 91.7797 163.19 91.985C163.773 92.1903 164.219 92.8062 164.219 93.4221C164.185 93.867 164.425 94.2434 164.768 94.4829C164.939 94.6198 165.145 94.654 165.42 94.6882C165.66 94.7225 165.934 94.7567 166.174 94.8251ZM140.616 86.8522C140.101 86.9548 139.587 87.1601 139.004 86.9206C138.42 86.7153 138.043 86.0651 138.043 85.4492C138.043 85.0386 137.803 84.6622 137.426 84.4226C137.254 84.32 137.048 84.2858 136.774 84.2516C136.534 84.1831 136.259 84.1831 136.019 84.1147C136.534 84.012 137.014 83.8067 137.631 84.012C138.215 84.2173 138.626 84.7991 138.661 85.4492C138.626 85.8598 138.832 86.2362 139.209 86.51C139.381 86.6126 139.587 86.6811 139.861 86.7153C140.101 86.7495 140.376 86.7837 140.616 86.8522Z" fill="black"/>
<path d="M172.694 66.2527C175.507 70.2905 178.183 74.4309 180.825 78.6056C182.128 80.6245 183.466 82.6434 184.77 84.6965C186.108 86.8181 187.343 89.0081 188.681 91.1296C188.75 91.2323 188.612 91.3007 188.544 91.2323C187.034 89.1792 185.49 87.2287 184.05 85.1414C182.643 83.1567 181.339 81.1378 180.036 79.1189C177.36 74.9784 174.787 70.7353 172.557 66.3211C172.488 66.2527 172.625 66.15 172.694 66.2527Z" fill="#2D3134"/>
<path d="M161.269 69.0243C161.372 68.9901 161.441 69.1611 161.304 69.1954C159.28 69.7086 157.358 70.5983 155.369 71.2485C153.379 71.8986 151.355 72.4461 149.365 73.0963C149.331 73.0963 149.296 73.0278 149.331 72.9936C151.183 72.0697 153.07 71.1458 155.026 70.4957C157.084 69.8113 159.177 69.5376 161.269 69.0243Z" fill="#2D3134"/>
<path d="M187.274 93.3879C177.222 96.6044 160.823 101.395 155.472 100.403C147.478 98.9313 117.837 69.4348 110.976 58.2111C109.844 56.3975 108.952 54.755 108.266 53.2494L187.274 93.3879Z" fill="#2D3134"/>
<path d="M269.265 180.543C266.829 181.364 197.186 181.809 194.51 180.167C193.516 179.551 192.864 169.422 192.383 157.172C192.315 154.537 183.258 112.037 183.258 112.037L229.881 111.593L237.291 156.761C237.291 156.761 264.05 168.464 266.794 170.585C269.505 172.741 271.7 179.688 269.265 180.543Z" fill="#D3766A"/>
<path d="M269.265 180.509C266.829 181.364 197.187 181.809 194.511 180.167C193.516 179.517 192.83 169.422 192.418 157.172C192.384 156.556 191.869 153.784 191.114 149.883H236.159L237.291 156.761C237.291 156.761 264.05 168.464 266.795 170.586C269.505 172.741 271.701 179.688 269.265 180.509Z" fill="white"/>
<path d="M269.266 180.543C266.83 181.364 197.188 181.809 194.512 180.167C193.517 179.551 192.865 169.422 192.385 157.172L237.292 156.761C237.292 156.761 264.051 168.464 266.796 170.585C269.506 172.741 271.702 179.687 269.266 180.543Z" fill="#31C3E0"/>
<path d="M268.269 177.943C256.571 178.388 209.468 179.003 197.906 178.559C197.803 178.559 197.803 178.49 197.906 178.49C209.468 177.806 256.571 177.532 268.269 177.737C268.509 177.772 268.509 177.943 268.269 177.943Z" fill="#2D3134"/>
<path d="M262.3 168.293C257.669 168.669 253.518 172.707 252.9 177.258C252.9 177.327 252.763 177.327 252.763 177.258C252.66 174.829 253.895 172.604 255.336 171.03C256.811 169.354 259.521 168.053 262.3 168.122C262.369 168.122 262.369 168.259 262.3 168.293Z" fill="#2D3134"/>
<path d="M241.922 158.438C237.325 159.738 233.345 161.381 229.125 163.605C228.988 163.673 228.782 163.502 228.885 163.365C231.767 159.533 237.153 157.856 241.853 157.89C242.162 157.89 242.265 158.369 241.922 158.438Z" fill="#2D3134"/>
<path d="M245.559 159.841C240.962 161.107 236.948 162.784 232.728 164.974C232.591 165.042 232.385 164.871 232.488 164.734C235.37 160.902 240.79 159.225 245.456 159.259C245.799 159.259 245.867 159.738 245.559 159.841Z" fill="#2D3134"/>
<path d="M249.161 161.21C244.564 162.51 240.584 164.153 236.365 166.343C236.227 166.411 236.022 166.274 236.124 166.103C239.006 162.271 244.392 160.594 249.092 160.628C249.401 160.628 249.47 161.107 249.161 161.21Z" fill="#2D3134"/>
<path d="M252.764 162.578C248.201 163.879 244.187 165.521 239.967 167.711C239.83 167.814 239.624 167.643 239.727 167.506C242.609 163.673 248.029 161.997 252.695 162.031C253.038 162.031 253.107 162.51 252.764 162.578Z" fill="#2D3134"/>
<path d="M200.788 167.403C195.539 167.437 195.608 175.582 200.857 175.513C206.106 175.479 206.037 167.335 200.788 167.403Z" fill="white"/>
<path fill-rule="evenodd" clip-rule="evenodd" d="M246.486 152.244C243.981 155.495 240.139 157.583 236.845 159.875C236.502 160.115 236.091 159.841 235.988 159.533C235.919 159.533 235.851 159.499 235.851 159.396C236.091 155.358 237.669 150.739 240.036 147.454C241.477 145.401 244.427 143.45 246.794 145.401C249.059 147.248 247.961 150.328 246.486 152.244ZM246.691 148.378C246.177 143.313 241.614 147.249 240.619 148.788C239.967 149.781 239.418 150.876 238.938 151.936C237.875 154.195 237.154 156.522 236.331 158.849C237.909 157.617 239.556 156.522 241.134 155.358C243.055 153.955 246.966 151.184 246.691 148.378Z" fill="#2D3134"/>
<path fill-rule="evenodd" clip-rule="evenodd" d="M219.247 156.522C219.59 153.476 223.055 152.792 225.525 153.237C229.505 153.99 233.896 156.18 236.88 158.917C236.949 158.986 236.915 159.054 236.846 159.122C237.018 159.43 236.915 159.909 236.503 159.944C232.523 160.594 228.338 161.791 224.256 161.176C221.888 160.833 218.904 159.396 219.247 156.522ZM230.259 159.704C232.215 159.43 234.17 159.054 236.16 158.883C233.93 157.788 231.769 156.59 229.47 155.701C228.338 155.29 227.206 154.879 226.04 154.64C224.256 154.229 218.218 154.571 221.408 158.541C223.158 160.765 227.892 160.012 230.259 159.704Z" fill="#2D3134"/>
<path opacity="0.1" d="M269.266 180.543C267.448 181.159 227.206 181.57 206.519 181.022L201.888 157.103L237.292 156.761C237.292 156.761 264.051 168.464 266.796 170.585C269.506 172.741 271.702 179.687 269.266 180.543Z" fill="black"/>
<path d="M214.922 52.4626C224.665 68.8876 240.343 144.887 240.343 144.887L189.124 145.4L179.449 109.539C179.449 109.539 166.996 150.944 127.749 171.612C110.596 180.646 78.862 174.726 71.8291 147.59L104.901 106.323C104.901 106.323 116.085 108.992 120.613 104.235C136.223 87.8789 162.296 50.9228 171.97 43.9764C184.458 35.0111 206.002 37.4064 214.922 52.4626Z" fill="#37474F"/>
<path d="M169.156 72.1041C169.911 73.8834 170.254 75.9023 170.768 77.7843C171.283 79.6322 171.798 81.48 172.312 83.3278C172.827 85.244 179.036 107.589 179.448 109.471C179.482 109.573 179.379 109.608 179.311 109.539C178.384 108.41 172.484 87.3314 172.278 86.4417C172.141 86.2706 172.038 86.0653 171.935 85.8942C171.729 85.4836 171.523 85.1071 171.317 84.6965C170.951 83.9665 170.597 83.2137 170.254 82.4381C169.568 80.864 169.156 79.1189 168.607 77.4764C168.573 77.3737 168.71 77.3053 168.744 77.408C169.327 79.0504 170.185 80.5561 170.906 82.1301C171.134 82.6092 171.352 83.0768 171.557 83.5331C171.557 83.5103 171.557 83.4875 171.557 83.4646C171.111 81.5484 170.7 79.5979 170.254 77.6817C169.842 75.8339 169.225 73.9861 169.019 72.1041C169.019 72.0356 169.122 72.0356 169.156 72.1041Z" fill="#2D3134"/>
<path d="M235.747 136.367C232.591 136.641 229.366 136.641 226.21 136.709C220.378 136.812 214.58 136.846 208.748 136.88C202.95 136.914 197.152 136.983 191.354 136.641C191.217 136.641 191.183 136.401 191.32 136.401C194.51 136.196 197.701 136.093 200.891 136.025C206.723 135.922 212.521 135.956 218.353 135.922C221.258 135.922 224.163 135.933 227.067 135.956C229.949 135.956 232.865 135.956 235.747 136.162C235.884 136.162 235.884 136.367 235.747 136.367Z" fill="#2D3134"/>
<path d="M240.344 144.887L196.74 145.298L177.734 40.8626C190.291 35.9352 207.238 39.5281 214.923 52.4628C224.666 68.8877 240.344 144.887 240.344 144.887Z" fill="#2D3134"/>
<path d="M289.573 183.315C287.138 184.136 217.461 184.478 214.819 182.836C213.79 182.186 213.138 172.091 212.726 159.841C212.624 157.206 194.029 118.265 194.029 118.265L240.618 117.889L257.634 159.499C257.634 159.499 284.359 171.27 287.103 173.391C289.813 175.513 291.975 182.494 289.573 183.315Z" fill="#D3766A"/>
<path d="M289.54 183.315C287.138 184.136 217.461 184.478 214.82 182.836C213.79 182.186 213.139 172.091 212.727 159.841C212.727 159.259 211.149 155.392 209.708 152.073L254.272 151.252L257.634 159.499C257.634 159.499 284.359 171.27 287.104 173.391C289.814 175.547 291.975 182.494 289.54 183.315Z" fill="white"/>
<path d="M289.572 183.315C287.137 184.136 217.46 184.478 214.818 182.836C213.789 182.186 213.137 172.091 212.726 159.841L257.633 159.499C257.633 159.499 284.358 171.27 287.102 173.391C289.813 175.513 291.974 182.494 289.572 183.315Z" fill="#31C3E0"/>
<path d="M288.541 180.748C276.876 181.159 229.739 181.707 218.178 181.228C218.075 181.228 218.075 181.159 218.178 181.159C229.739 180.475 276.876 180.304 288.541 180.543C288.781 180.543 288.781 180.714 288.541 180.748Z" fill="#2D3134"/>
<path d="M282.607 171.064C277.975 171.441 273.824 175.444 273.173 180.03C273.173 180.098 273.035 180.098 273.035 180.03C272.932 177.6 274.167 175.376 275.608 173.802C277.118 172.125 279.828 170.825 282.607 170.928C282.675 170.928 282.675 171.064 282.607 171.064Z" fill="#2D3134"/>
<path d="M262.263 161.21C257.666 162.476 253.652 164.118 249.432 166.308C249.295 166.377 249.089 166.24 249.192 166.069C252.074 162.27 257.494 160.594 262.16 160.628C262.503 160.628 262.571 161.107 262.263 161.21Z" fill="#2D3134"/>
<path d="M265.865 162.578C261.268 163.879 257.254 165.521 253.035 167.711C252.897 167.779 252.691 167.608 252.794 167.471C255.71 163.639 261.097 161.962 265.797 161.996C266.105 161.996 266.174 162.476 265.865 162.578Z" fill="#2D3134"/>
<path d="M269.468 163.981C264.871 165.247 260.891 166.89 256.671 169.08C256.534 169.148 256.328 169.011 256.431 168.84C259.313 165.008 264.733 163.365 269.399 163.4C269.742 163.4 269.811 163.879 269.468 163.981Z" fill="#2D3134"/>
<path d="M273.104 165.35C268.506 166.65 264.493 168.293 260.273 170.483C260.136 170.551 259.93 170.38 260.033 170.243C262.914 166.411 268.335 164.734 273.001 164.768C273.344 164.768 273.412 165.247 273.104 165.35Z" fill="#2D3134"/>
<path d="M221.095 170.072C215.846 170.106 215.915 178.251 221.164 178.216C226.412 178.148 226.344 170.038 221.095 170.072Z" fill="white"/>
<path fill-rule="evenodd" clip-rule="evenodd" d="M266.826 154.982C264.321 158.267 260.479 160.32 257.151 162.613C256.808 162.852 256.431 162.578 256.328 162.271C256.225 162.271 256.156 162.236 256.156 162.134C256.431 158.096 258.009 153.476 260.376 150.191C261.817 148.138 264.767 146.222 267.169 148.172C269.399 149.986 268.267 153.1 266.826 154.982ZM266.997 151.149C266.517 146.051 261.954 149.986 260.959 151.526C260.307 152.518 259.758 153.613 259.244 154.674C258.215 156.932 257.494 159.259 256.671 161.586C258.215 160.354 259.861 159.259 261.474 158.096C263.395 156.693 267.272 153.921 266.997 151.149Z" fill="#2D3134"/>
<path fill-rule="evenodd" clip-rule="evenodd" d="M239.553 159.225C239.93 156.179 243.395 155.495 245.865 155.974C249.845 156.727 254.202 158.917 257.186 161.654C257.255 161.723 257.221 161.791 257.186 161.86C257.323 162.168 257.255 162.647 256.843 162.681C252.829 163.331 248.644 164.495 244.561 163.913C242.194 163.536 239.244 162.099 239.553 159.225ZM250.565 162.441C252.555 162.168 254.51 161.791 256.466 161.62C254.27 160.491 252.109 159.328 249.776 158.438C248.678 158.027 247.512 157.617 246.38 157.343C244.561 156.932 238.558 157.274 241.748 161.278C243.498 163.468 248.232 162.749 250.565 162.441Z" fill="#2D3134"/>
<path d="M216.671 49.3147C226.414 65.7396 259.417 148.412 259.417 148.412L205.006 148.891L187.201 105.365C187.201 105.365 163.324 179.722 114.677 179.722C90.5937 179.722 77.6258 167.54 69.7695 150.26L113.956 106.87C113.956 106.87 118.622 110.155 121.058 107.657C136.873 91.5063 164.044 47.8091 173.719 40.8285C186.206 31.8632 207.717 34.2585 216.671 49.3147Z" fill="#37474F"/>
<path d="M251.663 139.892C248.473 140.131 245.282 140.131 242.091 140.2C236.259 140.302 230.462 140.336 224.629 140.371C218.832 140.405 213.034 140.508 207.236 140.165C207.099 140.131 207.064 139.926 207.202 139.892C210.392 139.686 213.583 139.584 216.773 139.549C222.605 139.447 228.403 139.447 234.235 139.447C237.14 139.424 240.045 139.424 242.949 139.447C245.831 139.481 248.747 139.447 251.629 139.652C251.766 139.652 251.766 139.857 251.663 139.892Z" fill="#2D3134"/>
<path d="M187.303 105.296C187.303 105.331 187.234 105.399 187.2 105.331C186.239 103.62 185.45 101.738 184.764 99.9241C184.009 97.985 183.312 96.0345 182.671 94.0727C181.985 92.9777 181.196 91.8827 180.476 90.8219C179.584 89.4874 178.795 88.0844 178.314 86.5788C178.314 86.5104 178.383 86.4761 178.417 86.5446C179.001 88.0844 179.893 89.419 180.819 90.7535C181.368 91.609 181.917 92.4302 182.397 93.2857C182.008 92.1222 181.631 90.9474 181.265 89.7611C180.236 86.3393 179.481 82.7805 178.726 79.256C178.692 79.1533 178.863 79.0849 178.932 79.2218C179.252 80.1799 179.584 81.1494 179.927 82.1304C180.304 83.0543 180.579 84.0124 180.922 84.9363C182.157 88.2555 183.152 91.6774 184.284 95.0308C184.833 96.7418 185.382 98.4527 185.896 100.164C186.411 101.84 186.96 103.551 187.303 105.296Z" fill="#2D3134"/>
<path d="M208.814 135.991C206.138 131.919 203.668 127.71 201.335 123.501C197.149 115.973 193.273 108.308 189.705 100.574C187.921 96.7076 186.137 92.8409 184.559 88.9057C182.912 84.9364 181.231 80.967 179.756 76.9634C179.722 76.895 179.825 76.895 179.825 76.9292C180.785 79.1534 181.677 81.3777 182.638 83.5676C183.598 85.7576 184.593 87.9476 185.588 90.1034C189.133 97.9053 192.873 105.627 196.806 113.269C200.717 120.9 204.937 128.36 208.917 135.922C208.951 135.991 208.848 136.059 208.814 135.991Z" fill="#2D3134"/>
<path d="M122.499 106.46C121.241 108.034 119.96 109.597 118.656 111.148C117.524 112.517 116.392 113.954 115.226 115.323C114.059 116.669 112.904 118.015 111.761 119.361C110.628 120.763 109.462 122.132 108.33 123.535C107.163 124.938 105.963 126.238 104.831 127.676C104.762 127.744 104.659 127.641 104.728 127.573C105.894 125.896 107.026 124.151 108.261 122.509C109.565 120.763 110.937 119.018 112.309 117.273C111.509 117.935 110.72 118.585 109.942 119.224C108.501 120.387 107.026 121.551 105.654 122.782C105.585 122.851 105.551 122.748 105.585 122.714C106.958 121.414 108.261 120.079 109.668 118.847C110.937 117.752 112.241 116.726 113.579 115.733C114.036 115.163 114.505 114.604 114.985 114.057C117.318 111.353 119.823 108.787 122.396 106.323C122.464 106.255 122.567 106.392 122.499 106.46Z" fill="#2D3134"/>
<path d="M98.6212 147.386C97.4205 149.062 95.8081 150.363 93.9898 151.492C92.1373 152.621 90.0789 153.408 87.9862 154.229C87.8833 154.263 87.746 154.092 87.849 154.024C89.8044 152.826 91.7599 151.594 93.5782 150.226C95.1563 149.062 96.6315 147.762 97.6607 146.188C98.7585 144.477 99.2388 142.492 99.2388 140.439C99.2045 138.318 98.6898 136.23 98.0723 134.177C97.7636 133.116 97.3519 132.056 96.9745 130.995C96.7687 130.413 96.5285 129.866 96.2884 129.284C96.1855 129.044 96.0482 128.805 95.9453 128.565C95.9453 128.565 95.9339 128.554 95.911 128.531C95.8881 128.44 95.8653 128.36 95.8424 128.291C95.7967 128.132 95.7624 127.984 95.7395 127.847C95.7052 127.71 95.8767 127.641 95.9796 127.744C96.4256 128.223 96.7001 128.873 97.0088 129.421C97.329 130.014 97.6492 130.607 97.9694 131.2C98.6212 132.364 99.1358 133.561 99.6161 134.759C101.263 138.968 101.16 143.827 98.6212 147.386Z" fill="#2D3134"/>
<path d="M184.285 95.202C183.77 96.4681 183.29 97.6999 182.775 98.966C178.487 109.095 173.375 118.847 167.577 128.12C161.985 137.051 155.81 145.777 148.4 153.066C141.264 160.115 132.825 165.863 123.322 168.43C114.093 170.928 104.316 169.97 95.6705 165.624C91.3478 163.468 87.4369 160.491 84.1091 156.83C80.5413 152.997 77.5909 148.617 74.7777 144.135C74.7091 144.066 74.8464 143.964 74.8807 144.066C75.6354 145.138 76.3902 146.199 77.1449 147.249C80.1639 151.492 83.3887 155.598 87.2654 158.986C90.9019 162.168 95.0873 164.666 99.4785 166.308C103.835 167.951 108.433 168.84 113.03 168.84C117.798 168.84 122.567 167.882 127.061 166.206C136.29 162.784 144.283 156.488 151.041 149.131C158.04 141.5 163.941 132.74 169.361 123.809C174.885 114.604 179.687 104.954 184.079 95.0993C184.147 94.9624 184.319 95.0651 184.285 95.202Z" fill="#2D3134"/>
<path d="M203.805 145.196C203.873 145.401 203.564 145.538 203.462 145.332C203.118 144.648 202.707 143.998 202.329 143.348C201.952 142.663 201.643 141.945 201.3 141.26C200.614 139.892 199.951 138.5 199.31 137.086C197.012 132.056 194.953 126.923 192.964 121.79C191.934 119.235 190.962 116.657 190.048 114.057C189.567 112.756 189.087 111.456 188.675 110.156C188.264 108.89 187.269 106.494 187.063 105.194C187.029 104.989 187.372 104.92 187.475 105.057C187.852 105.707 188.572 107.521 188.847 108.205C189.144 108.912 189.43 109.62 189.705 110.327C190.288 111.764 190.837 113.235 191.42 114.672C193.41 119.771 195.434 124.835 197.561 129.9C198.636 132.432 199.711 134.964 200.786 137.496C201.335 138.797 201.815 140.063 202.329 141.329C202.844 142.629 203.29 143.929 203.805 145.196Z" fill="#2D3134"/>
<path d="M163.872 51.8811C161.368 55.5083 158.76 59.1013 156.153 62.6943C151.487 69.0931 146.822 75.4578 142.087 81.7883C137.353 88.1187 132.619 94.4834 127.679 100.643C127.644 100.677 127.576 100.643 127.61 100.574C130.114 96.9129 132.722 93.3199 135.329 89.7612C139.995 83.3623 144.695 77.0319 149.395 70.6672C151.762 67.5191 154.198 64.371 156.599 61.2228C159.001 58.0747 161.402 54.9266 163.838 51.8469C163.872 51.8127 163.906 51.8469 163.872 51.8811Z" fill="#2D3134"/>
<path d="M97.9734 50.786C106.893 40.2466 118.969 46.0296 120.273 48.4249C127.992 62.7283 135.848 112.482 134.75 113.475L68.2982 152.313C68.2982 152.313 62.5003 92.7038 97.9734 50.786Z" fill="#31C3E0"/>
<path opacity="0.2" d="M111.525 70.3934C111.01 70.496 110.495 70.7013 109.878 70.4618C109.329 70.2565 108.917 69.6063 108.917 68.9904C108.952 68.5798 108.711 68.2034 108.334 67.9981C108.162 67.8612 107.957 67.827 107.682 67.7927C107.408 67.7243 107.168 67.7243 106.893 67.6559C107.408 67.5532 107.922 67.3479 108.54 67.5532C109.123 67.7585 109.535 68.3402 109.535 68.9904C109.535 69.401 109.741 69.7774 110.118 70.0512C110.289 70.1538 110.495 70.2223 110.735 70.2565C111.01 70.2907 111.25 70.3249 111.525 70.3934ZM116.568 102.593C116.087 102.696 115.573 102.901 114.955 102.662C114.372 102.456 113.995 101.806 113.995 101.224C113.995 100.814 113.754 100.403 113.411 100.198C113.206 100.061 113 100.027 112.725 99.9925C112.485 99.9583 112.211 99.9241 111.971 99.8556C112.485 99.7872 112.965 99.5819 113.583 99.7872C114.166 99.9583 114.612 100.574 114.612 101.19C114.578 101.635 114.818 102.011 115.161 102.251C115.333 102.388 115.538 102.422 115.813 102.456C116.053 102.49 116.327 102.525 116.568 102.593ZM97.4931 81.138C97.0128 81.2064 96.4639 81.4118 95.8807 81.1722C95.2975 80.9669 94.9201 80.351 94.9201 79.7351C94.9201 79.3244 94.68 78.948 94.3369 78.7085C94.1311 78.6058 93.9252 78.5374 93.6508 78.5374C93.4106 78.469 93.1362 78.4347 92.896 78.3663C93.4106 78.2979 93.8909 78.0926 94.5084 78.2979C95.0916 78.469 95.5033 79.0849 95.5376 79.7351C95.5033 80.1457 95.7435 80.5221 96.0865 80.7616C96.2581 80.8985 96.4639 80.9669 96.7384 80.9669C96.9785 81.0354 97.253 81.0696 97.4931 81.138ZM87.1668 114.125C86.6522 114.193 86.1376 114.399 85.5201 114.159C84.9712 113.954 84.5595 113.338 84.5595 112.722C84.5938 112.311 84.3537 111.935 83.9763 111.695C83.8048 111.593 83.5989 111.524 83.3245 111.524C83.05 111.456 82.8099 111.422 82.5354 111.353C83.05 111.285 83.5646 111.079 84.1821 111.285C84.7653 111.49 85.177 112.072 85.177 112.722C85.177 113.132 85.3829 113.509 85.7602 113.748C85.9318 113.885 86.1376 113.954 86.3777 113.954C86.6522 114.022 86.8923 114.056 87.1668 114.125ZM85.8631 135.34C85.3485 135.409 84.834 135.614 84.2507 135.375C83.6675 135.169 83.2558 134.553 83.2902 133.937C83.2902 133.527 83.05 133.15 82.6726 132.911C82.5011 132.808 82.2953 132.74 82.0208 132.74C81.7807 132.671 81.5062 132.637 81.2661 132.569C81.7807 132.5 82.261 132.295 82.8785 132.5C83.4617 132.671 83.8734 133.287 83.8734 133.903C83.8734 134.348 84.0792 134.724 84.4566 134.964C84.6281 135.101 84.834 135.169 85.1084 135.169C85.3486 135.238 85.623 135.272 85.8631 135.34ZM103.188 47.1247C102.776 47.1931 102.33 47.3642 101.85 47.2615C102.01 47.1703 102.17 47.079 102.33 46.9878C102.353 46.9878 102.376 46.9878 102.399 46.9878C102.673 47.022 102.914 47.0562 103.188 47.1247ZM126.242 90.8903C125.933 91.3352 125.727 91.8142 125.144 92.1222C124.595 92.3617 123.875 92.2591 123.429 91.8142C123.12 91.5063 122.708 91.3694 122.297 91.472C122.057 91.5063 121.885 91.6089 121.679 91.78C121.473 91.9169 121.268 92.088 121.027 92.2249C121.336 91.78 121.542 91.2667 122.125 91.0272C122.708 90.7535 123.429 90.9246 123.841 91.3694C124.115 91.6431 124.561 91.78 125.007 91.6773C125.213 91.6089 125.384 91.5063 125.59 91.3352C125.796 91.1983 126.002 91.0272 126.242 90.8903ZM133.344 100.198C133.275 100.243 133.218 100.3 133.172 100.369C132.966 100.54 132.795 100.745 132.589 100.916C132.76 100.506 132.898 100.061 133.275 99.7187C133.298 99.8784 133.321 100.038 133.344 100.198ZM76.223 102.764C75.9142 103.209 75.7084 103.688 75.1252 103.996C74.5763 104.27 73.8558 104.133 73.4098 103.688C73.1697 103.449 72.8609 103.312 72.5179 103.312L72.6551 102.764C73.0668 102.764 73.5128 102.935 73.8215 103.243C74.096 103.551 74.542 103.654 74.9536 103.551C75.1938 103.483 75.3653 103.38 75.5712 103.209C75.777 103.072 75.9828 102.901 76.223 102.764ZM97.8019 125.177C97.4931 125.588 97.2873 126.067 96.704 126.375C96.1551 126.649 95.4347 126.512 94.9887 126.067C94.68 125.759 94.2683 125.656 93.8223 125.725C93.6165 125.759 93.4449 125.862 93.2391 126.033C92.9989 126.17 92.7931 126.341 92.5873 126.478C92.8617 126.067 93.1019 125.554 93.6851 125.28C94.234 125.006 94.9887 125.177 95.4004 125.622C95.6749 125.93 96.1208 126.033 96.5325 125.93C96.7727 125.896 96.9442 125.759 97.15 125.588C97.3559 125.451 97.5617 125.28 97.8019 125.177ZM70.5624 138.762C70.2536 139.173 70.0478 139.686 69.4646 139.96C68.9843 140.199 68.4011 140.131 67.9551 139.857C67.9779 139.606 67.9894 139.344 67.9894 139.07C68.058 139.116 68.1152 139.173 68.1609 139.241C68.4354 139.515 68.8814 139.618 69.293 139.515C69.5332 139.481 69.7047 139.378 69.9106 139.207C70.1164 139.036 70.3222 138.899 70.5624 138.762ZM99.4143 98.0078C99.1055 98.4184 98.8997 98.8975 98.3165 99.2055C97.7676 99.4792 97.0471 99.3423 96.6011 98.8975C96.2924 98.5895 95.8807 98.4869 95.469 98.5553C95.2289 98.5895 95.0573 98.6922 94.8515 98.8633C94.6457 99.0001 94.4398 99.1713 94.1997 99.3081C94.5084 98.8975 94.7143 98.3842 95.2975 98.1105C95.8807 97.8709 96.6011 98.042 97.0128 98.4527C97.2873 98.7606 97.7333 98.8633 98.1449 98.7606C98.3851 98.7264 98.5566 98.6238 98.7624 98.4527C98.9683 98.2816 99.1741 98.1447 99.4143 98.0078ZM117.7 120.558C117.391 120.969 117.185 121.482 116.602 121.756C116.053 122.029 115.333 121.927 114.887 121.482C114.578 121.174 114.166 121.037 113.754 121.105C113.514 121.174 113.343 121.276 113.137 121.413C112.931 121.584 112.725 121.721 112.485 121.858C112.794 121.448 113 120.934 113.583 120.695C114.166 120.421 114.887 120.592 115.298 121.037C115.607 121.311 116.019 121.413 116.465 121.345C116.671 121.276 116.842 121.174 117.048 121.003C117.254 120.866 117.46 120.695 117.7 120.558ZM113.377 53.5235C113.171 54.1053 112.554 54.5159 111.936 54.5159C111.49 54.5159 111.113 54.7212 110.873 55.0976C110.77 55.2687 110.701 55.474 110.667 55.7478C110.633 55.9873 110.598 56.261 110.53 56.5006C110.427 55.9873 110.221 55.474 110.461 54.8923C110.667 54.3106 111.319 53.9 111.936 53.9342C112.314 53.9342 112.725 53.6946 112.931 53.3182C113.068 53.1472 113.103 52.9418 113.137 52.6681C113.171 52.4286 113.206 52.1548 113.274 51.9153C113.377 52.4286 113.583 52.9076 113.377 53.5235ZM128.506 110.977C128.335 111.524 127.717 111.969 127.065 111.969C126.654 111.969 126.276 112.174 126.036 112.517C125.899 112.722 125.83 112.893 125.83 113.167C125.762 113.44 125.727 113.68 125.659 113.954C125.59 113.44 125.384 112.927 125.625 112.311C125.83 111.729 126.448 111.353 127.065 111.353C127.477 111.353 127.854 111.114 128.095 110.771C128.198 110.566 128.266 110.395 128.266 110.121C128.335 109.847 128.369 109.608 128.438 109.334C128.506 109.847 128.712 110.361 128.506 110.977ZM125.933 77.0318C125.762 77.6135 125.144 78.0241 124.527 78.0583C124.081 78.0241 123.703 78.2637 123.463 78.6058C123.326 78.7769 123.292 78.9822 123.257 79.256C123.189 79.4955 123.189 79.7693 123.12 80.0088C123.017 79.5297 122.811 78.9822 123.052 78.4005C123.257 77.8188 123.875 77.4424 124.492 77.4424C124.904 77.4424 125.281 77.2029 125.522 76.8607C125.659 76.6554 125.693 76.4501 125.727 76.1763C125.762 75.9368 125.796 75.663 125.865 75.4235C125.933 75.9368 126.139 76.4158 125.933 77.0318ZM109.912 85.5522C109.706 86.1339 109.123 86.5446 108.471 86.5446C108.06 86.5446 107.682 86.7499 107.442 87.1263C107.305 87.2974 107.236 87.5027 107.236 87.7422C107.168 88.016 107.133 88.2555 107.065 88.5293C106.996 88.016 106.79 87.5027 107.03 86.921C107.236 86.3393 107.854 85.9286 108.471 85.9629C108.883 85.9629 109.26 85.7233 109.5 85.3469C109.603 85.1758 109.672 84.9705 109.672 84.6968C109.741 84.4572 109.775 84.1835 109.844 83.9439C109.912 84.4572 110.118 84.9363 109.912 85.5522ZM75.0566 122.851C74.885 123.432 74.2675 123.843 73.65 123.877C73.204 123.843 72.8266 124.048 72.5865 124.425C72.4492 124.596 72.4149 124.801 72.3806 125.075C72.312 125.314 72.312 125.588 72.2434 125.828C72.1405 125.314 71.9347 124.801 72.1748 124.219C72.3806 123.638 72.9982 123.227 73.6157 123.261C74.0274 123.261 74.4047 123.022 74.6449 122.645C74.7821 122.474 74.8164 122.269 74.8507 121.995C74.885 121.756 74.9193 121.482 74.9879 121.242C75.0566 121.756 75.2624 122.235 75.0566 122.851ZM79.8252 145.572L79.688 145.64C79.7337 145.526 79.768 145.412 79.7909 145.298C79.7909 145.389 79.8023 145.48 79.8252 145.572ZM86.3091 69.0588C86.1376 69.6405 85.5544 70.0512 84.9369 70.0512C85.0512 69.8231 85.1656 69.5949 85.2799 69.3668C85.5201 69.2641 85.7602 69.0931 85.8975 68.8535C86.0004 68.6824 86.069 68.4771 86.069 68.2034C86.0919 68.0893 86.1147 67.9638 86.1376 67.827C86.1833 67.7585 86.2291 67.6901 86.2748 67.6216C86.3434 68.0665 86.4807 68.5113 86.3091 69.0588ZM86.3091 91.5747C86.1033 92.1564 85.5201 92.567 84.8683 92.567C84.4566 92.567 84.0792 92.7724 83.8391 93.1488C83.7018 93.3199 83.6332 93.5252 83.6332 93.7647C83.5646 94.0385 83.5303 94.278 83.4617 94.5517C83.3931 94.0384 83.1872 93.5252 83.4274 92.9092C83.6332 92.3617 84.2507 91.9511 84.8683 91.9853C85.2799 91.9853 85.6573 91.7458 85.8975 91.3694C86.0004 91.1983 86.069 90.993 86.069 90.7192C86.1376 90.4455 86.1719 90.206 86.2405 89.9322C86.3091 90.4455 86.515 90.9588 86.3091 91.5747ZM104.457 110.977C104.252 111.524 103.668 111.969 103.016 111.969C102.605 111.969 102.227 112.174 101.987 112.517C101.85 112.722 101.781 112.893 101.747 113.167C101.713 113.44 101.679 113.68 101.61 113.954C101.541 113.44 101.301 112.927 101.541 112.311C101.781 111.729 102.399 111.353 103.016 111.353C103.428 111.353 103.806 111.114 104.046 110.771C104.149 110.566 104.183 110.395 104.217 110.121C104.286 109.847 104.286 109.608 104.354 109.334C104.457 109.847 104.663 110.361 104.457 110.977ZM125.625 63.2759C125.487 63.2074 125.384 63.1048 125.281 63.0021C125.007 62.7284 124.561 62.6257 124.149 62.7284C123.944 62.7626 123.772 62.8653 123.566 63.0364C123.326 63.2074 123.12 63.3443 122.914 63.4812C123.189 63.0706 123.395 62.5573 123.978 62.2835C124.39 62.0782 124.904 62.1124 125.35 62.3177C125.442 62.6371 125.533 62.9565 125.625 63.2759ZM100.409 59.8882C100.1 60.2989 99.8946 60.8121 99.277 61.0859C98.7281 61.3254 98.0077 61.1543 97.5617 60.7095C97.2873 60.4357 96.8413 60.3331 96.4296 60.4357C96.2238 60.4699 96.0522 60.5726 95.8464 60.7437C95.6062 60.8806 95.4004 61.0517 95.1946 61.1885C95.5033 60.7779 95.7092 60.2646 96.2581 59.9909C96.807 59.7171 97.5617 59.854 98.0077 60.2646C98.2822 60.5726 98.7281 60.7095 99.1398 60.641C99.3457 60.5726 99.5515 60.5042 99.7573 60.3331C99.9632 60.162 100.169 60.0251 100.409 59.8882Z" fill="black"/>
<path d="M119.071 61.736C115.606 62.044 106.48 53.6604 105.794 47.809C105.76 47.3984 112.484 34.8402 113.582 32.2053C113.788 31.6578 128.471 42.95 128.471 42.95C128.471 42.95 124.56 47.809 122.742 52.3943C122.581 52.7821 122.467 53.1585 122.399 53.5235C122.376 53.5692 122.364 53.6262 122.364 53.6946C121.85 55.8846 122.913 61.428 119.071 61.736Z" fill="#D3766A"/>
<path d="M128.471 42.9501C128.471 42.9501 124.56 47.8092 122.742 52.3945C122.582 52.7823 122.467 53.1587 122.399 53.5237C122.376 53.5693 122.364 53.6263 122.364 53.6948C121.815 53.5579 121.232 53.3526 120.615 53.1131C111.558 49.1779 113.582 36.9619 114.611 32.7188C117.973 34.9087 128.471 42.9501 128.471 42.9501Z" fill="#2D3134"/>
<path d="M142.981 12.7693C146.412 18.0389 142.398 42.0604 135.091 47.467C127.543 53.0446 117.663 48.6988 113.649 40.8286C110.87 35.3878 114.266 17.0124 118.349 11.7427C124.387 3.97506 137.972 4.96741 142.981 12.7693Z" fill="#D3766A"/>
<path opacity="0.4" d="M139.242 33.5059C139.242 33.5059 140.271 33.0269 140.271 33.198C140.271 33.2322 139.825 33.7455 139.722 33.985C139.653 34.1561 139.242 34.3956 139.242 34.4298C139.242 34.9773 139.242 35.388 139.242 35.6275C139.242 35.9355 139.07 36.9962 139.07 37.3042C139.07 37.6122 139.276 38.673 139.276 39.1178C139.276 39.5626 139.31 41.7184 139.139 42.0606C138.967 42.4028 139.276 44.1137 138.83 44.5243C138.384 44.935 138.487 43.2583 138.693 42.9161C138.899 42.5397 138.899 39.6995 138.967 39.2889C139.036 38.9125 138.761 37.7148 138.761 37.4069C138.761 37.0989 138.967 36.3461 138.967 35.7644C138.967 35.3537 138.967 34.6694 138.967 34.1219C138.967 34.0534 138.315 33.7113 138.315 33.6428C138.315 33.6086 138.041 33.1638 138.041 33.1295C138.041 33.0269 138.967 33.5059 138.967 33.5059H139.242Z" fill="white"/>
<path d="M128.848 24.5405C129.397 24.3694 129.912 24.3352 130.495 24.2325C131.112 24.1298 131.627 23.993 132.21 24.2667C132.553 24.4378 132.725 24.9169 132.622 25.2591C132.347 26.0119 131.593 26.3198 130.838 26.4909C130.014 26.662 129.328 26.5936 128.608 26.183C127.887 25.8066 128.128 24.7116 128.848 24.5405Z" fill="#2D3134"/>
<path d="M141.61 30.563C140.787 30.3919 140.204 30.0497 139.655 29.3995C139.174 28.8178 138.797 28.0992 139.037 27.3464C139.174 27.0042 139.62 26.7305 139.964 26.8331C140.615 26.97 140.924 27.3806 141.336 27.8597C141.713 28.2703 142.125 28.6467 142.468 29.1258C142.914 29.7075 142.399 30.6998 141.61 30.563Z" fill="#2D3134"/>
<path d="M125.795 40.0072C126.001 40.3494 126.207 40.8285 126.653 40.9653C127.065 41.1022 127.614 41.0338 128.06 40.9653C128.094 40.9653 128.128 40.9996 128.094 41.0338C127.648 41.4444 126.928 41.5813 126.379 41.3417C125.83 41.1364 125.658 40.5889 125.658 40.0414C125.658 39.973 125.761 39.973 125.795 40.0072Z" fill="#2D3134"/>
<path d="M128.779 38.2963C131.112 37.4751 133.445 38.7754 133.445 38.7754C133.582 38.3648 133.822 35.5589 133.994 35.5589C134.474 35.6615 135.298 36.2432 135.812 36.5854C136.567 32.616 136.67 28.544 137.459 24.6089C137.493 24.472 137.699 24.472 137.699 24.6089C137.905 28.8862 137.15 33.4715 136.498 37.612C136.395 38.091 134.817 36.9276 134.509 36.6538C134.509 36.6538 134.028 39.2545 133.994 39.2887V39.3229C133.96 39.4598 133.754 39.6993 133.617 39.6993C132.347 39.2545 130.392 38.5701 128.676 38.8438C127.853 38.9807 128.162 38.5359 128.779 38.2963Z" fill="#2D3134"/>
<path d="M138.385 30.666C138.385 30.6318 138.454 30.7344 138.419 30.8029C138.076 31.8979 137.836 33.2666 138.762 33.9167C138.762 33.951 138.762 34.0194 138.728 33.9852C137.527 33.4377 137.836 31.6583 138.385 30.666Z" fill="#2D3134"/>
<path d="M138.488 30.4944C138.385 31.0419 138.317 31.6236 138.351 32.1711C138.385 32.6844 138.591 33.1292 139.037 33.2319C139.414 33.3345 139.826 33.0266 140.101 32.5817C140.238 32.3536 140.364 32.1141 140.478 31.8631C140.592 31.6122 140.684 31.3384 140.752 31.0419C140.821 31.4183 140.787 31.8289 140.684 32.2395C140.638 32.422 140.581 32.6045 140.512 32.787C140.375 33.0608 140.203 33.3345 139.929 33.5399C139.655 33.7794 139.243 33.882 138.866 33.7794C138.522 33.6767 138.214 33.4372 138.042 33.1292C137.905 32.787 137.871 32.4449 137.905 32.1369C137.974 31.5552 138.179 30.9734 138.488 30.4944Z" fill="#2D3134"/>
<path opacity="0.4" d="M129.5 31.008C129.98 31.1448 130.563 31.0422 130.563 31.2475C130.563 31.2817 130.426 31.5555 130.22 31.6581C129.809 31.8634 129.603 32.3767 129.603 32.4109C129.5 33.677 129.157 35.3195 129.157 35.4222C129.157 35.5933 129.225 36.654 129.054 36.9278C128.882 37.2358 127.098 38.2965 126.893 38.5019C126.652 38.6729 124.971 40.7945 124.937 40.9998C124.903 41.1709 124.594 45.4482 124.594 45.6878C124.56 45.9273 125.109 47.5698 125.109 47.9804C125.109 48.2199 124.868 49.0754 124.868 49.3149C124.903 49.5545 125.109 49.6914 125.109 49.7256C125.143 49.794 125.074 49.8624 124.971 49.8624C124.868 49.8282 124.8 49.794 124.731 49.6571C124.663 49.5203 124.663 48.4937 124.731 48.0489C124.8 47.5698 124.422 46.3721 124.388 45.7904C124.32 45.2087 124.56 41.8211 124.628 41.1025C124.697 40.3839 126.241 38.8098 126.652 38.2965C127.064 37.7833 128.471 36.9278 128.642 36.7567C128.779 36.6198 128.814 36.175 128.745 35.559C128.677 34.9431 129.191 33.6428 129.191 33.1637C129.225 32.89 129.191 32.8558 129.191 32.4451C129.157 31.8634 128.985 31.6239 128.814 31.4186C128.574 31.1448 128.471 30.3578 128.471 30.2894C128.505 30.1867 128.985 30.8711 129.5 31.008Z" fill="white"/>
<path d="M129.465 31.658C129.431 31.658 129.431 31.5896 129.465 31.5896C130.597 31.4185 131.009 30.1182 131.215 28.9547C131.215 28.9205 131.318 28.8179 131.318 28.8863C131.318 30.0155 130.769 31.7265 129.465 31.658Z" fill="#2D3134"/>
<path d="M131.043 30.3919C130.94 30.6999 130.734 30.9736 130.46 31.1789C130.185 31.4185 129.774 31.4869 129.43 31.4185C129.053 31.3158 128.744 31.042 128.607 30.6999C128.47 30.3919 128.436 30.0839 128.436 29.776C128.458 29.5707 128.493 29.3767 128.538 29.1942C128.641 28.7836 128.779 28.4072 129.053 28.0992C128.962 28.3958 128.904 28.681 128.882 28.9547C128.882 29.2285 128.893 29.4908 128.916 29.7417C128.95 30.2892 129.156 30.7683 129.568 30.8367C129.979 30.9394 130.357 30.6656 130.631 30.1866C130.906 29.7417 131.111 29.1942 131.317 28.6467C131.352 29.2285 131.283 29.8444 131.043 30.3919Z" fill="#2D3134"/>
<path opacity="0.2" d="M118.795 20.2975C117.423 21.94 114.438 25.9093 113.443 25.9435C114.61 19.442 116.394 13.8301 119.07 10.8531C120.236 9.58702 121.505 8.62891 122.981 7.8761C122.569 9.58703 120.27 18.5523 118.795 20.2975Z" fill="#2D3134"/>
<path d="M138.454 16.9098C136.842 18.5866 134.235 19.3052 132.005 18.655C129.638 18.0048 128.06 15.9175 127.545 13.5906C127.545 13.5222 127.648 13.5222 127.648 13.5906C128.128 15.7464 130.084 17.5258 132.176 18.1759C134.338 18.8261 136.67 18.2786 138.352 16.8072C138.42 16.7387 138.523 16.8414 138.454 16.9098Z" fill="#2D3134"/>
<path d="M140.788 4.89903C140.822 5.03591 140.513 5.07013 140.479 4.93325C139.998 3.63295 138.866 2.50373 137.391 1.68248C134.544 0.142644 131.044 0.211083 128.197 1.54561C125.281 2.91436 123.634 5.61763 123.497 8.18403C123.497 8.21824 123.36 8.21824 123.36 8.14981C123.325 6.54153 123.668 5.00169 124.698 3.56451C126.413 1.23764 130.118 -0.37064 133.858 0.074202C137.22 0.450607 140.067 2.43529 140.788 4.89903Z" fill="#2D3134"/>
<path d="M153.137 16.8756C150.907 20.2975 146.241 21.3925 142.639 19.5447C142.536 19.5105 142.639 19.4078 142.708 19.442C144.698 20.4001 147.065 20.4686 149.089 19.6473C152.691 18.2444 154.715 14.0697 153.686 10.3399C153.206 8.56049 152.005 6.98643 150.495 5.92565C148.643 4.62535 146.379 4.42003 144.183 4.31737C144.114 4.31737 144.114 4.21472 144.183 4.21472C146.79 4.31738 149.398 4.45426 151.49 6.16519C152.966 7.39706 154.029 9.14221 154.372 11.0585C154.749 13.0431 154.235 15.1647 153.137 16.8756Z" fill="#2D3134"/>
<path d="M116.051 16.1227C116.051 16.1227 113.478 8.97098 116.978 5.54912C118.933 3.59865 124.456 4.65943 124.456 4.65943C124.456 4.65943 126.686 1.71663 131.455 1.34023C136.258 0.929602 141.404 4.4199 141.404 4.4199C141.404 4.4199 146.173 2.50366 149.981 5.44646C155.264 9.5527 153.308 18.21 147.099 20.2289C142.742 21.6319 137.733 17.2519 137.733 17.2519C137.184 17.2177 131.283 19.7499 127.853 14.3091C127.853 14.3091 124.079 16.8071 121.369 14.3091C121.369 14.3091 119.413 17.115 116.051 16.1227Z" fill="#2D3134"/>
<path d="M115.982 32.274C115.982 32.274 113.89 34.6351 111.317 32.4451C108.709 30.2551 108.675 21.1188 111.728 20.6055C114.747 20.1264 116.669 27.107 116.669 27.107L115.982 32.274Z" fill="#D3766A"/>
<path d="M114.301 31.6581C114.301 31.6809 114.301 31.6923 114.301 31.6923C114.301 31.9318 113.924 31.9318 113.89 31.6923C113.787 31.0421 113.752 30.3235 113.512 29.7076C113.169 28.7837 112.586 28.4415 111.66 28.3046C111.625 28.3046 111.591 28.202 111.66 28.1678C112.963 27.7914 113.65 28.5442 113.993 29.5365C113.958 27.2439 113.547 24.917 111.763 23.3087C111.728 23.2745 111.763 23.2061 111.797 23.2403C114.576 24.5406 115.296 28.989 114.301 31.6581Z" fill="#2D3134"/>
<path d="M235.711 63.5153C237.769 66.7319 235.23 69.7431 235.23 69.7431C235.23 69.7431 238.009 70.975 239.107 73.6782C240.376 76.7921 236.054 80.1114 236.054 80.1114C236.054 80.1114 238.593 81.9592 239.485 84.9362C240.376 88.0159 236.5 92.0194 236.5 92.0194C236.5 92.0194 237.941 95.0307 236.843 98.1446C234.99 103.448 226.551 105.331 221.199 106.597C215.847 107.863 199.483 106.391 196.327 106.46L187.99 72.2411C187.99 72.2411 210.392 59.8197 216.876 59.238C222.365 58.7589 233.378 59.9223 235.711 63.5153Z" fill="#D3766A"/>
<path d="M234.853 69.5378C228.953 69.9827 222.983 69.4694 217.117 70.1195C216.98 70.1195 216.945 69.9142 217.082 69.9142C223.018 69.3325 228.884 68.3744 234.853 69.2641C234.991 69.2983 234.991 69.5378 234.853 69.5378Z" fill="#2D3134"/>
<path d="M235.848 80.1114C234.579 80.5563 233.172 80.6247 231.834 80.7958C230.394 80.9783 228.953 81.1722 227.512 81.3775C224.63 81.7539 221.783 82.233 218.935 82.7463C218.798 82.7805 218.764 82.5752 218.901 82.5752C221.737 81.8908 224.584 81.2863 227.443 80.7616C228.861 80.4878 230.291 80.2483 231.732 80.043C233.069 79.8377 234.476 79.5639 235.814 79.7008C236.02 79.735 236.054 80.043 235.848 80.1114Z" fill="#2D3134"/>
<path d="M236.397 92.1566C235.437 92.7383 234.03 92.8751 232.932 93.0462C231.629 93.2744 230.325 93.5025 229.021 93.7306C226.345 94.1412 223.67 94.5176 221.028 94.9283C220.891 94.9625 220.856 94.7572 220.994 94.723C223.601 94.3123 226.208 93.799 228.816 93.2858C230.119 93.0348 231.423 92.7839 232.726 92.5329C233.859 92.2934 235.197 91.8486 236.363 92.0197C236.432 92.0197 236.466 92.1223 236.397 92.1566Z" fill="#2D3134"/>
<path d="M196.327 106.46C179.997 107.349 140.545 113.714 131.008 109.026C122.294 104.749 108.194 86.8183 96.8382 69.401C90.8002 60.1277 93.236 53.1813 103.802 58.0404C114.781 63.0705 136.702 82.3698 139.07 83.3964C142.157 84.6967 183.531 73.6783 190.633 70.8039C195.813 68.7508 199.655 106.254 196.327 106.46Z" fill="#D3766A"/>
<path d="M131.696 111.935C124.08 108.376 103.393 85.826 95.5367 69.093C89.3615 55.9531 96.806 51.9153 106.103 58.0747C115.983 64.6446 136.259 81.3433 138.866 82.2672C143.635 83.9439 188.13 70.5302 188.13 70.5302L194.752 108.924C194.752 108.924 137.494 114.638 131.696 111.935Z" fill="#31C3E0"/>
<path opacity="0.2" d="M111.523 70.3933C111.009 70.496 110.494 70.7013 109.877 70.4617C109.328 70.2564 108.916 69.6063 108.916 68.9903C108.95 68.5797 108.71 68.2033 108.333 67.998C108.161 67.8611 107.955 67.8269 107.681 67.7927C107.407 67.7243 107.166 67.7243 106.892 67.6558C107.407 67.5532 107.921 67.3478 108.539 67.5532C109.122 67.7585 109.534 68.3402 109.534 68.9903C109.534 69.401 109.739 69.7774 110.117 70.0511C110.288 70.1538 110.494 70.2222 110.734 70.2564C111.009 70.2907 111.249 70.3249 111.523 70.3933ZM140.65 86.8525C140.135 86.9551 139.62 87.1605 139.003 86.9209C138.42 86.7156 138.042 86.0655 138.042 85.4495C138.042 85.0389 137.802 84.6625 137.459 84.423C137.253 84.3203 137.082 84.2861 136.807 84.2519C136.533 84.1834 136.293 84.1834 136.018 84.115C136.533 84.0123 137.047 83.807 137.665 84.0123C138.214 84.2177 138.66 84.7994 138.66 85.4495C138.66 85.8602 138.866 86.2365 139.209 86.5103C139.415 86.613 139.586 86.6814 139.861 86.7156C140.135 86.7498 140.375 86.784 140.65 86.8525ZM145.727 112.551C145.475 112.573 145.235 112.585 145.007 112.585C144.766 112.311 144.629 111.935 144.629 111.558C144.629 111.148 144.389 110.771 144.046 110.566C143.84 110.429 143.669 110.395 143.394 110.361C143.12 110.326 142.88 110.292 142.605 110.224C143.12 110.121 143.634 109.916 144.252 110.121C144.801 110.326 145.247 110.942 145.247 111.558C145.247 111.969 145.418 112.311 145.727 112.551ZM166.208 94.8254C165.694 94.9281 165.179 95.1334 164.561 94.8939C164.013 94.6886 163.601 94.0384 163.601 93.4567C163.635 93.0461 163.395 92.6354 163.018 92.4301C162.812 92.2932 162.64 92.259 162.366 92.2248C162.091 92.1906 161.851 92.1564 161.577 92.0879C162.091 91.9853 162.606 91.78 163.223 91.9853C163.807 92.1906 164.218 92.8065 164.218 93.4225C164.218 93.8673 164.424 94.2437 164.767 94.4832C164.973 94.6201 165.179 94.6543 165.419 94.6886C165.694 94.7228 165.934 94.757 166.208 94.8254ZM189.674 79.3928C189.297 79.1191 189.091 78.64 189.091 78.1952C189.091 77.7845 188.851 77.4081 188.507 77.1686C188.302 77.0317 188.13 76.9975 187.856 76.9633C187.581 76.9291 187.341 76.8949 187.067 76.8264C187.581 76.758 188.096 76.5527 188.713 76.758C188.919 76.8264 189.125 76.9633 189.262 77.1344L189.674 79.3928ZM187.135 107.829C186.621 107.897 186.106 108.102 185.488 107.897C184.94 107.657 184.528 107.041 184.528 106.426C184.562 106.015 184.322 105.639 183.945 105.399C183.773 105.296 183.567 105.228 183.293 105.228C183.018 105.159 182.778 105.125 182.504 105.057C183.018 104.988 183.533 104.783 184.151 104.988C184.734 105.194 185.145 105.775 185.145 106.426C185.145 106.836 185.351 107.213 185.729 107.452C185.9 107.589 186.106 107.657 186.346 107.657C186.621 107.726 186.861 107.76 187.135 107.829ZM126.275 90.8903C125.966 91.3009 125.761 91.8142 125.177 92.0879C124.628 92.3617 123.908 92.2248 123.428 91.78C123.153 91.472 122.742 91.3694 122.296 91.4378C122.09 91.472 121.918 91.5747 121.712 91.7457C121.472 91.8826 121.266 92.0537 121.061 92.1906C121.335 91.78 121.575 91.2667 122.158 90.9929C122.707 90.7534 123.428 90.9245 123.874 91.3351C124.148 91.6431 124.594 91.7458 125.006 91.6431C125.246 91.6089 125.383 91.5062 125.623 91.3351C125.829 91.164 126.035 91.0272 126.275 90.8903ZM180.377 93.5251C180.068 93.9357 179.862 94.449 179.279 94.7228C178.73 94.9965 178.01 94.8596 177.564 94.4148C177.255 94.1068 176.843 94.0042 176.432 94.0726C176.191 94.1068 176.02 94.2095 175.814 94.3806C175.608 94.5517 175.402 94.6885 175.162 94.8254C175.471 94.4148 175.677 93.9015 176.26 93.6278C176.843 93.3882 177.564 93.5593 177.975 94.0042C178.25 94.2779 178.696 94.3806 179.107 94.2779C179.348 94.2437 179.519 94.1411 179.725 93.97C179.931 93.7989 180.137 93.662 180.377 93.5251ZM160.548 104.27C160.239 104.715 160.033 105.194 159.45 105.502C158.901 105.775 158.18 105.639 157.734 105.194C157.426 104.886 157.014 104.749 156.602 104.851C156.362 104.886 156.191 104.988 155.985 105.159C155.779 105.296 155.573 105.467 155.333 105.604C155.642 105.159 155.848 104.646 156.431 104.407C157.014 104.133 157.734 104.304 158.146 104.749C158.421 105.057 158.867 105.159 159.278 105.057C159.518 104.988 159.69 104.886 159.896 104.715C160.102 104.578 160.307 104.407 160.548 104.27ZM137.528 98.7264C137.288 99.2054 137.185 99.7187 136.67 100.095C136.155 100.472 135.435 100.472 134.886 100.095C134.577 99.8556 134.131 99.7871 133.72 99.9582C133.514 100.027 133.342 100.129 133.171 100.335C132.999 100.54 132.828 100.711 132.622 100.882C132.828 100.437 132.965 99.8898 133.514 99.5134C133.994 99.1712 134.749 99.2396 135.264 99.5818C135.572 99.8214 136.018 99.8556 136.43 99.7187C136.636 99.616 136.773 99.4792 136.945 99.2738C137.15 99.1028 137.322 98.8975 137.528 98.7264ZM158.592 82.0277C158.352 82.5067 158.215 83.02 157.7 83.3964C157.22 83.7728 156.465 83.7386 155.95 83.3964C155.607 83.1227 155.196 83.0884 154.784 83.2253C154.578 83.2938 154.407 83.4306 154.235 83.6359C154.029 83.807 153.858 84.0123 153.652 84.1834C153.892 83.7044 153.995 83.1569 154.544 82.8147C155.058 82.4725 155.813 82.5409 156.294 82.8831C156.637 83.1227 157.083 83.1569 157.46 82.9858C157.7 82.9173 157.837 82.7805 158.009 82.5752C158.215 82.4041 158.386 82.1988 158.592 82.0277ZM128.574 109.95C128.505 109.882 128.437 109.825 128.368 109.779C128.391 109.619 128.414 109.471 128.437 109.334C128.471 109.539 128.539 109.711 128.574 109.95ZM125.966 77.0317C125.761 77.6134 125.177 78.0241 124.526 78.0241C124.114 78.0241 123.736 78.2294 123.496 78.5716C123.359 78.7769 123.291 78.9822 123.256 79.2217C123.222 79.4955 123.188 79.735 123.119 80.0088C123.05 79.4955 122.81 78.9822 123.05 78.3663C123.291 77.7845 123.908 77.4081 124.526 77.4081C124.937 77.4081 125.315 77.2028 125.555 76.8264C125.658 76.6211 125.692 76.45 125.726 76.1763C125.795 75.9025 125.795 75.663 125.864 75.3892C125.966 75.9025 126.172 76.4158 125.966 77.0317ZM172.452 104.954C172.28 105.536 171.663 105.946 171.045 105.946C170.599 105.946 170.222 106.152 169.982 106.528C169.845 106.699 169.776 106.905 169.776 107.144C169.707 107.418 169.673 107.657 169.604 107.931C169.536 107.418 169.33 106.905 169.57 106.323C169.776 105.741 170.394 105.331 171.011 105.365C171.423 105.365 171.8 105.125 172.04 104.749C172.143 104.578 172.212 104.372 172.246 104.099C172.28 103.859 172.315 103.585 172.383 103.346C172.452 103.859 172.658 104.338 172.452 104.954ZM109.945 85.5179C109.739 86.0997 109.122 86.5445 108.504 86.5445C108.093 86.5103 107.715 86.7498 107.441 87.092C107.372 87.2289 107.315 87.3772 107.269 87.5369C107.155 87.4 107.052 87.2631 106.961 87.1262C106.983 87.0578 107.006 86.9779 107.029 86.8867C107.235 86.305 107.887 85.9286 108.504 85.9286C108.916 85.9286 109.293 85.689 109.499 85.3469C109.636 85.1415 109.671 84.9362 109.705 84.6625C109.739 84.423 109.774 84.1492 109.842 83.9097C109.945 84.423 110.151 84.902 109.945 85.5179ZM150.804 95.065C150.599 95.6467 150.015 96.0573 149.364 96.0573C148.952 96.0573 148.575 96.2626 148.3 96.639C148.197 96.8101 148.129 97.0154 148.094 97.255C148.06 97.5287 148.026 97.7682 147.957 98.042C147.854 97.5287 147.648 97.0154 147.888 96.3995C148.094 95.852 148.746 95.4414 149.364 95.4414C149.775 95.4756 150.153 95.2361 150.358 94.8597C150.496 94.6886 150.53 94.4832 150.564 94.2095C150.633 93.9357 150.633 93.6962 150.702 93.4225C150.804 93.9357 151.01 94.449 150.804 95.065ZM173.996 81.3433C173.824 81.925 173.207 82.3698 172.589 82.3698C172.143 82.3356 171.766 82.5752 171.526 82.9173C171.388 83.0884 171.354 83.2938 171.32 83.5675C171.286 83.807 171.251 84.0808 171.183 84.3203C171.08 83.8412 170.874 83.328 171.114 82.712C171.32 82.1303 171.972 81.7539 172.555 81.7539C172.967 81.7539 173.378 81.5144 173.584 81.1722C173.721 80.9669 173.756 80.7616 173.79 80.522C173.824 80.2483 173.859 80.0088 173.927 79.735C173.996 80.2483 174.202 80.7616 173.996 81.3433ZM191.938 92.5328C191.87 92.5556 191.801 92.567 191.732 92.567C191.321 92.5328 190.943 92.7723 190.669 93.1145C190.566 93.2856 190.497 93.4909 190.463 93.7647C190.429 94.0042 190.394 94.2779 190.326 94.5175C190.223 94.0384 190.017 93.4909 190.257 92.9092C190.463 92.3275 191.115 91.9511 191.732 91.9511C191.778 91.9511 191.812 91.9511 191.835 91.9511L191.938 92.5328ZM100.408 59.854C100.134 60.2646 99.8934 60.7779 99.3102 61.0516C98.7613 61.2911 98.0408 61.1201 97.5948 60.6752C97.3204 60.4015 96.8744 60.2988 96.4627 60.4015C96.2569 60.4357 96.0853 60.5383 95.8452 60.7094C95.6393 60.8463 95.4335 61.0174 95.1934 61.1543C95.5021 60.7437 95.708 60.2304 96.2912 59.9566C96.8401 59.6829 97.5605 59.8198 98.0408 60.2304C98.3153 60.5383 98.7269 60.6752 99.1729 60.6068C99.3788 60.5383 99.5846 60.4699 99.7562 60.2988C99.9963 60.1277 100.202 59.9908 100.408 59.854Z" fill="black"/>
<path d="M182.504 74.3969C183.499 79.6666 184.288 84.9705 185.077 90.2744C185.488 92.875 185.9 95.4414 186.243 98.042C186.655 100.745 186.895 103.483 187.307 106.152C187.307 106.289 187.135 106.323 187.101 106.186C186.552 103.517 185.866 100.882 185.351 98.1789C184.871 95.6125 184.425 93.0119 184.048 90.4112C183.258 85.1074 182.572 79.7692 182.298 74.4311C182.298 74.2943 182.469 74.2942 182.504 74.3969Z" fill="#2D3134"/>
<path d="M128.368 75.0472C127.579 74.4655 126.722 73.9522 125.933 73.3362C125.155 72.7431 124.389 72.15 123.634 71.5569C122.09 70.3592 120.684 69.0589 119.243 67.7586C119.208 67.7244 119.243 67.6902 119.243 67.7244C120.752 68.7509 122.262 69.8117 123.703 70.9409C123.634 70.8497 123.565 70.7584 123.497 70.6672C123.017 70.0855 122.605 69.4695 122.125 68.8536H122.159C122.605 69.3669 123.085 69.8459 123.531 70.3592C123.771 70.5987 123.977 70.8725 124.183 71.1462C124.297 71.2603 124.4 71.3858 124.492 71.5227C124.537 71.5683 124.572 71.6139 124.595 71.6595C124.663 71.728 124.743 71.7964 124.835 71.8648C124.835 71.8648 124.846 71.8648 124.869 71.8648C124.903 71.8648 124.903 71.8991 124.903 71.9333C125.361 72.2755 125.807 72.6291 126.241 72.9941C126.996 73.61 127.682 74.3286 128.437 74.9787C128.506 75.013 128.403 75.0814 128.368 75.0472Z" fill="#2D3134"/>
<path d="M135.023 112.517C134.577 112.619 132.793 112.688 132.382 112.585C130.804 112.209 128.711 110.498 126.344 108.889C124.903 107.897 123.634 106.631 122.33 105.433C117.767 101.156 113.65 96.3995 109.877 91.4036C108.825 90.0121 107.795 88.6091 106.789 87.1947C106.766 87.1719 106.743 87.1491 106.72 87.1263C106.583 86.9894 106.434 86.8525 106.274 86.7157C105.966 86.4419 105.691 86.1339 105.382 85.8602C104.182 84.6625 102.981 83.4649 101.917 82.1646C101.883 82.1304 101.917 82.0619 101.952 82.0961C102.912 82.9174 103.839 83.7729 104.731 84.6625C105.074 85.0047 105.417 85.3583 105.76 85.7233C103.53 82.4726 101.369 79.1534 99.1729 75.8684C99.1386 75.7999 99.2415 75.7657 99.2758 75.7999C101.369 78.6401 103.461 81.4802 105.623 84.2519C109.465 89.1794 113.204 94.1411 117.39 98.7606C119.448 101.088 121.609 103.312 123.874 105.433C125.006 106.494 129.877 110.737 132.553 111.901C132.965 112.072 134.612 112.345 135.023 112.448C135.058 112.448 135.058 112.517 135.023 112.517Z" fill="#2D3134"/>
<path d="M38.9924 122.375C38.3 125.31 37.5644 128.245 37.3913 131.31C37.4778 131.439 37.4778 132 37.3913 131.871C37.348 132.346 36.6123 132.259 36.6123 131.784C36.6123 131.468 36.6267 131.151 36.6556 130.835C34.8813 128.677 32.3281 127.295 30.2942 125.396C28.6497 123.885 27.438 122.073 26.8322 119.871C25.1012 114.001 26.7023 107.785 24.6684 101.958C22.8941 96.9079 19.7351 92.5483 17.0087 87.973C14.1959 83.1386 12.1187 78.0452 11.9023 72.3907C11.7292 68.0743 12.2485 62.2904 15.5374 59.0531C19.0427 55.6 23.4134 58.1898 26.0965 61.2544C33.886 70.1894 37.4778 81.412 38.9492 92.9368C39.7281 99.3251 40.5936 105.713 40.3772 112.145C40.2907 115.641 39.7714 119.008 38.9924 122.375Z" fill="#EBEBEB"/>
<path d="M34.3185 157.942C34.2753 158.158 33.9291 158.115 33.9723 157.899C34.5782 150.043 35.9197 142.273 36.3957 134.374C36.5688 131.41 36.6554 128.461 36.6554 125.526C33.6694 121.511 31.5057 116.504 29.9478 111.843C29.9045 111.713 30.0776 111.627 30.1209 111.756C31.9817 116.245 34.3618 120.303 36.6121 124.576C36.5688 120.389 36.3092 116.202 35.7466 112.059C35.3139 109.037 34.7513 106.044 34.0589 103.08C30.0776 95.7857 23.846 89.9586 20.0811 82.5344C20.0811 82.5344 20.1243 82.4912 20.1676 82.5344C24.3653 89.1816 29.991 94.8361 33.756 101.786C31.2893 91.7283 27.308 82.0596 21.8986 73.2973C21.8121 73.1246 22.0717 72.952 22.2015 73.1246C29.6881 84.7789 34.7513 97.8144 36.7419 111.541C36.7852 110.634 36.8718 109.728 36.9583 108.821C37.1026 106.088 37.117 103.339 37.0016 100.577C36.8285 95.4404 36.2659 90.2607 35.3139 85.2105C35.2706 85.1674 35.4004 85.1242 35.4004 85.2105C36.5688 90.3902 37.3478 95.5699 37.5642 100.879C37.7373 105.8 37.3478 110.634 37.2612 115.512C37.2612 115.555 37.218 115.555 37.218 115.598C37.8238 121.598 37.8238 127.641 37.4343 133.641C36.915 141.712 35.963 150 34.3185 157.942Z" fill="#A6A6A6"/>
<path d="M32.545 84.9515C32.5882 85.1241 32.3286 85.1673 32.242 84.9946C31.2034 80.894 30.4245 76.8798 28.9531 72.9087C28.9531 72.8224 29.0397 72.7792 29.0397 72.8655C30.6408 76.664 32.1555 80.8077 32.545 84.9515Z" fill="#A6A6A6"/>
<path d="M65.6915 89.527C64.7828 91.8578 63.6143 94.1455 62.3594 96.3469C59.7629 101.052 57.0798 105.368 56.5605 110.85C56.3441 113.31 56.3009 115.771 55.5219 118.102C54.8728 120.173 53.8342 122.029 52.6225 123.799C49.8096 127.9 46.3043 131.439 43.6646 135.669C40.9815 140.072 38.9476 144.95 37.7359 149.957C37.6926 150.259 37.2166 150.172 37.3031 149.913C37.3031 149.885 37.3031 149.856 37.3031 149.827C37.3031 149.827 37.3031 149.813 37.3031 149.784C36.8704 138 37.8224 126.173 41.4143 114.907C42.9722 109.987 44.9195 105.109 47.1266 100.404C49.0307 96.3469 51.4541 92.419 54.8295 89.3543C57.0365 87.3688 61.7968 83.6567 64.9126 85.6422C66.3839 86.5918 66.2974 88.0594 65.6915 89.527Z" fill="#EBEBEB"/>
<path d="M53.9648 116.245C52.3204 119.31 50.373 122.202 48.2958 125.008C47.1707 126.475 46.0022 127.943 44.8338 129.41C43.7952 130.749 42.3671 132.173 41.6315 133.77C40.5496 138.13 39.4677 142.489 38.4724 146.892C37.7511 149.885 37.0587 152.892 36.3952 155.913C35.7461 158.891 35.27 161.956 34.4478 164.934C34.4045 165.064 34.2314 165.021 34.2314 164.891C34.9238 159.409 36.3086 153.884 37.4771 148.446C38.0252 145.913 38.5878 143.381 39.1648 140.849C38.6888 136.274 39.2081 131.525 40.2899 127.08C40.3332 126.993 40.463 126.993 40.463 127.08C39.5975 131.439 39.3379 135.756 39.2946 140.158C40.8092 133.511 42.4537 126.864 44.3145 120.26C44.7473 118.706 45.2233 117.166 45.7426 115.641C46.1753 110.073 47.7332 104.332 49.897 99.1957C49.897 99.1525 49.9835 99.1525 49.9835 99.2388C48.166 104.462 46.9543 109.641 45.959 115.037C46.8245 112.49 47.7765 110.03 48.9449 107.613C51.0654 103.339 53.5754 99.2388 56.0853 95.1382C56.1719 95.0087 56.3882 95.1382 56.3017 95.2677C53.2724 100.447 50.3297 105.67 48.1227 111.282C45.8291 116.979 44.4011 122.979 42.8864 128.892C42.5691 130.13 42.2517 131.367 41.9344 132.605C42.4104 131.871 43.0163 131.137 43.5788 130.446C44.704 128.979 45.8724 127.511 46.9976 126C49.421 122.85 51.8444 119.612 53.835 116.202C53.8783 116.116 54.0081 116.159 53.9648 116.245Z" fill="#A6A6A6"/>
<path d="M54.4839 111.239C52.1904 114.735 49.9833 118.317 47.733 121.814C47.6898 121.9 47.6465 121.814 47.6465 121.771C49.464 118.058 51.8009 114.433 54.3541 111.152C54.3974 111.109 54.4839 111.152 54.4839 111.239Z" fill="#A6A6A6"/>
<path d="M1.25644 89.3542C2.90089 85.4263 7.05529 88.5773 9.08922 90.3038C16.446 96.6921 21.5957 105.152 26.4858 113.44C29.3852 118.36 31.8086 123.367 33.0203 128.936C34.1887 134.374 34.1887 139.942 33.1501 145.424C33.1501 145.467 33.1501 145.467 33.1068 145.511C33.1357 145.539 33.1501 145.568 33.1501 145.597C33.1934 145.942 32.501 146.029 32.4577 145.683C30.9864 134.849 19.908 130.144 11.8155 124.835C8.56991 122.72 4.06931 119.742 4.67516 115.253C4.93481 113.224 6.40617 111.584 6.79564 109.598C7.44477 106.447 5.71377 103.296 4.19914 100.663C2.33832 97.4691 -0.301458 93.239 1.25644 89.3542Z" fill="#EBEBEB"/>
<path d="M11.5993 118.274C16.9654 124.058 25.4906 127.295 30.121 133.77C27.3947 123.842 22.8508 114.907 15.8835 107.138C15.7104 106.922 15.9701 106.663 16.1865 106.836C21.2929 111.713 25.0578 117.411 27.8274 123.627C26.5725 119.181 24.8415 115.037 22.8075 110.85C22.721 110.677 22.9374 110.548 23.0239 110.72C25.6204 115.123 27.3514 120.087 28.4333 125.094C34.5351 139.77 35.0976 156.992 33.7994 172.488C33.7994 172.704 33.4532 172.704 33.4532 172.488C33.7994 160.273 33.6263 147.885 30.6836 135.928C30.6259 135.698 30.5538 135.453 30.4672 135.194C25.4473 128.202 16.9654 124.965 11.5128 118.36C11.4695 118.274 11.556 118.188 11.5993 118.274Z" fill="#A6A6A6"/>
<path d="M10.3442 113.267C13.157 115.857 15.9266 118.49 18.7828 121.08L18.7395 121.123C15.667 119.051 12.5512 116.289 10.171 113.44C10.0845 113.31 10.2576 113.181 10.3442 113.267Z" fill="#A6A6A6"/>
<path d="M9.91143 102.131C12.4647 106.188 15.1477 110.03 18.3501 113.655C18.3933 113.742 18.3068 113.785 18.2635 113.742C14.8448 110.461 11.8155 106.49 9.73833 102.217C9.69506 102.088 9.86816 102.001 9.91143 102.131Z" fill="#A6A6A6"/>
<path d="M26.399 150.302H43.9254L47.2576 183.409H22.5908L26.399 150.302Z" fill="#EBEBEB"/>
<path d="M26.3991 150.302H43.9255L44.4881 155.697H25.75L26.3991 150.302Z" fill="#C7C7C7"/>
<path d="M23.3691 146.633H46.478V151.942H23.3691V146.633Z" fill="#EBEBEB"/>
<path d="M0 183.279L45.1358 183.106L90.2716 183.02L180.5 182.847L270.728 183.02L315.864 183.106L361 183.279L315.864 183.495L270.728 183.581L180.5 183.711L90.2716 183.581L45.1358 183.495L0 183.279Z" fill="#263238"/>
</svg>
