<svg width="252" height="253" viewBox="0 0 252 253" fill="none" xmlns="http://www.w3.org/2000/svg">
<path fill-rule="evenodd" clip-rule="evenodd" d="M78.7016 129.605C79.1023 128.986 78.8809 130.215 79.2757 129.487C78.9773 128.808 79.2374 127.528 78.664 127.146C78.7531 127.831 78.4849 127.865 78.287 128.552C78.6922 127.609 79.1611 128.955 78.7016 129.605ZM93.4182 130.409C93.6648 130.416 93.5148 129.936 93.7361 129.9C95.4875 130.423 97.1827 132.022 99.4195 131.439C100.57 132.864 102.397 132.745 103.835 133.179C104.876 133.494 105.822 134.672 107.223 133.362C105.251 132.497 102.986 132.253 101.5 131.197C99.2817 131.172 96.8295 129.907 93.9152 129.04C93.8117 128.818 94.2794 127.981 94.0741 127.868C93.7979 128.414 93.5079 128.727 93.2027 128.808C89.3014 127.155 85.9531 126.08 83.4206 125.019C83.3183 124.78 83.6606 123.226 83.1245 124.005C83.2007 124.119 83.3757 124.915 83.0637 124.903C81.7182 123.821 76.8839 123.372 75.5001 121.223C75.6129 121.324 75.5751 121.587 75.5395 121.848C73.5613 120.977 71.3797 121.338 70.1731 119.8C71.6647 121.541 73.2868 123.694 75.5976 122.785C75.4987 123.059 75.3993 123.333 75.3 123.605C76.3286 122.479 76.723 124.94 77.2397 124.849C79.3691 122.782 79.3937 125.859 81.1611 126.121C81.9997 124.702 83.1788 125.942 83.5176 126.581C86.4882 127.379 90.203 128.459 93.4182 130.409ZM69.1019 121.288C68.7562 120.817 69.3292 120.561 69.6176 120.232C69.56 119.526 68.8946 119.503 68.3106 119.807C69.1345 119.537 68.2977 121.415 68.6071 120.82C68.805 120.88 68.9496 120.083 69.1427 120.076C68.9791 120.556 68.8074 120.918 68.6262 121.133C69.0338 120.844 68.8173 121.983 69.1019 121.288ZM67.8339 121.487C68.1515 118.773 65.7118 119.808 64.9451 118.101C64.667 118.615 64.3634 118.728 64.0538 118.728C63.5762 118.411 62.5399 117.293 61.8153 118.308C62.2452 118.401 62.0781 119.136 62.3491 119.398C62.7717 118.639 63.8584 118.816 63.9727 119.316C63.5433 120.384 63.6794 118.993 63.2996 119.707C64.1966 119.873 66.6049 119.478 67.8339 121.487ZM61.6766 117.956C60.9761 118.016 60.583 116.45 59.7954 117.652C60.4303 117.406 61.1705 118.756 61.6766 117.956ZM72.4307 120.533C72.7575 120.617 73.2292 120.092 73.1845 119.553C72.9011 119.369 72.6568 119.805 72.4307 120.533ZM69.3029 118.903C69.4709 118.502 69.627 117.88 69.819 117.847C70.2382 118.228 71.3352 118.716 71.8186 118.193C68.1068 116.089 63.8946 114.815 61.6219 113.35C61.7359 113.32 61.8591 113.419 61.9589 113.153C61.6215 112.721 61.366 113.606 61.0668 113.782C60.0257 112.483 58.0253 112.506 57.0987 111.523C57.1364 111.272 56.9644 111.248 56.8306 111.183C56.9017 111.314 57.0002 111.418 57.0987 111.523C57.0863 111.603 57.0533 111.707 56.9875 111.846C55.843 111.156 55.3116 112.025 55.0474 110.603C54.6859 111.631 54.1815 110.401 53.8196 111.427C57.8035 113.718 64.3924 115.268 68.5115 117.424C68.4565 118.229 67.7958 117.783 68.0947 118.207C68.4796 117.579 68.3408 118.912 68.7882 118.126C68.5233 116.659 69.2305 117.997 69.3029 118.903ZM39.6193 107.735C39.3599 108.675 39.9829 108.358 40.3327 107.966C39.9703 107.745 40.0934 107.002 39.462 107.07C39.2444 107.527 39.3841 107.83 39.1644 107.892C38.6833 107.965 39.4166 106.731 38.8679 106.878C38.705 107.374 38.5174 107.48 38.3123 107.311C37.8298 108.847 38.9811 109.003 39.6193 107.735ZM35.5794 106.422C35.7976 107.214 36.9156 107.694 37.6384 107.703C37.5337 105.149 35.4704 107.239 35.2643 105.096C35.0907 105.424 34.9078 105.606 34.7091 105.527C34.17 107.076 35.0539 106.811 35.5794 106.422ZM40.6715 105.933C40.183 106.127 40.5384 105.41 40.3941 105.233C40.1954 105.776 39.9443 105.475 39.76 106.251C40.1552 106.537 40.1754 106.771 40.6715 105.933ZM51.2842 109.993C48.5753 109.064 46.4433 107.216 43.5618 107.486C45.864 108.401 48.1104 109.7 51.2842 109.993ZM54.3924 113.144C54.3255 113.105 54.2662 113.057 54.3725 112.831C54.5711 112.914 54.7531 112.72 54.9276 112.4C54.5544 112.013 54.2473 112.691 53.9171 112.989C54.2331 112.8 54.0166 113.937 54.3924 113.144ZM52.4338 109.755C52.0949 110.542 51.6578 109.746 51.3045 110.306C51.5172 110.465 51.4217 110.957 51.4814 111.282C52.6873 110.234 52.5266 112.1 53.7993 111.117C53.626 110.067 51.6368 111.033 52.4338 109.755ZM66.7135 112.864C66.5512 112.685 66.8658 112.519 67.0111 112.042C66.3001 112.608 67.063 111.044 66.3975 111.537C66.5894 111.77 66.4942 112.046 66.2179 112.397C66.3491 112.502 66.512 113.38 66.7135 112.864ZM44.3991 102.25C44.6502 101.925 44.8807 101.269 45.152 101.272C44.707 102.63 46.0568 102.387 46.084 101.267C45.5749 102.08 44.5491 99.95 42.9947 100.264C42.901 102.124 43.7549 101.621 44.3991 102.25ZM38.0042 98.6428C37.5865 98.6648 37.17 97.2313 36.8164 98.257C36.8988 98.5969 37.5062 99.8244 38.0042 98.6428ZM35.1326 97.4048C35.1105 96.875 34.611 96.956 34.3208 97.4461C34.5474 97.7348 34.7115 97.8747 35.1326 97.4048ZM34.3009 97.1359C34.2508 96.4624 33.3415 95.8436 32.7371 96.3205C33.3499 96.7178 33.6402 97.5983 34.3009 97.1359ZM104.405 118.068C103.761 117.368 103.195 116.932 102.503 117.451C102.7 118.022 103.879 118.406 104.405 118.068ZM102.147 117.335C101.946 117.203 101.616 116.373 101.197 117.026C101.215 117.354 101.84 117.868 102.147 117.335ZM112.346 120.341C112.936 120.964 113.977 120.753 114.703 120.801C114.088 120.399 113.51 120.003 112.346 120.341ZM108.069 118.952C106.934 118.656 105.678 117.802 104.543 118.419C106.171 118.614 106.723 119.605 108.069 118.952ZM55.2326 104.238C55.4286 104.376 55.9841 105.475 56.4009 104.314C55.7603 104.384 55.7766 103.392 55.2326 104.238ZM46.4205 101.071C46.0668 101.904 46.5888 102.371 46.9153 101.537C46.8861 100.857 46.4441 101.653 46.4205 101.071ZM37.9244 99.2304C39.3651 98.843 40.1668 100.886 41.806 99.8781C40.4058 99.6568 39.6867 97.9866 37.9244 99.2304ZM50.0046 102.542C48.8669 102.46 48.0335 100.666 46.835 102.125C48.0107 101.99 48.8106 104.28 50.0046 102.542ZM78.4053 108.094C78.1172 107.46 77.2847 107.412 77.258 106.498C78.0627 107.093 79.8147 108.106 80.565 107.266C78.4918 106.141 76.3327 106.14 74.566 104.4C74.6162 104.179 74.7584 103.859 74.645 103.814C74.5131 104.178 74.3804 104.544 74.2481 104.909C74.0392 104.377 72.985 103.872 72.4862 104.642C73.166 106.144 74.7799 106.711 75.8907 106.972C75.8962 106.815 75.4599 106.38 75.8512 106.346C76.4452 107.098 77.5443 108.186 78.4053 108.094ZM70.0291 104.456C70.5168 104.028 70.366 105.033 70.8418 104.415C70.691 104.28 70.7687 103.075 70.4459 103.675C70.5176 103.764 70.5015 103.948 70.3669 104.259C70.2071 104.184 69.8901 104.173 70.0291 104.456ZM69.7919 104.379C69.9242 104.014 70.0565 103.649 70.1892 103.285C68.164 101.801 66.6689 101.89 64.3289 100.768C65.6118 103.805 68.1384 101.965 69.7919 104.379ZM63.8532 100.614C63.5219 99.9801 61.2962 100.495 62.0315 99.412C62.0468 99.076 60.7288 99.9517 60.7825 99.9238C61.6024 100.368 63.1422 101.563 63.8532 100.614ZM60.07 99.6914C60.202 99.3146 60.3442 99.1099 60.4869 98.9092C60.3164 98.6504 60.3213 97.8006 59.8927 98.7169C60.1054 98.8762 60.0104 99.3676 60.07 99.6914ZM81.0231 105.273C80.5259 104.531 79.2809 104.595 79.3802 103.211C79.5797 103.292 79.7617 103.097 79.9349 102.78C79.1306 103.577 80.0768 101.528 79.4409 102.313C79.1032 103.124 77.5387 101.774 77.1235 102.477C77.7936 104.239 79.3136 105.75 81.0231 105.273ZM85.4408 105.178C84.8246 103.051 84.4496 105.525 82.9257 104.056C82.955 105.314 84.913 105.08 83.6749 106.748C84.7787 105.412 86.1548 108.494 87.3388 107.632C87.2893 107.019 86.6938 106.995 87.0045 105.993C87.0155 106.351 87.5158 106.27 87.8168 105.949C86.9073 105.876 86.3158 104.398 85.4408 105.178ZM87.8363 106.262C88.1414 106.18 88.4936 106.854 88.7673 106.259C88.3913 105.987 88.3074 105.516 87.8363 106.262ZM135.626 116.582C137.382 116.729 137.347 117.548 138.913 117.039C138.307 116.42 136.671 115.122 135.626 116.582ZM144.815 118.344C144.439 118.138 143.775 118.244 143.726 117.684C143.65 118.767 144.241 119.052 144.815 118.344ZM90.3572 100.045C89.1398 99.8778 88.8283 98.319 88.0007 99.5853C88.5731 99.1198 89.6708 101.178 90.3572 100.045ZM79.3292 94.9342C79.4285 94.6604 79.5283 94.3856 79.6272 94.113C79.5129 93.7289 78.6377 93.9214 78.7374 92.9049C78.001 94.5739 77.2934 92.3683 76.2808 92.7207C76.5537 94.5512 78.3741 93.8364 79.3292 94.9342ZM75.6073 93.1123C75.3269 90.9943 73.2767 92.4211 73.0944 90.1544C75.1213 90.6073 76.5706 92.3327 79.1733 92.4353C79.0558 92.1172 78.6143 92.1486 78.659 91.6566C79.8474 91.341 80.0142 92.3336 80.2816 93.4075C80.4672 92.6443 80.7191 92.9579 80.9357 92.7019C81.0413 93.44 81.2843 94.558 82.0444 93.6743C78.724 89.4831 70.7513 87.0369 67.0166 86.0399C69.2003 87.703 71.177 87.2494 72.6791 89.1031C71.459 90.1149 71.1204 87.1443 69.5103 88.6854C70.2825 88.6125 71.0106 89.8162 71.6872 90.0055C71.8926 89.194 72.8652 90.5637 71.9035 91.6041C73.0423 91.9794 74.7328 92.447 75.6073 93.1123ZM68.4211 88.0256C67.3132 86.9112 66.4703 87.1066 65.3322 87.0215C66.4949 87.9027 67.2928 89.0184 68.4211 88.0256ZM58.0448 84.0431C57.7344 84.0455 57.4313 84.1581 57.1531 84.6708C57.5115 84.8493 58.0027 85.7449 58.579 85.1346C58.4829 84.5385 57.7358 84.644 57.8271 84.2793C57.9041 84.2872 57.982 84.2838 58.0448 84.0431ZM56.3405 84.7144C56.9076 83.306 56.8929 84.7152 57.1336 84.3594C56.9741 84.2276 57.2689 83.7328 57.4316 83.5383C56.3217 83.927 56.4131 82.6434 55.1332 84.016C54.9409 83.3893 53.9627 83.6108 54.2231 82.4961C53.8278 82.977 54.108 82.8482 53.8266 83.5901C54.5348 83.6047 54.6865 84.2202 55.0529 84.6023C55.5474 83.1371 56.0317 84.4987 56.3405 84.7144ZM52.9754 83.0084C52.0886 83.0464 52.2657 81.8115 51.6281 81.9603C51.9181 82.4265 51.5402 83.6102 51.9831 83.9119C52.175 82.3641 52.3432 83.9551 52.9754 83.0084ZM83.5111 92.9263C84.3113 95.2815 86.6161 95.1543 88.1229 95.955C87.8755 95.7893 88.1151 95.1354 88.4014 94.8199C86.742 93.9263 85.1599 92.844 83.5111 92.9263ZM61.3114 86.0219C61.5438 86.028 61.6474 87.261 61.6873 86.4514C61.6205 86.4111 61.562 86.3635 61.6678 86.1375C62.1197 86.1514 62.295 86.4624 62.5191 86.7204C62.9081 85.7377 61.5926 85.7303 61.3114 86.0219ZM62.9415 80.4333C62.8943 79.6469 62.3609 80.5967 62.01 80.4365C62.0654 80.285 62.0262 80.0957 61.8916 80.3977C61.9859 81.2624 62.3927 80.8596 62.9415 80.4333ZM88.5219 134.019C87.9232 134.695 88.2696 134.318 87.7685 134.998C84.8212 133.232 83.0195 132.7 80.2049 131.318C80.3083 131.103 80.4231 131.084 80.5224 130.809C80.1428 130.862 79.1144 131.658 79.1963 130.071C79.0128 130.235 78.8355 130.511 78.6603 130.816C78.537 130.726 78.7416 130.283 78.8395 129.956C78.7246 129.977 78.6217 130.192 78.5033 130.152C78.0668 130.319 78.786 130.533 78.2049 130.973C77.4501 130.479 78.005 129.381 76.8975 130.55C76.3852 130.192 76.3067 129.093 75.5714 129.813C75.3799 129.579 75.4747 129.304 75.7506 128.952C74.8533 129.743 74.5834 128.79 73.7501 128.609C73.9611 128.268 74.1892 128.182 74.4241 128.216C74.6698 127.243 73.7515 128.186 73.8903 127.124C74.3532 126.97 74.7025 126.336 74.9203 126.848C74.7735 125.118 72.4756 124.933 71.6541 124.869C72.0586 124.649 71.9818 123.419 71.6342 124.557C71.515 124.241 71.8032 123.486 71.5567 123.308C71.8207 122.607 72.2518 123.096 72.1912 122.291C71.8166 122.085 71.7815 123.465 71.1998 123.193C71.2275 123.662 71.5811 123.781 71.1792 124.714C71.0131 124.547 70.8768 124.855 70.7417 125.186C70.4852 124.467 71.6282 124.226 71.1208 123.777C70.6174 124.519 69.55 124.477 69.0596 124.333C69.9365 125.62 71.2853 124.822 72.0881 126.233C71.4006 127.816 70.959 126.733 70.801 126.121C70.4711 126.088 70.793 126.645 70.4037 127.216C70.3328 127.001 69.5614 126.858 69.4536 126.907C69.2639 126.127 70.1082 126.396 70.3261 125.967C70.0971 125.821 69.3325 124.627 68.5026 126.598C68.5385 126.004 68.7252 125.248 68.4055 125.037C68.3695 125.298 68.3314 125.561 68.4441 125.662C67.8753 126.042 68.5089 124.298 69.0401 124.02C67.9164 122.744 65.0068 122.111 62.6846 121.037C61.5534 120.516 60.1599 120.162 59.3183 119.333C58.7931 118.815 56.5683 118.293 55.2784 118.021C55.1482 117.885 55.429 117.303 55.5565 116.888C54.2157 118.193 53.6033 116.194 51.7932 116.277C51.6712 116.188 51.8746 115.745 51.9728 115.418C51.7917 115.216 51.156 116.094 51.5969 114.99C49.8411 116.285 48.6517 114.477 47.4772 114.264C47.3122 114.233 47.0108 114.719 47.0413 114.734C46.7992 114.614 46.8095 113.658 46.3883 113.605C45.8939 113.541 45.7483 113.372 45.2994 112.944C44.8944 112.559 44.0322 111.88 43.8346 111.857C43.6793 111.838 43.5034 112.469 43.2795 112.289C43.0999 112.142 43.3202 111.626 43.2318 111.404C43.1664 111.521 42.1888 111.283 41.7158 111.474C42.2281 110.425 39.8654 110.857 39.0628 110.001C39.3313 109.465 39.6141 109.581 39.5781 108.945C38.7599 109.13 38.2489 110.526 38.0538 108.755C37.0994 109.709 37.0009 108.973 36.0733 108.723C36.2715 108.181 36.523 108.481 36.7073 107.706C36.1713 108.682 36.1633 107.29 35.5789 108.256C35.4886 108.172 35.5696 107.912 35.6659 107.784C34.6245 108.582 33.5038 107.526 32.8256 107.057C33.2326 106.357 33.1089 106.053 33.4606 106.039C33.2557 105.572 32.5379 105.031 33.2245 104.129C32.9333 104.388 32.8099 104.349 32.7496 103.973C32.5936 104.303 32.6166 104.443 32.6924 104.524C31.4948 103.58 29.6949 102.508 28.9878 101.528C28.6824 102.212 28.8174 101.65 28.1955 101.882C28.3755 101.669 28.5471 101.306 28.7117 100.826C28.4005 100.822 28.1709 102.099 27.8391 101.765C28.4327 99.8269 26.5492 101.599 26.8304 100.521C26.6745 100.52 26.5487 100.988 26.4137 101.303C26.081 100.683 25.836 100.816 24.9874 100.84C26.3706 99.9809 25.023 100.182 24.4922 100.374C24.6467 99.7467 24.8609 100.058 25.0282 99.6296C25.0196 99.0673 24.6127 98.6146 24.2155 99.6719C24.1389 98.1615 23.4501 97.9638 22.8719 96.7873C23.8163 95.866 24.8479 96.0112 26.2202 96.3464C26.4403 96.2832 26.2997 95.9812 26.5177 95.525C28.4429 95.4483 29.8343 96.8403 31.7867 96.0127C29.5907 93.3821 25.9295 93.5618 23.4911 91.7872C24.5461 91.3044 24.9608 91.2501 26.1454 91.4263C26.3271 90.6202 25.5329 90.8647 25.4929 90.2972C25.814 89.8445 26.1904 90.2833 26.523 90.0199C25.2214 88.5681 23.4323 88.5543 21.3552 87.424C21.6012 86.3907 21.9803 87.4854 22.2088 86.1712C25.8198 87.8069 29.734 85.9739 31.1991 88.4805C30.8869 89.0685 30.4943 88.37 30.1501 88.444C30.7097 89.9643 32.2192 90.0968 33.4163 90.4239C36.7635 91.3363 40.126 92.1755 43.3582 93.0401C43.4508 92.7729 43.29 92.7791 43.2191 92.6894C47.0009 92.6218 52.2521 94.2844 55.2202 96.5859C55.4372 96.33 55.6895 96.6438 55.8738 95.8814C56.3621 97.5654 57.7637 96.9732 58.9826 97.1983C62.1014 97.7697 64.8855 100.506 67.8151 100.677C66.9897 101.905 68.1377 100.894 68.6464 100.947C70.6808 101.163 73.3053 103.15 75.5769 103.81C75.3558 101.894 72.6586 102.773 71.895 100.779C72.0793 100.008 72.3837 101.157 72.5685 100.386C71.4426 97.7527 68.7089 99.5415 67.5812 96.93C67.3175 97.1504 67.4678 97.3965 67.0447 97.6742C63.7177 97.2507 59.3458 94.7694 55.6993 93.0714C55.2673 92.8694 54.6334 93.5515 54.093 93.4685C49.5506 92.7668 46.8245 88.7032 42.5893 88.2024C44.957 88.0649 46.2815 89.4035 49.2046 89.7391C49.3604 89.74 49.486 89.2716 49.621 88.9555C51.1359 89.4718 51.3512 90.4824 52.5316 90.8187C58.2323 92.4504 64.5726 95.3203 71.3455 95.7066C71.8697 95.6335 71.6996 94.7524 72.0798 94.4147C72.8417 96.0452 74.7227 94.8688 75.0484 97.2146C75.4585 97.0732 75.037 96.4727 74.9899 96.2779C76.4252 95.7887 76.762 99.1754 78.6324 98.6836C78.8143 97.7663 78.1627 97.7467 78.1781 97.007C78.2116 96.7709 78.955 97.1545 78.9105 97.5509C79.7152 96.2644 81.4546 97.7599 82.3368 98.3582C83.0048 97.0934 84.4582 99.369 85.4665 98.1505C82.4892 96.4617 78.103 96.1663 75.2898 93.6208C75.0763 94.0735 75.1946 94.1691 75.3279 94.2459C74.8499 94.5432 74.4956 94.2886 74.6957 93.4285C74.2423 93.229 74.5807 93.8608 74.1605 94.1719C73.9054 93.8001 73.8666 93.6213 73.7642 93.4319C72.4183 93.8649 71.6033 92.4813 70.7547 91.8424C68.7748 90.7456 71.3388 92.4038 71.9842 91.018C69.8613 89.4474 66.374 89.354 64.5585 87.6892C64.9983 86.2788 64.9811 87.8203 65.3114 86.7109C64.5912 85.9152 63.5878 86.1313 62.9164 85.6256C62.7516 86.5816 63.738 86.2971 63.271 87.5783C62.2842 87.4446 61.347 86.6563 60.6578 86.7277C61.3985 84.7535 59.6667 84.8723 59.1123 86.2271C58.5201 86.4756 59.1569 85.3999 58.7173 85.4863C58.5434 85.5045 58.3994 85.9907 58.5182 86.0336C56.813 85.8283 52.8613 84.8323 51.2706 83.6795C51.1763 83.4478 51.2619 83.0214 51.4303 82.5067C50.9977 82.6268 51.181 83.412 50.9332 83.8752C50.1083 82.9564 48.9945 83.6362 48.7555 82.5573C49.0388 81.4848 49.4438 82.3911 49.7863 82.2789C49.7763 81.6514 49.3758 82.0591 49.946 81.1075C47.0532 80.4609 46.35 80.2048 43.8862 79.1391C46.0796 77.8782 47.4434 80.3496 49.3729 79.3918C50.1545 80.4912 51.2619 79.8608 52.1256 80.5908C52.4555 80.6254 52.1336 80.067 52.5229 79.4959C53.0077 79.3123 52.8008 79.559 53.2358 79.7285C53.5846 79.0193 53.1817 79.1194 53.177 78.7915C53.5348 78.1142 53.5076 79.4878 53.9892 78.7491C53.7812 77.4215 52.3082 79.5766 51.6327 78.2902C51.7313 77.7444 51.3468 77.9846 51.8115 77.4312C51.2058 77.3058 51.087 76.6546 50.3661 76.6547C49.8452 76.4922 50.5172 76.1763 50.7039 76.4579C51.8752 76.6318 53.5971 76.0977 53.9108 77.5008C54.7261 76.7825 54.4851 77.9679 55.0799 77.5741C55.0499 78.0444 54.782 78.7486 54.3452 78.8658C55.9647 80.6803 58.551 80.5387 60.6626 81.2223C60.5481 79.2462 58.3736 80.7303 57.9511 78.8118C59.0239 78.5167 59.7774 79.1242 60.6644 79.3878C60.1226 80.2284 61.1983 80.4456 61.654 80.3211C61.8732 80.2602 61.7343 79.9549 61.9516 79.4998C62.5628 80.211 63.3245 79.7317 64.3279 80.2715C64.3153 80.6745 64.0715 81.3268 64.2871 81.4833C64.7 79.5802 64.5749 82.2206 65.337 81.5175C63.8519 83.3769 64.1596 80.1352 62.9805 81.0573C63.9207 82.5935 64.8441 83.9086 66.5034 83.4264C66.7499 82.7169 66.0999 82.9723 66.6448 81.9414C67.533 82.2326 67.8328 82.7595 68.7831 82.6363C68.6115 82.9957 68.4028 82.7668 68.2077 82.7564C68.6939 84.6714 70.4864 85.2028 72.0085 85.8254C72.4035 85.4156 72.2856 84.968 72.1677 84.6537C72.4733 83.9428 72.8636 84.6029 73.1786 84.0638C74.4302 87.573 78.7166 85.6299 79.791 89.27C79.9427 88.7413 80.3434 88.9225 80.7621 88.057C81.7046 88.2803 82.2292 89.3308 83.456 88.3203C83.8688 89.8818 86.4335 88.4236 86.1071 91.6286C87.9714 89.8467 88.9304 90.4943 90.6436 91.571C90.4736 91.9569 90.2533 91.5528 90.0881 92.0039C90.4793 92.6372 91.3227 92.7836 91.9094 93.2074C92.0433 92.3408 91.2627 92.4597 90.801 92.2351C91.3932 90.8464 91.475 92.1944 92.1879 92.0723C91.9862 94.9121 94.3702 94.272 95.7116 94.4417C95.7519 93.8988 95.1698 94.0255 95.0781 93.6251C96.5469 92.8805 97.1784 94.8029 98.3864 94.3924C98.2532 94.7584 98.1214 95.1223 97.9891 95.4873C100.061 96.8783 101.909 96.8599 104.366 96.9468C104.69 96.8798 104.377 96.4734 104.783 96.1637C107.497 96.9068 110.286 98.4879 113.279 98.0056C113.252 97.7149 112.053 97.9554 112.607 96.5639C112.922 97.1366 114.1 97.4139 114.248 98.6274C117.174 99.2057 120.676 99.3965 123.776 100.193C126.34 100.849 129.119 100.849 131.658 101.528C136.667 102.868 140.498 105.049 144.786 106.71C146.035 107.193 147.088 107.907 147.656 109.783C146.45 112.176 145.6 111.273 144.167 111.71C144.301 112.288 144.151 113.172 144.622 113.388C144.526 113.544 143.944 114.343 144.224 114.482C142.898 116.921 141.706 115.523 140.538 116.954C140.802 118.41 142.285 117.29 143.409 118.193C143.501 117.261 143.043 116.921 142.498 116.674C143.871 115.981 145.413 117.241 146.241 118.807C145.336 119.877 145.3 118.44 144.161 119.048C143.966 120.414 143.181 120.56 142.93 121.709C143.067 122.228 143.555 122.369 143.919 122.642C143.511 122.929 143.156 124.076 142.73 124.091C142.358 125.046 142.583 125.36 142.609 125.888C142.794 126.095 143.447 124.757 143.224 124.558C143.88 123.514 144.101 125.805 144.611 124.395C144.427 125.642 143.61 125.371 143.183 125.769C143.146 126.587 143.594 126.88 143.756 127.484C143.2 128.126 142.804 127.187 142.449 127.059C142.23 127.121 142.368 127.425 142.152 127.88C142.735 128.633 144.015 129.449 144.586 129.589C144.165 130.806 144.297 129.35 143.912 129.983C144.211 131.245 143.446 133.445 142.658 136C141.814 136.28 141.539 136.606 140.797 136.006C140.574 136.209 140.581 136.621 140.161 137.024C139.964 138.287 141.024 138.723 141.547 138.697C140.803 139.798 141.217 140.886 141.484 141.431C141.192 142.333 140.828 142.101 140.513 142.645C139.811 145.919 137.937 145.963 136.744 147.538C134.246 147.392 132.317 145.11 129.833 144.989C129.049 144.949 128.064 145.47 127.297 145.388C125.551 145.205 123.95 144.437 122.208 144.042C116.926 142.842 112.214 140.73 106.582 139.885C104.8 139.617 102.546 139.491 100.581 138.853C97.3023 137.789 93.6479 137.434 91.3935 135.257C91.1704 135.46 91.1818 135.927 90.7386 135.963C90.449 134.504 88.2353 136.719 88.5219 134.019Z" fill="#FF7B29" fill-opacity="0.3"/>
<path fill-rule="evenodd" clip-rule="evenodd" d="M173.31 122.392C172.902 123.006 173.137 121.779 172.734 122.503C173.025 123.185 172.75 124.462 173.319 124.851C173.238 124.164 173.507 124.134 173.712 123.448C173.296 124.387 172.843 123.036 173.31 122.392ZM158.603 121.42C158.357 121.41 158.501 121.892 158.28 121.925C156.534 121.382 154.857 119.764 152.614 120.322C151.48 118.883 149.651 118.982 148.218 118.531C147.181 118.205 146.249 117.016 144.833 118.31C146.795 119.198 149.057 119.467 150.531 120.54C152.749 120.59 155.186 121.883 158.091 122.783C158.192 123.006 157.714 123.838 157.918 123.953C158.201 123.41 158.494 123.1 158.8 123.023C162.683 124.72 166.019 125.833 168.539 126.923C168.638 127.163 168.278 128.713 168.823 127.94C168.748 127.825 168.583 127.027 168.894 127.043C170.227 128.141 175.056 128.645 176.416 130.809C176.304 130.707 176.345 130.444 176.383 130.183C178.351 131.077 180.537 130.741 181.726 132.293C180.254 130.535 178.657 128.363 176.336 129.246C176.438 128.973 176.54 128.701 176.643 128.43C175.601 129.543 175.235 127.078 174.717 127.164C172.565 129.206 172.575 126.129 170.811 125.847C169.956 127.256 168.791 126.003 168.46 125.36C165.498 124.528 161.796 123.406 158.603 121.42ZM182.814 130.817C183.154 131.291 182.579 131.542 182.286 131.867C182.336 132.574 183.001 132.604 183.588 132.307C182.762 132.568 183.62 130.7 183.303 131.29C183.106 131.229 182.953 132.024 182.759 132.029C182.929 131.55 183.104 131.19 183.288 130.978C182.877 131.261 183.107 130.125 182.814 130.817ZM184.084 130.633C183.736 133.343 186.187 132.336 186.934 134.052C187.218 133.541 187.523 133.43 187.833 133.434C188.307 133.757 189.33 134.886 190.066 133.88C189.637 133.782 189.813 133.049 189.545 132.783C189.114 133.538 188.029 133.348 187.92 132.848C188.362 131.784 188.21 133.173 188.598 132.463C187.703 132.288 185.29 132.655 184.084 130.633ZM190.201 134.233C190.902 134.181 191.277 135.752 192.079 134.559C191.441 134.797 190.716 133.439 190.201 134.233ZM179.477 131.534C179.151 131.447 178.673 131.966 178.712 132.505C178.993 132.692 179.243 132.259 179.477 131.534ZM182.586 133.199C182.413 133.598 182.25 134.219 182.058 134.249C181.643 133.864 180.552 133.363 180.062 133.881C183.75 136.027 187.947 137.349 190.203 138.839C190.089 138.868 189.967 138.768 189.864 139.032C190.197 139.468 190.462 138.586 190.763 138.414C191.789 139.725 193.79 139.725 194.705 140.718C194.665 140.968 194.837 140.994 194.97 141.061C194.9 140.929 194.803 140.824 194.705 140.718C194.719 140.638 194.753 140.534 194.82 140.396C195.957 141.099 196.498 140.236 196.746 141.661C197.119 140.637 197.61 141.873 197.983 140.851C194.026 138.515 187.455 136.89 183.36 134.688C183.425 133.883 184.08 134.337 183.786 133.909C183.394 134.533 183.548 133.202 183.092 133.983C183.34 135.452 182.648 134.106 182.586 133.199ZM212.14 144.705C212.411 143.768 211.784 144.078 211.43 144.466C211.79 144.691 211.658 145.432 212.29 145.371C212.513 144.917 212.377 144.613 212.597 144.553C213.079 144.485 212.332 145.711 212.882 145.57C213.051 145.076 213.239 144.972 213.443 145.143C213.943 143.613 212.793 143.444 212.14 144.705ZM216.165 146.063C215.956 145.269 214.844 144.776 214.121 144.76C214.197 147.314 216.283 145.248 216.465 147.393C216.643 147.067 216.827 146.887 217.025 146.969C217.582 145.425 216.695 145.681 216.165 146.063ZM211.068 146.494C211.559 146.306 211.195 147.019 211.337 147.197C211.542 146.657 211.79 146.961 211.983 146.187C211.591 145.896 211.573 145.662 211.068 146.494ZM200.502 142.314C203.2 143.274 205.311 145.146 208.195 144.909C205.904 143.968 203.672 142.643 200.502 142.314ZM197.43 139.128C197.496 139.168 197.555 139.216 197.446 139.441C197.249 139.356 197.064 139.548 196.886 139.865C197.255 140.257 197.57 139.582 197.903 139.288C197.585 139.474 197.815 138.339 197.43 139.128ZM199.35 142.539C199.698 141.756 200.126 142.557 200.485 142.001C200.274 141.839 200.376 141.349 200.32 141.023C199.102 142.057 199.284 140.193 198 141.162C198.161 142.213 200.161 141.27 199.35 142.539ZM185.106 139.268C185.267 139.448 184.95 139.611 184.8 140.086C185.517 139.529 184.736 141.083 185.407 140.598C185.218 140.363 185.316 140.088 185.597 139.74C185.467 139.634 185.314 138.754 185.106 139.268ZM207.299 150.135C207.044 150.457 206.806 151.11 206.535 151.105C206.995 149.752 205.643 149.979 205.603 151.099C206.121 150.292 207.122 152.433 208.68 152.137C208.795 150.278 207.936 150.771 207.299 150.135ZM213.652 153.815C214.07 153.797 214.47 155.236 214.835 154.214C214.757 153.873 214.163 152.639 213.652 153.815ZM216.509 155.085C216.525 155.615 217.026 155.54 217.322 155.053C217.098 154.762 216.936 154.62 216.509 155.085ZM217.338 155.364C217.38 156.038 218.283 156.667 218.892 156.197C218.284 155.793 218.004 154.909 217.338 155.364ZM147.477 133.635C148.113 134.342 148.673 134.785 149.371 134.273C149.181 133.7 148.007 133.303 147.477 133.635ZM149.726 134.393C149.925 134.528 150.246 135.361 150.673 134.713C150.658 134.385 150.039 133.864 149.726 134.393ZM139.562 131.272C138.979 130.642 137.936 130.841 137.21 130.784C137.821 131.193 138.394 131.596 139.562 131.272ZM143.823 132.709C144.954 133.018 146.2 133.886 147.342 133.283C145.717 133.068 145.177 132.071 143.823 132.709ZM196.488 148.023C196.294 147.884 195.751 146.778 195.321 147.934C195.962 147.872 195.935 148.863 196.488 148.023ZM205.264 151.291C205.627 150.462 205.11 149.989 204.774 150.819C204.796 151.499 205.247 150.708 205.264 151.291ZM213.738 153.228C212.293 153.599 211.515 151.547 209.864 152.536C211.262 152.773 211.962 154.452 213.738 153.228ZM201.697 149.78C202.833 149.874 203.646 151.677 204.861 150.232C203.684 150.354 202.91 148.055 201.697 149.78ZM173.361 143.904C173.642 144.541 174.474 144.599 174.49 145.514C173.692 144.909 171.952 143.876 171.192 144.708C173.252 145.856 175.411 145.882 177.158 147.642C177.105 147.862 176.96 148.18 177.072 148.226C177.208 147.864 177.345 147.499 177.482 147.136C177.685 147.67 178.733 148.188 179.241 147.424C178.578 145.913 176.97 145.329 175.863 145.055C175.855 145.212 176.287 145.652 175.895 145.681C175.31 144.923 174.223 143.822 173.361 143.904ZM181.695 147.637C181.203 148.06 181.365 147.057 180.882 147.669C181.031 147.806 180.94 149.009 181.27 148.413C181.199 148.324 181.217 148.14 181.355 147.83C181.514 147.907 181.831 147.922 181.695 147.637ZM181.932 147.717C181.795 148.08 181.659 148.444 181.522 148.807C183.53 150.314 185.026 150.242 187.353 151.39C186.105 148.339 183.558 150.15 181.932 147.717ZM187.827 151.549C188.151 152.187 190.383 151.697 189.635 152.772C189.616 153.108 190.944 152.247 190.89 152.274C190.075 151.821 188.549 150.609 187.827 151.549ZM191.6 152.515C191.463 152.89 191.319 153.093 191.174 153.292C191.341 153.553 191.327 154.403 191.766 153.491C191.555 153.33 191.655 152.839 191.6 152.515ZM170.711 146.695C171.2 147.443 172.446 147.393 172.331 148.776C172.132 148.692 171.948 148.885 171.771 149.201C172.584 148.412 171.615 150.451 172.26 149.673C172.607 148.866 174.156 150.233 174.579 149.536C173.929 147.766 172.426 146.238 170.711 146.695ZM166.293 146.74C166.885 148.873 167.288 146.404 168.795 147.891C168.78 146.632 166.82 146.844 168.077 145.19C166.958 146.513 165.617 143.416 164.423 144.265C164.465 144.878 165.061 144.909 164.739 145.907C164.732 145.549 164.23 145.624 163.926 145.941C164.834 146.026 165.409 147.51 166.293 146.74ZM163.91 145.629C163.604 145.707 163.259 145.029 162.979 145.622C163.352 145.898 163.43 146.37 163.91 145.629ZM116.241 134.765C114.486 134.599 114.531 133.78 112.959 134.271C113.558 134.897 115.179 136.213 116.241 134.765ZM107.072 132.899C107.446 133.109 108.111 133.011 108.154 133.571C108.242 132.49 107.654 132.197 107.072 132.899ZM161.318 151.816C162.534 151.998 162.827 153.56 163.669 152.303C163.092 152.762 162.018 150.692 161.318 151.816ZM172.287 157.053C172.185 157.325 172.082 157.599 171.98 157.87C172.09 158.256 172.967 158.073 172.856 159.089C173.611 157.428 174.294 159.642 175.311 159.301C175.058 157.467 173.23 158.161 172.287 157.053ZM175.988 158.917C176.245 161.038 178.311 159.634 178.467 161.903C176.446 161.427 175.016 159.685 172.415 159.553C172.529 159.873 172.971 159.846 172.92 160.338C171.728 160.64 171.573 159.645 171.318 158.568C171.123 159.329 170.875 159.013 170.656 159.267C170.558 158.527 170.328 157.407 169.558 158.282C172.831 162.51 180.775 165.047 184.498 166.086C182.333 164.399 180.352 164.83 178.871 162.959C180.102 161.961 180.407 164.935 182.035 163.413C181.262 163.477 180.547 162.265 179.873 162.068C179.658 162.877 178.701 161.496 179.675 160.467C178.54 160.079 176.855 159.592 175.988 158.917ZM183.116 164.085C184.211 165.212 185.056 165.026 186.194 165.124C185.041 164.23 184.256 163.105 183.116 164.085ZM193.447 168.185C193.757 168.186 194.061 168.077 194.345 167.568C193.989 167.385 193.508 166.484 192.925 167.088C193.014 167.685 193.762 167.588 193.667 167.952C193.59 167.943 193.512 167.945 193.447 168.185ZM195.158 167.533C194.575 168.935 194.606 167.526 194.361 167.879C194.519 168.013 194.219 168.504 194.054 168.697C195.168 168.321 195.062 169.604 196.358 168.246C196.543 168.874 197.523 168.664 197.25 169.776C197.651 169.299 197.369 169.425 197.659 168.686C196.951 168.664 196.807 168.046 196.445 167.66C195.933 169.12 195.465 167.753 195.158 167.533ZM198.504 169.278C199.391 169.25 199.2 170.483 199.839 170.341C199.554 169.871 199.946 168.692 199.506 168.385C199.297 169.931 199.147 168.338 198.504 169.278ZM168.083 159.013C167.31 156.649 165.004 156.75 163.506 155.932C163.751 156.1 163.504 156.751 163.215 157.064C164.864 157.976 166.433 159.076 168.083 159.013ZM190.203 166.169C189.97 166.161 189.881 164.927 189.832 165.736C189.898 165.777 189.956 165.825 189.848 166.05C189.396 166.031 189.224 165.718 189.003 165.457C188.603 166.435 189.918 166.458 190.203 166.169ZM188.509 171.739C188.547 172.526 189.091 171.582 189.44 171.746C189.383 171.897 189.42 172.087 189.558 171.787C189.474 170.921 189.063 171.319 188.509 171.739ZM163.54 117.866C164.147 117.197 163.796 117.569 164.305 116.895C167.232 118.694 169.027 119.247 171.826 120.661C171.72 120.876 171.605 120.892 171.503 121.166C171.883 121.117 172.92 120.334 172.82 121.92C173.006 121.757 173.186 121.483 173.365 121.18C173.487 121.272 173.277 121.712 173.176 122.039C173.291 122.019 173.396 121.805 173.514 121.846C173.953 121.685 173.236 121.462 173.822 121.029C174.571 121.531 174.004 122.623 175.124 121.467C175.633 121.83 175.699 122.931 176.442 122.218C176.631 122.455 176.533 122.729 176.253 123.078C177.159 122.297 177.418 123.253 178.249 123.444C178.035 123.782 177.806 123.866 177.571 123.829C177.314 124.799 178.243 123.867 178.092 124.926C177.628 125.075 177.271 125.705 177.059 125.191C177.186 126.923 179.482 127.134 180.303 127.208C179.896 127.423 179.959 128.653 180.319 127.519C180.435 127.837 180.138 128.588 180.382 128.77C180.11 129.467 179.685 128.973 179.736 129.779C180.109 129.989 180.159 128.61 180.738 128.888C180.716 128.419 180.363 128.296 180.776 127.367C180.94 127.536 181.08 127.23 181.219 126.901C181.467 127.623 180.321 127.85 180.824 128.305C181.335 127.568 182.402 127.623 182.891 127.773C182.029 126.475 180.671 127.258 179.884 125.838C180.59 124.263 181.019 125.351 181.17 125.964C181.5 126.002 181.184 125.441 181.58 124.874C181.648 125.09 182.418 125.242 182.526 125.194C182.707 125.976 181.866 125.698 181.643 126.124C181.871 126.273 182.621 127.476 183.474 125.514C183.431 126.107 183.236 126.862 183.553 127.076C183.592 126.815 183.633 126.553 183.522 126.45C184.095 126.077 183.441 127.814 182.907 128.086C184.016 129.374 186.918 130.041 189.228 131.141C190.353 131.675 191.743 132.044 192.575 132.883C193.094 133.408 195.313 133.954 196.6 134.241C196.728 134.379 196.441 134.957 196.309 135.37C197.664 134.081 198.254 136.087 200.065 136.025C200.186 136.115 199.977 136.555 199.875 136.881C200.054 137.085 200.7 136.214 200.246 137.314C202.017 136.038 203.185 137.861 204.357 138.086C204.522 138.12 204.829 137.637 204.799 137.622C205.039 137.744 205.018 138.701 205.439 138.758C205.932 138.827 206.076 138.998 206.52 139.432C206.921 139.821 207.775 140.51 207.972 140.535C208.127 140.556 208.311 139.927 208.532 140.109C208.71 140.258 208.484 140.772 208.57 140.995C208.637 140.879 209.611 141.128 210.087 140.942C209.562 141.985 211.93 141.58 212.723 142.445C212.448 142.978 212.167 142.859 212.195 143.495C213.016 143.319 213.543 141.93 213.718 143.702C214.683 142.759 214.773 143.496 215.698 143.757C215.493 144.297 215.245 143.994 215.052 144.767C215.599 143.797 215.591 145.189 216.187 144.23C216.276 144.315 216.192 144.574 216.094 144.701C217.145 143.914 218.253 144.983 218.926 145.46C218.511 146.156 218.631 146.461 218.279 146.471C218.479 146.94 219.191 147.489 218.494 148.383C218.788 148.127 218.911 148.168 218.967 148.545C219.127 148.216 219.105 148.077 219.03 147.994C220.217 148.951 222.005 150.044 222.701 151.032C223.014 150.352 222.872 150.912 223.497 150.687C223.315 150.898 223.139 151.259 222.969 151.737C223.28 151.745 223.524 150.47 223.852 150.808C223.236 152.74 225.14 150.989 224.846 152.064C225.002 152.067 225.133 151.6 225.272 151.287C225.598 151.91 225.844 151.78 226.693 151.766C225.3 152.609 226.65 152.424 227.183 152.237C227.021 152.863 226.811 152.549 226.638 152.976C226.641 153.538 227.042 153.995 227.452 152.943C227.511 154.454 228.197 154.659 228.762 155.842C227.807 156.753 226.777 156.596 225.409 156.245C225.188 156.306 225.325 156.609 225.102 157.063C223.176 157.118 221.801 155.71 219.839 156.515C222.005 159.171 225.668 159.033 228.086 160.835C227.026 161.306 226.61 161.355 225.428 161.166C225.237 161.97 226.034 161.734 226.068 162.302C225.741 162.751 225.37 162.308 225.034 162.568C226.319 164.034 228.108 164.068 230.172 165.222C229.915 166.253 229.548 165.154 229.304 166.465C225.712 164.789 221.777 166.577 220.341 164.054C220.66 163.469 221.045 164.172 221.39 164.102C220.847 162.576 219.339 162.426 218.146 162.085C214.809 161.135 211.457 160.257 208.235 159.356C208.139 159.622 208.3 159.618 208.37 159.708C204.587 159.733 199.355 158.011 196.414 155.675C196.194 155.929 195.945 155.612 195.752 156.373C195.283 154.683 193.875 155.259 192.658 155.02C189.546 154.413 186.794 151.645 183.866 151.441C184.706 150.222 183.546 151.221 183.038 151.162C181.006 150.922 178.404 148.906 176.141 148.22C176.34 150.139 179.047 149.29 179.788 151.293C179.595 152.061 179.303 150.909 179.11 151.679C180.206 154.324 182.96 152.566 184.057 155.191C184.324 154.973 184.176 154.725 184.602 154.453C187.924 154.914 192.268 157.445 195.895 159.184C196.324 159.391 196.966 158.716 197.505 158.806C202.039 159.559 204.719 163.653 208.948 164.202C206.579 164.313 205.27 162.959 202.351 162.59C202.195 162.588 202.064 163.055 201.926 163.369C200.417 162.836 200.213 161.823 199.036 161.473C193.355 159.776 187.047 156.835 180.279 156.371C179.754 156.438 179.914 157.321 179.531 157.655C178.787 156.016 176.893 157.17 176.594 154.821C176.182 154.958 176.597 155.563 176.642 155.758C175.201 156.231 174.903 152.841 173.027 153.311C172.835 154.227 173.486 154.254 173.462 154.993C173.426 155.229 172.687 154.837 172.736 154.441C171.917 155.718 170.194 154.203 169.319 153.595C168.637 154.852 167.209 152.56 166.187 153.767C169.145 155.489 173.528 155.835 176.312 158.412C176.53 157.962 176.413 157.865 176.281 157.786C176.762 157.495 177.113 157.753 176.904 158.611C177.355 158.816 177.023 158.18 177.447 157.874C177.698 158.248 177.735 158.428 177.835 158.618C179.186 158.201 179.985 159.593 180.826 160.242C182.794 161.361 180.249 159.674 179.587 161.052C181.692 162.647 185.178 162.78 186.975 164.465C186.519 165.871 186.554 164.329 186.211 165.435C186.922 166.239 187.928 166.034 188.593 166.547C188.769 165.593 187.779 165.867 188.261 164.591C189.246 164.736 190.174 165.535 190.864 165.471C190.101 167.437 191.834 167.338 192.404 165.989C192.999 165.748 192.35 166.816 192.791 166.735C192.965 166.718 193.114 166.234 192.996 166.19C194.699 166.414 198.639 167.455 200.216 168.626C200.308 168.859 200.217 169.284 200.043 169.797C200.477 169.682 200.303 168.894 200.556 168.434C201.37 169.362 202.492 168.695 202.718 169.777C202.423 170.846 202.028 169.935 201.684 170.043C201.687 170.671 202.092 170.268 201.511 171.213C204.397 171.892 205.097 172.156 207.548 173.25C205.341 174.486 204.005 171.999 202.065 172.935C201.296 171.827 200.181 172.444 199.326 171.705C198.997 171.666 199.312 172.228 198.916 172.795C198.429 172.973 198.639 172.729 198.206 172.554C197.849 173.259 198.253 173.164 198.254 173.492C197.889 174.165 197.932 172.792 197.442 173.525C197.634 174.855 199.132 172.717 199.793 174.011C199.688 174.555 200.075 174.32 199.604 174.868C200.208 175 200.32 175.653 201.041 175.661C201.56 175.829 200.884 176.137 200.701 175.854C199.531 175.666 197.803 176.181 197.506 174.774C196.682 175.483 196.937 174.301 196.338 174.688C196.373 174.218 196.649 173.517 197.087 173.404C195.488 171.572 192.9 171.684 190.797 170.976C190.889 172.953 193.08 171.494 193.481 173.417C192.405 173.7 191.658 173.084 190.774 172.81C191.325 171.976 190.252 171.747 189.795 171.866C189.575 171.924 189.711 172.231 189.488 172.684C188.885 171.966 188.118 172.436 187.121 171.885C187.138 171.482 187.389 170.833 187.176 170.674C186.741 172.572 186.896 169.933 186.126 170.628C187.632 168.785 187.288 172.023 188.477 171.115C187.554 169.568 186.646 168.242 184.981 168.706C184.727 169.412 185.38 169.164 184.823 170.189C183.938 169.888 183.644 169.357 182.693 169.47C182.869 169.112 183.075 169.344 183.27 169.356C182.805 167.436 181.019 166.884 179.504 166.244C179.104 166.649 179.217 167.098 179.331 167.414C179.018 168.121 178.635 167.457 178.314 167.992C177.102 164.469 172.794 166.363 171.761 162.711C171.603 163.238 171.205 163.052 170.776 163.913C169.836 163.679 169.324 162.623 168.086 163.619C167.691 162.053 165.109 163.482 165.472 160.281C163.588 162.041 162.636 161.383 160.935 160.287C161.11 159.903 161.326 160.31 161.496 159.86C161.112 159.223 160.27 159.067 159.688 158.636C159.545 159.501 160.327 159.391 160.786 159.621C160.178 161.003 160.111 159.654 159.397 159.768C159.631 156.931 157.24 157.544 155.901 157.359C155.854 157.901 156.438 157.781 156.525 158.182C155.048 158.91 154.438 156.981 153.225 157.377C153.363 157.013 153.499 156.651 153.635 156.287C151.58 154.873 149.731 154.87 147.276 154.755C146.95 154.818 147.259 155.228 146.849 155.534C144.144 154.759 141.374 153.147 138.375 153.595C138.398 153.886 139.6 153.659 139.031 155.044C138.722 154.468 137.547 154.177 137.413 152.962C134.494 152.351 130.994 152.12 127.904 151.289C125.347 150.603 122.569 150.572 120.037 149.863C115.043 148.467 111.238 146.243 106.968 144.533C105.726 144.036 104.681 143.31 104.134 141.427C105.367 139.048 106.207 139.961 107.645 139.54C107.518 138.96 107.678 138.078 107.209 137.857C107.307 137.702 107.898 136.909 107.619 136.767C108.973 134.344 110.149 135.755 111.333 134.338C111.085 132.879 109.591 133.982 108.476 133.066C108.374 133.996 108.828 134.342 109.37 134.595C107.99 135.273 106.462 133.995 105.652 132.42C106.569 131.36 106.589 132.797 107.734 132.202C107.945 130.839 108.731 130.702 108.996 129.556C108.865 129.035 108.378 128.888 108.017 128.611C108.429 128.329 108.797 127.187 109.223 127.176C109.605 126.225 109.385 125.909 109.364 125.381C109.181 125.171 108.513 126.502 108.734 126.703C108.067 127.74 107.871 125.446 107.345 126.85C107.543 125.606 108.357 125.886 108.788 125.493C108.835 124.676 108.39 124.377 108.235 123.772C108.799 123.136 109.184 124.079 109.537 124.211C109.758 124.152 109.622 123.846 109.844 123.393C109.27 122.634 107.998 121.804 107.429 121.657C107.864 120.445 107.715 121.9 108.108 121.271C107.823 120.006 108.613 117.814 109.43 115.269C110.277 114.998 110.556 114.675 111.291 115.284C111.517 115.083 111.514 114.671 111.938 114.273C112.15 113.012 111.095 112.565 110.572 112.584C111.328 111.492 110.927 110.399 110.665 109.852C110.968 108.953 111.329 109.189 111.651 108.649C112.39 105.383 114.264 105.36 115.475 103.798C117.971 103.973 119.874 106.277 122.356 106.427C123.14 106.475 124.131 105.965 124.897 106.056C126.641 106.259 128.233 107.045 129.971 107.46C135.238 108.72 139.926 110.886 145.548 111.795C147.327 112.083 149.579 112.234 151.537 112.895C154.803 113.996 158.453 114.393 160.683 116.596C160.908 116.395 160.902 115.927 161.346 115.896C161.619 117.358 163.858 115.169 163.54 117.866Z" fill="#FF7B29" fill-opacity="0.3"/>
<path fill-rule="evenodd" clip-rule="evenodd" d="M143.787 75.4868C143.379 76.1007 143.615 74.8745 143.212 75.5982C143.502 76.2806 143.228 77.5567 143.797 77.9458C143.716 77.2595 143.984 77.2289 144.19 76.5436C143.774 77.4821 143.32 76.1313 143.787 75.4868ZM129.081 74.5153C128.834 74.5049 128.979 74.9869 128.757 75.0199C127.012 74.4773 125.335 72.8588 123.092 73.4168C121.957 71.9784 120.129 72.0772 118.696 71.6261C117.659 71.3001 116.726 70.1108 115.31 71.4055C117.273 72.2928 119.535 72.5623 121.009 73.6348C123.226 73.6856 125.664 74.9781 128.568 75.8779C128.669 76.1014 128.192 76.9331 128.396 77.0479C128.678 76.5053 128.972 76.1957 129.278 76.1184C133.16 77.8156 136.496 78.9283 139.016 80.0185C139.116 80.2583 138.756 81.8083 139.301 81.0352C139.226 80.9206 139.06 80.1224 139.372 80.1384C140.705 81.236 145.534 81.7401 146.893 83.9045C146.781 83.8018 146.822 83.5393 146.861 83.2786C148.829 84.172 151.015 83.8362 152.204 85.388C150.732 83.63 149.134 81.4584 146.813 82.3414C146.915 82.0687 147.018 81.796 147.12 81.5248C146.079 82.6386 145.713 80.1736 145.195 80.2592C143.042 82.3013 143.053 79.2246 141.288 78.9425C140.434 80.3517 139.269 79.0978 138.937 78.4555C135.976 77.6233 132.274 76.501 129.081 74.5153ZM153.292 83.9126C153.632 84.3866 153.056 84.637 152.764 84.9627C152.813 85.6693 153.479 85.699 154.066 85.4024C153.239 85.6628 154.097 83.7948 153.781 84.3855C153.584 84.3239 153.43 85.1188 153.237 85.1238C153.406 84.6455 153.582 84.2855 153.766 84.0728C153.355 84.3567 153.584 83.2205 153.292 83.9126ZM154.562 83.7278C154.213 86.4378 156.665 85.4309 157.412 87.1468C157.696 86.6359 158.001 86.5257 158.31 86.529C158.784 86.8517 159.808 87.9811 160.544 86.9748C160.115 86.8775 160.29 86.1442 160.022 85.8787C159.591 86.6331 158.507 86.4434 158.398 85.9428C158.84 84.8791 158.688 86.2687 159.076 85.5586C158.18 85.3834 155.768 85.7501 154.562 83.7278ZM160.678 87.3281C161.38 87.2767 161.755 88.847 162.556 87.6538C161.918 87.8921 161.194 86.5345 160.678 87.3281ZM149.954 84.6295C149.629 84.5419 149.151 85.0615 149.19 85.6002C149.471 85.7876 149.72 85.3544 149.954 84.6295ZM153.064 86.2946C152.891 86.6936 152.728 87.3145 152.535 87.3445C152.121 86.9588 151.029 86.4585 150.54 86.9761C154.228 89.1223 158.425 90.4441 160.681 91.9344C160.566 91.9632 160.444 91.8629 160.342 92.1276C160.674 92.5635 160.94 91.6816 161.241 91.5089C162.267 92.82 164.268 92.8199 165.183 93.8127C165.142 94.0636 165.314 94.0894 165.447 94.1561C165.377 94.0241 165.28 93.9191 165.183 93.8127C165.196 93.7334 165.23 93.6295 165.298 93.4917C166.434 94.194 166.976 93.331 167.224 94.7562C167.597 93.7324 168.087 94.9687 168.461 93.9464C164.503 91.6107 157.932 89.9856 153.838 87.783C153.902 86.9784 154.558 87.432 154.264 87.0044C153.872 87.6283 154.026 86.2967 153.569 87.0779C153.818 88.5473 153.126 87.2011 153.064 86.2946ZM182.618 97.8003C182.888 96.863 182.262 97.1732 181.907 97.5608C182.267 97.7863 182.136 98.5273 182.768 98.4663C182.991 98.0125 182.854 97.7079 183.075 97.6484C183.557 97.5802 182.809 98.8059 183.36 98.6653C183.528 98.1712 183.717 98.067 183.92 98.2387C184.42 96.7087 183.271 96.5396 182.618 97.8003ZM186.643 99.1584C186.434 98.3644 185.321 97.8716 184.598 97.8549C184.674 100.41 186.761 98.3434 186.943 100.488C187.12 100.162 187.305 99.9825 187.503 100.064C188.059 98.5205 187.173 98.776 186.643 99.1584ZM181.545 99.5897C182.036 99.4015 181.673 100.114 181.815 100.293C182.02 99.7527 182.267 100.056 182.46 99.2827C182.069 98.9915 182.051 98.7573 181.545 99.5897ZM170.98 95.4091C173.678 96.3688 175.789 98.2414 178.673 98.0041C176.381 97.0629 174.15 95.738 170.98 95.4091ZM167.907 92.2233C167.974 92.2631 168.033 92.3117 167.924 92.5363C167.726 92.4511 167.542 92.6429 167.364 92.9604C167.733 93.3518 168.047 92.6774 168.381 92.3833C168.063 92.569 168.292 91.4341 167.907 92.2233ZM169.827 95.6341C170.175 94.8515 170.603 95.6518 170.963 95.0959C170.752 94.9343 170.853 94.4441 170.797 94.1184C169.579 95.1526 169.761 93.2885 168.477 94.257C168.639 95.3083 170.639 94.3656 169.827 95.6341ZM155.584 92.3632C155.744 92.5432 155.428 92.7061 155.277 93.1811C155.994 92.6238 155.214 94.1784 155.885 93.693C155.696 93.4577 155.794 93.1836 156.074 92.8351C155.944 92.7292 155.791 91.849 155.584 92.3632ZM177.776 103.23C177.521 103.552 177.283 104.205 177.012 104.2C177.473 102.847 176.12 103.074 176.08 104.194C176.598 103.387 177.6 105.528 179.158 105.232C179.273 103.373 178.413 103.866 177.776 103.23ZM184.129 106.91C184.547 106.893 184.948 108.331 185.313 107.309C185.234 106.968 184.641 105.734 184.129 106.91ZM186.987 108.18C187.003 108.711 187.503 108.635 187.799 108.148C187.576 107.857 187.413 107.715 186.987 108.18ZM187.815 108.459C187.858 109.133 188.76 109.762 189.37 109.292C188.762 108.888 188.481 108.004 187.815 108.459ZM117.955 86.7299C118.59 87.4372 119.151 87.8802 119.849 87.3687C119.659 86.7953 118.484 86.3981 117.955 86.7299ZM120.204 87.4883C120.403 87.6233 120.723 88.4565 121.15 87.8082C121.135 87.4801 120.517 86.9588 120.204 87.4883ZM110.04 84.3669C109.457 83.7373 108.413 83.9363 107.688 83.8796C108.298 84.2886 108.872 84.6911 110.04 84.3669ZM114.301 85.8044C115.432 86.1133 116.678 86.9811 117.82 86.3778C116.195 86.1636 115.654 85.1666 114.301 85.8044ZM166.966 101.119C166.772 100.979 166.229 99.8731 165.799 101.03C166.44 100.967 166.412 101.959 166.966 101.119ZM175.741 104.386C176.105 103.557 175.588 103.084 175.252 103.914C175.273 104.594 175.724 103.803 175.741 104.386ZM184.216 106.323C182.771 106.694 181.993 104.643 180.342 105.631C181.74 105.869 182.44 107.547 184.216 106.323ZM172.174 102.875C173.311 102.969 174.124 104.772 175.339 103.328C174.162 103.449 173.388 101.15 172.174 102.875ZM143.839 96.9995C144.12 97.6366 144.951 97.6939 144.968 98.6088C144.17 98.0043 142.43 96.971 141.67 97.8031C143.73 98.9517 145.889 98.9774 147.636 100.737C147.583 100.957 147.437 101.276 147.55 101.322C147.686 100.959 147.823 100.595 147.959 100.231C148.162 100.765 149.211 101.283 149.718 100.519C149.055 99.0085 147.448 98.4241 146.34 98.1502C146.333 98.3072 146.764 98.7473 146.373 98.7761C145.787 98.018 144.701 96.9176 143.839 96.9995ZM152.173 100.733C151.68 101.155 151.843 100.152 151.36 100.764C151.509 100.901 151.418 102.105 151.747 101.509C151.676 101.419 151.695 101.235 151.833 100.925C151.992 101.002 152.309 101.017 152.173 100.733ZM152.409 100.812C152.273 101.175 152.136 101.539 151.999 101.902C154.008 103.409 155.504 103.337 157.831 104.485C156.583 101.434 154.035 103.245 152.409 100.812ZM158.305 104.644C158.629 105.282 160.86 104.792 160.113 105.867C160.093 106.203 161.421 105.342 161.367 105.37C160.553 104.916 159.026 103.704 158.305 104.644ZM162.077 105.61C161.941 105.985 161.796 106.189 161.651 106.388C161.819 106.648 161.804 107.498 162.243 106.587C162.032 106.425 162.133 105.935 162.077 105.61ZM141.189 99.7903C141.678 100.538 142.923 100.488 142.808 101.871C142.61 101.787 142.425 101.98 142.249 102.296C143.062 101.508 142.092 103.546 142.737 102.768C143.084 101.961 144.633 103.329 145.056 102.631C144.406 100.861 142.904 99.3332 141.189 99.7903ZM136.77 99.8353C137.362 101.969 137.766 99.4992 139.273 100.986C139.258 99.7273 137.297 99.939 138.554 98.2855C137.435 99.6087 136.094 96.5115 134.9 97.3601C134.943 97.973 135.538 98.0043 135.216 99.0022C135.209 98.6447 134.708 98.7197 134.403 99.0367C135.312 99.121 135.887 100.605 136.77 99.8353ZM134.387 98.7238C134.081 98.8024 133.737 98.124 133.456 98.7167C133.829 98.9927 133.908 99.4649 134.387 98.7238ZM86.7187 87.8607C84.964 87.694 85.0087 86.8754 83.4366 87.3665C84.036 87.9922 85.657 89.3085 86.7187 87.8607ZM77.5498 85.9942C77.9237 86.2043 78.5887 86.1065 78.6316 86.6663C78.7195 85.5848 78.1315 85.2924 77.5498 85.9942ZM131.796 104.911C133.011 105.093 133.305 106.655 134.147 105.398C133.569 105.857 132.495 103.787 131.796 104.911ZM142.765 110.148C142.663 110.42 142.56 110.694 142.458 110.966C142.568 111.351 143.445 111.168 143.334 112.184C144.089 110.523 144.771 112.737 145.788 112.396C145.536 110.562 143.707 111.256 142.765 110.148ZM146.466 112.012C146.722 114.133 148.789 112.73 148.945 114.998C146.923 114.522 145.494 112.781 142.892 112.648C143.006 112.968 143.448 112.941 143.398 113.433C142.206 113.735 142.05 112.74 141.795 111.664C141.601 112.425 141.353 112.108 141.133 112.362C141.036 111.622 140.806 110.502 140.036 111.377C143.308 115.606 151.252 118.142 154.976 119.182C152.811 117.494 150.829 117.925 149.348 116.054C150.58 115.056 150.885 118.031 152.512 116.508C151.739 116.572 151.025 115.36 150.35 115.163C150.136 115.972 149.179 114.592 150.152 113.562C149.018 113.174 147.333 112.687 146.466 112.012ZM153.594 117.18C154.689 118.307 155.534 118.121 156.671 118.219C155.518 117.325 154.733 116.2 153.594 117.18ZM163.924 121.281C164.234 121.282 164.539 121.172 164.823 120.663C164.467 120.48 163.985 119.579 163.402 120.183C163.492 120.78 164.24 120.683 164.144 121.047C164.068 121.038 163.99 121.041 163.924 121.281ZM165.636 120.629C165.053 122.03 165.084 120.622 164.839 120.975C164.997 121.108 164.696 121.6 164.531 121.792C165.646 121.416 165.54 122.699 166.835 121.341C167.02 121.97 168.001 121.759 167.728 122.871C168.129 122.395 167.847 122.52 168.137 121.782C167.429 121.759 167.284 121.142 166.922 120.755C166.411 122.215 165.942 120.848 165.636 120.629ZM168.981 122.373C169.869 122.345 169.677 123.578 170.317 123.436C170.032 122.967 170.423 121.787 169.984 121.481C169.774 123.026 169.624 121.433 168.981 122.373ZM138.56 112.108C137.787 109.744 135.481 109.845 133.984 109.027C134.229 109.196 133.982 109.847 133.692 110.159C135.341 111.071 136.911 112.172 138.56 112.108ZM160.68 119.265C160.448 119.256 160.358 118.022 160.309 118.831C160.376 118.872 160.434 118.92 160.325 119.145C159.873 119.126 159.702 118.813 159.481 118.552C159.08 119.531 160.396 119.553 160.68 119.265ZM158.987 124.834C159.025 125.621 159.569 124.678 159.918 124.842C159.861 124.993 159.898 125.182 160.036 124.882C159.952 124.016 159.54 124.414 158.987 124.834ZM134.018 70.9612C134.624 70.2923 134.273 70.6644 134.782 69.9905C137.709 71.7895 139.505 72.3423 142.303 73.7566C142.198 73.9707 142.083 73.9876 141.98 74.2614C142.36 74.2127 143.398 73.4288 143.298 75.0152C143.483 74.8525 143.664 74.5787 143.842 74.2757C143.965 74.3669 143.755 74.8075 143.653 75.1337C143.768 75.1143 143.874 74.9 143.992 74.9415C144.43 74.7799 143.713 74.5575 144.299 74.1239C145.049 74.6265 144.481 75.7186 145.602 74.5625C146.11 74.9256 146.176 76.0259 146.92 75.3136C147.108 75.55 147.01 75.8244 146.731 76.173C147.637 75.3919 147.896 76.3481 148.727 76.5391C148.512 76.8776 148.283 76.9611 148.049 76.9242C147.792 77.894 148.721 76.9618 148.57 78.0216C148.105 78.1705 147.749 78.8003 147.537 78.2859C147.664 80.0181 149.96 80.2289 150.78 80.3028C150.373 80.5181 150.436 81.7485 150.797 80.6146C150.912 80.932 150.616 81.6836 150.86 81.8647C150.588 82.5621 150.163 82.0683 150.214 82.8745C150.586 83.084 150.637 81.7049 151.216 81.9833C151.193 81.5145 150.841 81.3907 151.253 80.4627C151.418 80.6311 151.557 80.3249 151.696 79.9961C151.945 80.7181 150.799 80.9457 151.301 81.4001C151.813 80.6636 152.88 80.7178 153.369 80.8681C152.506 79.5707 151.149 80.3535 150.362 78.9331C151.067 77.3586 151.497 78.4466 151.648 79.0597C151.977 79.0967 151.662 78.536 152.057 77.9694C152.126 78.1855 152.896 78.3373 153.004 78.2893C153.185 79.0711 152.344 78.7931 152.121 79.2196C152.348 79.3681 153.099 80.5707 153.951 78.6095C153.909 79.2027 153.713 79.9568 154.031 80.1712C154.07 79.9106 154.111 79.6483 153.999 79.5456C154.572 79.1719 153.919 80.9094 153.385 81.181C154.494 82.4693 157.396 83.1357 159.706 84.236C160.831 84.7701 162.22 85.1394 163.052 85.9781C163.572 86.5027 165.79 87.0493 167.077 87.3362C167.206 87.4741 166.918 88.0524 166.786 88.4657C168.142 87.1763 168.731 89.1826 170.542 89.1199C170.663 89.2106 170.455 89.6504 170.353 89.9765C170.532 90.1804 171.177 89.3096 170.724 90.409C172.494 89.1337 173.663 90.9558 174.835 91.1817C175 91.2151 175.307 90.7326 175.276 90.717C175.517 90.8395 175.496 91.7959 175.916 91.8536C176.41 91.9226 176.554 92.0936 176.998 92.5269C177.398 92.9162 178.253 93.6049 178.45 93.6301C178.605 93.6507 178.788 93.0218 179.01 93.2046C179.188 93.3536 178.962 93.8672 179.048 94.09C179.114 93.9739 180.089 94.2228 180.564 94.0377C180.04 95.08 182.408 94.6751 183.2 95.5403C182.926 96.0729 182.644 95.9543 182.673 96.5906C183.493 96.4147 184.02 95.025 184.195 96.7977C185.16 95.8547 185.25 96.5913 186.175 96.8521C185.971 97.3922 185.723 97.0888 185.529 97.862C186.077 96.8921 186.069 98.2839 186.664 97.3248C186.753 97.4098 186.67 97.6687 186.572 97.7962C187.622 97.0095 188.731 98.078 189.404 98.5552C188.989 99.2509 189.109 99.5558 188.757 99.566C188.957 100.035 189.668 100.585 188.971 101.479C189.266 101.223 189.388 101.263 189.444 101.64C189.604 101.311 189.583 101.172 189.508 101.09C190.695 102.047 192.482 103.14 193.178 104.127C193.491 103.447 193.35 104.008 193.974 103.782C193.792 103.993 193.616 104.354 193.446 104.832C193.757 104.84 194.002 103.565 194.33 103.903C193.714 105.835 195.617 104.084 195.324 105.159C195.48 105.162 195.611 104.695 195.75 104.382C196.075 105.005 196.322 104.875 197.171 104.861C195.778 105.704 197.127 105.519 197.66 105.333C197.499 105.958 197.288 105.644 197.116 106.071C197.118 106.633 197.52 107.091 197.929 106.038C197.988 107.549 198.675 107.754 199.24 108.937C198.285 109.848 197.255 109.691 195.887 109.34C195.666 109.401 195.803 109.705 195.58 110.158C193.654 110.213 192.278 108.805 190.317 109.611C192.483 112.266 196.146 112.128 198.564 113.93C197.503 114.401 197.088 114.451 195.905 114.261C195.715 115.065 196.512 114.829 196.545 115.397C196.219 115.846 195.847 115.403 195.512 115.663C196.797 117.129 198.586 117.164 200.65 118.317C200.392 119.348 200.025 118.249 199.782 119.56C196.19 117.884 192.255 119.672 190.818 117.149C191.137 116.565 191.522 117.268 191.867 117.197C191.325 115.671 189.817 115.521 188.624 115.18C185.287 114.23 181.934 113.353 178.712 112.451C178.616 112.717 178.777 112.713 178.847 112.804C175.065 112.828 169.833 111.106 166.891 108.771C166.671 109.024 166.423 108.707 166.23 109.468C165.761 107.778 164.352 108.354 163.136 108.115C160.024 107.509 157.271 104.741 154.344 104.536C155.183 103.318 154.024 104.316 153.516 104.257C151.484 104.017 148.882 102.002 146.618 101.315C146.817 103.234 149.524 102.385 150.265 104.389C150.072 105.157 149.781 104.005 149.587 104.774C150.683 107.419 153.437 105.662 154.535 108.286C154.801 108.069 154.654 107.821 155.08 107.548C158.402 108.009 162.745 110.54 166.372 112.28C166.802 112.486 167.443 111.812 167.983 111.901C172.517 112.654 175.197 116.748 179.426 117.297C177.057 117.408 175.748 116.054 172.828 115.686C172.673 115.683 172.542 116.15 172.403 116.464C170.894 115.931 170.691 114.918 169.514 114.568C163.832 112.872 157.525 109.93 150.757 109.466C150.232 109.533 150.392 110.417 150.008 110.75C149.265 109.111 147.37 110.266 147.072 107.916C146.66 108.053 147.074 108.658 147.119 108.854C145.679 109.326 145.38 105.936 143.504 106.407C143.312 107.322 143.963 107.349 143.94 108.088C143.903 108.324 143.164 107.932 143.213 107.536C142.394 108.813 140.672 107.298 139.797 106.69C139.114 107.947 137.687 105.655 136.665 106.862C139.623 108.584 144.005 108.93 146.789 111.507C147.008 111.057 146.891 110.96 146.758 110.882C147.24 110.59 147.591 110.848 147.381 111.706C147.832 111.911 147.501 111.275 147.925 110.969C148.176 111.344 148.212 111.523 148.313 111.713C149.663 111.296 150.463 112.689 151.304 113.337C153.271 114.456 150.726 112.769 150.065 114.147C152.17 115.742 155.656 115.875 157.452 117.56C156.996 118.966 157.031 117.425 156.688 118.53C157.399 119.334 158.405 119.129 159.071 119.643C159.246 118.689 158.257 118.962 158.738 117.686C159.724 117.831 160.652 118.63 161.342 118.566C160.579 120.532 162.312 120.433 162.881 119.084C163.476 118.843 162.827 119.911 163.268 119.83C163.442 119.813 163.592 119.329 163.473 119.285C165.176 119.509 169.116 120.55 170.694 121.721C170.785 121.954 170.695 122.379 170.521 122.892C170.955 122.777 170.78 121.99 171.033 121.529C171.848 122.457 172.969 121.79 173.196 122.872C172.9 123.941 172.506 123.03 172.162 123.139C172.165 123.766 172.57 123.363 171.989 124.308C174.874 124.988 175.574 125.252 178.026 126.345C175.818 127.581 174.483 125.094 172.542 126.03C171.773 124.922 170.659 125.54 169.804 124.8C169.474 124.762 169.79 125.324 169.394 125.89C168.907 126.068 169.117 125.824 168.684 125.65C168.327 126.355 168.731 126.259 168.732 126.587C168.366 127.26 168.409 125.887 167.919 126.62C168.112 127.95 169.609 125.812 170.27 127.106C170.165 127.651 170.553 127.415 170.082 127.963C170.686 128.095 170.797 128.748 171.518 128.756C172.037 128.924 171.362 129.232 171.178 128.949C170.009 128.762 168.281 129.276 167.983 127.869C167.16 128.578 167.414 127.396 166.815 127.783C166.85 127.313 167.126 126.612 167.564 126.5C165.966 124.667 163.378 124.779 161.274 124.071C161.366 126.049 163.558 124.589 163.958 126.513C162.882 126.795 162.136 126.179 161.252 125.906C161.803 125.071 160.73 124.842 160.273 124.961C160.053 125.02 160.188 125.326 159.966 125.779C159.363 125.061 158.596 125.532 157.598 124.98C157.616 124.577 157.867 123.928 157.653 123.769C157.218 125.667 157.374 123.029 156.604 123.723C158.11 121.881 157.765 125.119 158.955 124.21C158.032 122.663 157.124 121.338 155.459 121.801C155.204 122.508 155.857 122.26 155.301 123.284C154.416 122.983 154.122 122.453 153.17 122.565C153.346 122.208 153.552 122.439 153.747 122.451C153.283 120.531 151.496 119.979 149.982 119.339C149.582 119.745 149.695 120.194 149.809 120.509C149.495 121.217 149.113 120.552 148.791 121.088C147.58 117.564 143.272 119.459 142.239 115.806C142.081 116.333 141.682 116.148 141.254 117.008C140.314 116.774 139.801 115.718 138.563 116.714C138.168 115.148 135.587 116.577 135.95 113.376C134.065 115.137 133.114 114.478 131.413 113.382C131.587 112.998 131.803 113.405 131.973 112.956C131.589 112.318 130.748 112.162 130.166 111.731C130.022 112.596 130.804 112.486 131.263 112.716C130.655 114.098 130.589 112.749 129.875 112.863C130.109 110.026 127.717 110.639 126.378 110.454C126.332 110.996 126.915 110.876 127.002 111.278C125.525 112.005 124.915 110.076 123.703 110.473C123.84 110.108 123.976 109.746 124.113 109.382C122.057 107.968 120.208 107.965 117.753 107.85C117.428 107.914 117.737 108.324 117.327 108.629C114.621 107.855 111.851 106.242 108.853 106.69C108.876 106.981 110.077 106.754 109.508 108.139C109.2 107.563 108.025 107.273 107.89 106.057C104.972 105.446 101.472 105.215 98.3811 104.384C95.8244 103.698 93.0461 103.667 90.5147 102.959C85.521 101.562 81.7155 99.3378 77.446 97.6281C76.2034 97.1307 75.1581 96.4051 74.6119 94.5221C75.8448 92.1431 76.6842 93.0561 78.1221 92.6355C77.9953 92.0551 78.1553 91.173 77.6869 90.9525C77.7842 90.7976 78.3756 90.0046 78.0966 89.8622C79.4504 87.4388 80.6264 88.8504 81.8108 87.4328C81.5629 85.9739 80.0681 87.0771 78.954 86.1612C78.8519 87.0916 79.3055 87.4377 79.8476 87.6903C78.4671 88.3682 76.9394 87.0904 76.1294 85.5154C77.0468 84.4553 77.0663 85.8927 78.2119 85.2973C78.422 83.934 79.209 83.7973 79.4734 82.6512C79.3424 82.1303 78.8557 81.9834 78.4946 81.7067C78.9063 81.4244 79.2745 80.2817 79.7006 80.2715C80.0828 79.3201 79.8621 79.0038 79.8418 78.4761C79.6588 78.2666 78.9909 79.5969 79.2112 79.7986C78.5442 80.8354 78.3488 78.5414 77.8226 79.9456C78.021 78.7013 78.8345 78.9816 79.2658 78.5886C79.3126 77.7708 78.8675 77.4723 78.7127 76.8667C79.2762 76.2308 79.6619 77.1746 80.0148 77.3064C80.2351 77.2469 80.0997 76.9414 80.3216 76.4886C79.7472 75.7295 78.476 74.8988 77.9068 74.7526C78.3414 73.5406 78.1927 74.9952 78.5856 74.3664C78.3009 73.1013 79.0905 70.9092 79.9078 68.3639C80.7549 68.0931 81.034 67.7702 81.769 68.3792C81.9944 68.1786 81.9912 67.7666 82.4159 67.3684C82.628 66.1072 81.5727 65.6598 81.0497 65.6796C81.8059 64.5874 81.4047 63.4946 81.143 62.9468C81.4452 62.0478 81.807 62.2845 82.1287 61.744C82.8674 58.4782 84.7417 58.4556 85.9526 56.8935C88.449 57.0685 90.3516 59.3718 92.8337 59.5218C93.618 59.5699 94.6081 59.0604 95.3742 59.1509C97.1183 59.3538 98.7106 60.1403 100.448 60.5551C105.716 61.8155 110.403 63.981 116.025 64.8901C117.805 65.1779 120.057 65.3292 122.014 65.9898C125.281 67.0914 128.931 67.4879 131.161 69.6907C131.386 69.4901 131.38 69.0224 131.823 68.9916C132.096 70.4536 134.335 68.2639 134.018 70.9612Z" fill="#FF7B29" fill-opacity="0.3"/>
<path fill-rule="evenodd" clip-rule="evenodd" d="M93.9315 163.48C94.3337 162.862 94.1094 164.09 94.5059 163.363C94.2091 162.683 94.4722 161.405 93.8998 161.021C93.9872 161.707 93.7189 161.74 93.5194 162.427C93.9269 161.484 94.3925 162.831 93.9315 163.48ZM108.646 164.319C108.893 164.327 108.744 163.846 108.965 163.811C110.715 164.338 112.407 165.941 114.645 165.363C115.792 166.791 117.62 166.676 119.057 167.114C120.097 167.431 121.04 168.611 122.444 167.304C120.474 166.434 118.209 166.185 116.726 165.126C114.508 165.095 112.059 163.825 109.146 162.951C109.043 162.729 109.513 161.893 109.308 161.78C109.031 162.325 108.74 162.637 108.434 162.717C104.537 161.055 101.191 159.973 98.6613 158.905C98.5596 158.666 98.9056 157.113 98.3676 157.891C98.4436 158.005 98.6167 158.802 98.3047 158.789C96.9618 157.703 92.1286 157.243 90.7498 155.09C90.8623 155.192 90.824 155.455 90.7878 155.716C88.8116 154.84 86.6292 155.196 85.4262 153.655C86.9137 155.4 88.5307 157.557 90.8436 156.653C90.744 156.926 90.644 157.2 90.5441 157.472C91.5753 156.349 91.9639 158.811 92.4808 158.72C94.6151 156.659 94.6325 159.736 96.3993 160.002C97.2412 158.585 98.4173 159.828 98.7546 160.467C101.723 161.273 105.436 162.362 108.646 164.319ZM84.3515 155.14C84.0069 154.669 84.5805 154.414 84.8697 154.085C84.8138 153.379 84.1484 153.355 83.5637 153.657C84.3882 153.389 83.547 155.265 83.8578 154.672C84.0556 154.731 84.2021 153.935 84.3952 153.928C84.2304 154.408 84.0579 154.77 83.8762 154.984C84.2845 154.697 84.0653 155.835 84.3515 155.14ZM83.083 155.336C83.407 152.623 80.9649 153.652 80.2022 151.943C79.9229 152.457 79.619 152.57 79.3095 152.569C78.8326 152.251 77.799 151.13 77.072 152.143C77.5016 152.237 77.3328 152.972 77.6032 153.235C78.0275 152.476 79.1138 152.656 79.227 153.156C78.795 154.224 78.9344 152.833 78.553 153.546C79.4496 153.713 81.8588 153.325 83.083 155.336ZM76.9341 151.791C76.2335 151.849 75.8441 150.282 75.0536 151.483C75.6891 151.239 76.4261 152.59 76.9341 151.791ZM87.6821 154.393C88.0087 154.478 88.4816 153.954 88.4382 153.416C88.1552 153.231 87.9098 153.666 87.6821 154.393ZM84.5581 152.756C84.727 152.356 84.8847 151.733 85.0767 151.701C85.495 152.083 86.5909 152.574 87.0755 152.052C83.3686 149.939 79.1595 148.655 76.8903 147.185C77.0044 147.155 77.1273 147.255 77.2277 146.989C76.8913 146.556 76.6337 147.44 76.3341 147.616C75.2961 146.314 73.2957 146.332 72.3714 145.348C72.4097 145.096 72.2377 145.072 72.104 145.007C72.1749 145.138 72.2732 145.242 72.3714 145.348C72.3588 145.427 72.3256 145.531 72.2594 145.67C71.1166 144.978 70.5831 145.845 70.3223 144.423C69.9584 145.45 69.4569 144.218 69.0926 145.243C73.071 147.543 79.6562 149.109 83.7703 151.275C83.7133 152.08 83.0537 151.632 83.3516 152.057C83.738 151.43 83.596 152.763 84.0452 151.977C83.7838 150.51 84.4878 151.85 84.5581 152.756ZM54.901 141.517C54.6394 142.457 55.2632 142.141 55.6138 141.751C55.252 141.528 55.3768 140.786 54.7452 140.853C54.5265 141.309 54.6655 141.612 54.4457 141.673C53.9645 141.746 54.7007 140.514 54.1516 140.659C53.9875 141.155 53.7997 141.261 53.595 141.091C53.1089 142.625 54.2597 142.784 54.901 141.517ZM50.8642 140.196C51.0806 140.988 52.1974 141.471 52.9202 141.481C52.8215 138.927 50.7533 141.012 50.5522 138.869C50.3778 139.196 50.1945 139.378 49.9961 139.298C49.4533 140.846 50.3378 140.583 50.8642 140.196ZM55.9575 139.718C55.4684 139.911 55.8256 139.195 55.6817 139.018C55.4818 139.56 55.2313 139.259 55.0451 140.034C55.4397 140.321 55.4593 140.555 55.9575 139.718ZM66.5605 143.804C63.8539 142.868 61.7262 141.015 58.844 141.278C61.1441 142.199 63.3875 143.503 66.5605 143.804ZM69.6612 146.962C69.5944 146.922 69.5352 146.874 69.6421 146.649C69.8405 146.732 70.023 146.539 70.1982 146.22C69.8259 145.831 69.5172 146.509 69.1863 146.806C69.5028 146.617 69.2836 147.754 69.6612 146.962ZM67.7107 143.568C67.3699 144.354 66.9347 143.558 66.5801 144.117C66.7924 144.276 66.6958 144.767 66.7546 145.093C67.963 144.047 67.7979 145.913 69.073 144.933C68.9022 143.883 66.9106 144.844 67.7107 143.568ZM81.983 146.71C81.8211 146.532 82.1361 146.366 82.2825 145.89C81.5702 146.454 82.3368 144.892 81.6701 145.383C81.8615 145.617 81.7657 145.892 81.4885 146.243C81.6194 146.348 81.7803 147.227 81.983 146.71ZM59.6938 136.044C59.9456 135.72 60.1776 135.064 60.449 135.068C60.0007 136.425 61.3511 136.185 61.3809 135.065C60.87 135.877 59.8492 133.745 58.294 134.055C58.1959 135.915 59.0511 135.414 59.6938 136.044ZM53.3074 132.422C52.8896 132.443 52.4766 131.008 52.1205 132.033C52.2021 132.373 52.8066 133.602 53.3074 132.422ZM50.4387 131.177C50.4178 130.647 49.9181 130.727 49.6268 131.217C49.8527 131.506 50.0164 131.646 50.4387 131.177ZM49.6076 130.906C49.5591 130.233 48.6513 129.612 48.0458 130.087C48.6577 130.486 48.9458 131.367 49.6076 130.906ZM119.662 152.004C119.019 151.303 118.455 150.865 117.762 151.382C117.957 151.954 119.135 152.341 119.662 152.004ZM117.406 151.266C117.206 151.133 116.877 150.303 116.456 150.955C116.474 151.283 117.097 151.798 117.406 151.266ZM127.598 154.296C128.186 154.92 129.228 154.712 129.954 154.762C129.34 154.358 128.763 153.961 127.598 154.296ZM123.323 152.897C122.19 152.598 120.936 151.741 119.8 152.355C121.426 152.555 121.976 153.547 123.323 152.897ZM70.5225 138.058C70.7182 138.196 71.2711 139.297 71.6906 138.136C71.0499 138.205 71.0685 137.213 70.5225 138.058ZM61.7179 134.87C61.3622 135.702 61.8831 136.17 62.2116 135.337C62.184 134.657 61.7402 135.452 61.7179 134.87ZM53.2262 133.009C54.6678 132.625 55.4646 134.67 57.1063 133.666C55.7065 133.442 54.9914 131.77 53.2262 133.009ZM65.2985 136.349C64.161 136.265 63.3319 134.469 62.1299 135.925C63.3059 135.792 64.1004 138.085 65.2985 136.349ZM93.6861 141.968C93.3994 141.334 92.5671 141.284 92.5425 140.369C93.3458 140.967 95.0954 141.984 95.8477 141.145C93.7771 140.015 91.6181 140.009 89.8555 138.265C89.9062 138.044 90.0491 137.725 89.9359 137.68C89.8031 138.043 89.6695 138.409 89.5364 138.774C89.3287 138.242 88.2757 137.733 87.7751 138.502C88.4513 140.007 90.064 140.576 91.174 140.84C91.18 140.683 90.7447 140.247 91.1361 140.215C91.7283 140.968 92.8249 142.058 93.6861 141.968ZM85.3184 138.311C85.8071 137.883 85.654 138.888 86.1312 138.272C85.9808 138.136 86.0613 136.932 85.7371 137.531C85.8086 137.62 85.7921 137.804 85.6567 138.115C85.4971 138.039 85.1802 138.027 85.3184 138.311ZM85.0814 138.234C85.2146 137.869 85.3477 137.504 85.4813 137.14C83.4597 135.651 81.9644 135.737 79.627 134.609C80.9027 137.649 83.4336 135.815 85.0814 138.234ZM79.1516 134.455C78.8218 133.819 76.595 134.329 77.3328 133.248C77.3489 132.912 76.0288 133.784 76.0826 133.757C76.9014 134.203 78.4384 135.401 79.1516 134.455ZM75.3707 133.523C75.5035 133.146 75.6462 132.942 75.7893 132.741C75.6195 132.482 75.6264 131.632 75.1957 132.548C75.408 132.707 75.3118 133.199 75.3707 133.523ZM96.3105 139.154C95.8151 138.41 94.5699 138.471 94.6724 137.087C94.8717 137.17 95.0542 136.975 95.2282 136.658C94.422 137.453 95.373 135.406 94.7353 136.19C94.3957 137.001 92.8344 135.647 92.4175 136.348C93.0835 138.112 94.5998 139.626 96.3105 139.154ZM100.728 139.069C100.117 136.941 99.7363 139.414 98.216 137.941C98.2423 139.199 100.201 138.97 98.9588 140.635C100.066 139.302 101.435 142.387 102.621 141.527C102.573 140.915 101.977 140.889 102.29 139.888C102.3 140.245 102.801 140.166 103.103 139.846C102.193 139.77 101.605 138.291 100.728 139.069ZM103.121 140.159C103.427 140.078 103.777 140.753 104.052 140.158C103.677 139.885 103.594 139.414 103.121 140.159ZM150.886 150.592C152.642 150.742 152.605 151.561 154.173 151.056C153.567 150.436 151.935 149.134 150.886 150.592ZM160.071 152.375C159.696 152.169 159.032 152.272 158.984 151.713C158.905 152.795 159.496 153.082 160.071 152.375ZM105.657 133.948C104.44 133.778 104.132 132.218 103.302 133.482C103.875 133.018 104.968 135.079 105.657 133.948ZM94.641 128.811C94.741 128.537 94.8414 128.263 94.9409 127.99C94.8275 127.606 93.9519 127.796 94.054 126.78C93.3137 128.448 92.6113 126.24 91.5978 126.59C91.8664 128.421 93.6886 127.711 94.641 128.811ZM90.9234 126.98C90.6481 124.862 88.5944 126.284 88.4175 124.016C90.4434 124.474 91.8886 126.203 94.491 126.312C94.3743 125.993 93.9327 126.024 93.9786 125.532C95.1678 125.219 95.3322 126.212 95.5971 127.287C95.7844 126.524 96.0356 126.838 96.2528 126.582C96.3566 127.321 96.597 128.439 97.3592 127.557C94.0487 123.358 86.0818 120.893 82.3495 119.888C84.5293 121.556 86.507 121.107 88.0047 122.964C86.7823 123.973 86.4506 121.002 84.837 122.539C85.6093 122.468 86.3346 123.673 87.0107 123.864C87.218 123.053 88.1874 124.425 87.2232 125.463C88.3611 125.841 90.0506 126.313 90.9234 126.98ZM83.7492 121.877C82.644 120.76 81.8006 120.953 80.6627 120.865C81.8233 121.749 82.6186 122.867 83.7492 121.877ZM73.3824 117.87C73.072 117.871 72.7686 117.983 72.4893 118.495C72.8472 118.674 73.3363 119.571 73.914 118.962C73.8194 118.366 73.072 118.47 73.1641 118.105C73.2411 118.113 73.3191 118.11 73.3824 117.87ZM71.6765 118.537C72.247 117.13 72.2289 118.539 72.4705 118.184C72.3113 118.052 72.6072 117.557 72.7704 117.363C71.6596 117.749 71.754 116.466 70.4709 117.836C70.2801 117.208 69.3013 117.428 69.5644 116.314C69.1679 116.793 69.4484 116.665 69.1653 117.407C69.8734 117.423 70.0237 118.039 70.3892 118.422C70.8871 116.958 71.3682 118.32 71.6765 118.537ZM68.3154 116.823C67.4286 116.859 67.6086 115.624 66.9707 115.772C67.2595 116.239 66.8788 117.421 67.3211 117.724C67.5166 116.177 67.681 117.768 68.3154 116.823ZM98.8277 126.813C99.6223 129.17 101.927 129.048 103.432 129.852C103.185 129.686 103.426 129.033 103.713 128.718C102.056 127.821 100.477 126.734 98.8277 126.813ZM76.6443 119.856C76.8767 119.863 76.9774 121.096 77.0193 120.287C76.9525 120.246 76.8941 120.198 77.0005 119.973C77.4523 119.987 77.6269 120.299 77.8503 120.557C78.2416 119.576 76.9262 119.565 76.6443 119.856ZM78.2876 114.271C78.2422 113.485 77.7066 114.433 77.3561 114.272C77.4119 114.121 77.3732 113.932 77.2378 114.233C77.3301 115.098 77.7378 114.696 78.2876 114.271ZM103.741 167.917C103.141 168.591 103.488 168.216 102.986 168.895C100.043 167.122 98.2421 166.586 95.4308 165.196C95.5346 164.981 95.6495 164.964 95.7495 164.689C95.3697 164.741 94.3395 165.534 94.4251 163.947C94.2412 164.111 94.0633 164.387 93.8873 164.691C93.7643 164.601 93.9699 164.159 94.0685 163.832C93.9537 163.852 93.8503 164.067 93.7319 164.027C93.295 164.192 94.0137 164.408 93.4316 164.847C92.678 164.351 93.2354 163.254 92.1252 164.42C91.6137 164.062 91.5378 162.962 90.8008 163.681C90.6099 163.447 90.7053 163.171 90.982 162.82C90.0829 163.609 89.8153 162.656 88.9824 162.472C89.1942 162.132 89.4225 162.046 89.6573 162.081C89.9053 161.109 88.9848 162.049 89.1261 160.988C89.5894 160.835 89.9402 160.202 90.1567 160.715C90.0141 158.984 87.7166 158.794 86.8952 158.727C87.3002 158.508 87.2264 157.278 86.8761 158.415C86.7576 158.099 87.0476 157.345 86.8015 157.166C87.0672 156.466 87.4971 156.956 87.4384 156.15C87.0643 155.944 87.0259 157.324 86.4449 157.051C86.4715 157.519 86.8247 157.64 86.4207 158.571C86.255 158.404 86.118 158.712 85.9821 159.042C85.7273 158.322 86.8708 158.084 86.3645 157.635C85.8594 158.376 84.792 158.331 84.302 158.185C85.1759 159.475 86.5265 158.68 87.326 160.093C86.6348 161.674 86.1957 160.59 86.0392 159.978C85.7093 159.944 86.0299 160.502 85.6393 161.072C85.5689 160.856 84.7978 160.712 84.6899 160.761C84.502 159.98 85.3457 160.251 85.5647 159.822C85.336 159.676 84.5742 158.48 83.7396 160.449C83.7769 159.855 83.9655 159.099 83.6463 158.888C83.6096 159.149 83.5709 159.412 83.6834 159.513C83.1137 159.892 83.7514 158.149 84.2832 157.872C83.1625 156.594 80.2545 155.954 77.9348 154.875C76.8048 154.351 75.4121 153.994 74.5725 153.163C74.0485 152.643 71.825 152.116 70.5357 151.841C70.4058 151.704 70.6881 151.123 70.8165 150.709C69.4726 152.01 68.8649 150.01 67.0547 150.089C66.9329 149.999 67.1373 149.557 67.2363 149.23C67.0557 149.028 66.4179 149.905 66.8614 148.801C65.1025 150.092 63.9174 148.281 62.7434 148.066C62.5786 148.034 62.2759 148.519 62.3064 148.534C62.0646 148.414 62.0771 147.457 61.6561 147.403C61.1618 147.339 61.0166 147.169 60.5688 146.74C60.1647 146.354 59.3041 145.673 59.1066 145.65C58.9513 145.631 58.7739 146.261 58.5504 146.08C58.3712 145.933 58.5927 145.417 58.5048 145.195C58.4392 145.312 57.4621 145.072 56.9886 145.261C57.5034 144.214 55.1397 144.641 54.3391 143.783C54.6089 143.248 54.8914 143.364 54.8569 142.728C54.0383 142.911 53.524 144.305 53.333 142.534C52.3765 143.486 52.2796 142.75 51.3526 142.498C51.5521 141.956 51.8029 142.257 51.9891 141.482C51.4508 142.457 51.4461 141.065 50.8593 142.029C50.7693 141.945 50.8509 141.686 50.9475 141.557C49.9042 142.353 48.786 141.295 48.1089 140.824C48.5176 140.124 48.3945 139.821 48.7463 139.807C48.5425 139.34 47.826 138.797 48.5148 137.897C48.2229 138.155 48.0996 138.116 48.0402 137.74C47.8834 138.07 47.9061 138.209 47.9817 138.29C46.7863 137.344 44.9889 136.267 44.2842 135.286C43.9771 135.969 44.1135 135.407 43.491 135.638C43.6715 135.426 43.844 135.063 44.0097 134.583C43.6985 134.578 43.4659 135.855 43.1349 135.52C43.7331 133.583 41.8454 135.351 42.1291 134.273C41.9733 134.272 41.8464 134.74 41.7106 135.054C41.3794 134.434 41.1341 134.567 40.2854 134.588C41.6706 133.732 40.3226 133.93 39.7913 134.121C39.9473 133.494 40.1608 133.806 40.3291 133.378C40.3218 132.816 39.9159 132.362 39.5162 133.418C39.4432 131.908 38.7549 131.709 38.1795 130.531C39.1261 129.612 40.1573 129.759 41.5288 130.098C41.749 130.035 41.6092 129.733 41.8283 129.277C43.7537 129.205 45.1417 130.6 47.0961 129.777C44.9063 127.141 41.2447 127.312 38.8105 125.532C39.8666 125.052 40.2815 124.998 41.4657 125.177C41.6492 124.372 40.8545 124.614 40.8158 124.047C41.138 123.595 41.5134 124.035 41.8466 123.772C40.5484 122.317 38.7594 122.299 36.6849 121.164C36.9333 120.131 37.3098 121.227 37.5415 119.913C41.1487 121.557 45.0671 119.734 46.5263 122.244C46.2127 122.831 45.8217 122.131 45.4774 122.205C46.0334 123.726 47.5426 123.862 48.7389 124.192C52.084 125.113 55.4445 125.96 58.6746 126.832C58.7678 126.565 58.607 126.571 58.5363 126.481C62.3182 126.422 67.5655 128.097 70.5282 130.406C70.7458 130.15 70.9974 130.465 71.1835 129.703C71.6677 131.388 73.0708 130.799 74.2892 131.027C77.4066 131.606 80.1842 134.349 83.1134 134.527C82.2851 135.753 83.4355 134.744 83.9441 134.799C85.9779 135.02 88.5977 137.012 90.8678 137.678C90.6512 135.761 87.9519 136.634 87.193 134.638C87.3791 133.868 87.6809 135.017 87.8674 134.246C86.7478 131.611 84.0098 133.393 82.8883 130.779C82.6241 130.999 82.7739 131.245 82.3501 131.522C79.0241 131.091 74.6581 128.599 71.0155 126.892C70.584 126.689 69.9486 127.37 69.4084 127.286C64.8677 126.573 62.1511 122.503 57.9171 121.992C60.2851 121.86 61.6065 123.202 64.5288 123.545C64.6846 123.546 64.8112 123.078 64.947 122.762C66.4607 123.282 66.6736 124.293 67.8532 124.632C73.55 126.277 79.8836 129.162 86.6555 129.564C87.1799 129.493 87.0119 128.611 87.3928 128.274C88.1509 129.907 90.0347 128.735 90.3548 131.081C90.7652 130.941 90.3452 130.339 90.2986 130.144C91.735 129.659 92.0638 133.046 93.9354 132.559C94.1194 131.642 93.4679 131.621 93.485 130.881C93.519 130.645 94.2616 131.03 94.2162 131.427C95.0238 130.142 96.7598 131.642 97.6405 132.242C98.3115 130.979 99.7595 133.258 100.771 132.042C97.7974 130.346 93.4119 130.04 90.6047 127.488C90.3902 127.94 90.5082 128.036 90.6414 128.113C90.1626 128.409 89.8089 128.154 90.0111 127.294C89.5582 127.094 89.8951 127.726 89.4741 128.036C89.2199 127.664 89.1815 127.485 89.0796 127.295C87.7327 127.725 86.9209 126.34 86.0739 125.699C84.0965 124.597 86.6566 126.262 87.3053 124.877C85.1861 123.302 81.6991 123.2 79.8875 121.531C80.3306 120.122 80.3097 121.663 80.6427 120.555C79.9243 119.757 78.9204 119.971 78.2502 119.464C78.0832 120.419 79.0703 120.137 78.6002 121.417C77.6138 121.281 76.6784 120.491 75.989 120.56C76.7344 118.588 75.0023 118.703 74.4447 120.056C73.8519 120.303 74.4913 119.229 74.0515 119.314C73.8775 119.332 73.7324 119.818 73.8511 119.861C72.1464 119.652 68.197 118.647 66.6091 117.49C66.5153 117.258 66.602 116.832 66.7716 116.318C66.3387 116.437 66.5202 117.222 66.2713 117.685C65.4485 116.764 64.333 117.441 64.0967 116.362C64.3825 115.29 64.7853 116.197 65.1281 116.086C65.1195 115.458 64.7181 115.865 65.2906 114.915C62.3993 114.261 61.6967 114.004 59.2354 112.932C61.4318 111.676 62.7898 114.151 64.7215 113.198C65.5005 114.299 66.6094 113.671 67.4714 114.403C67.8012 114.439 67.4806 113.879 67.8713 113.309C68.3565 113.127 68.149 113.373 68.5837 113.544C68.934 112.835 68.531 112.934 68.527 112.606C68.8864 111.93 68.856 113.304 69.3393 112.566C69.1345 111.238 67.6564 113.39 66.9839 112.101C67.0838 111.556 66.6988 111.795 67.1647 111.243C66.5594 111.116 66.442 110.465 65.7212 110.463C65.2007 110.299 65.8735 109.985 66.0595 110.267C67.2304 110.444 68.9535 109.914 69.2639 111.317C70.0809 110.601 69.8371 111.786 70.4328 111.394C70.4017 111.864 70.1322 112.567 69.6951 112.684C71.3103 114.502 73.8969 114.366 76.0068 115.055C75.897 113.079 73.7191 114.558 73.3011 112.638C74.3745 112.346 75.1266 112.955 76.013 113.22C75.4692 114.06 76.5444 114.28 77.0004 114.156C77.2198 114.096 77.0816 113.79 77.2999 113.336C77.9094 114.048 78.6723 113.571 79.6744 114.113C79.6608 114.516 79.4155 115.168 79.6307 115.325C80.0482 113.422 79.9168 116.062 80.6805 115.361C79.1911 117.217 79.5064 113.976 78.3251 114.895C79.2617 116.434 80.182 117.751 81.8424 117.273C82.0906 116.564 81.44 116.818 81.9874 115.788C82.8749 116.081 83.1735 116.609 84.124 116.488C83.9515 116.847 83.7434 116.618 83.5483 116.607C84.03 118.523 85.8212 119.059 87.3418 119.685C87.7378 119.276 87.621 118.828 87.5039 118.514C87.8111 117.803 88.1998 118.464 88.5162 117.926C89.7594 121.438 94.0504 119.505 95.1162 123.148C95.2692 122.62 95.6694 122.802 96.0902 121.937C97.0321 122.163 97.5543 123.214 98.7834 122.207C99.1926 123.769 101.761 122.317 101.427 125.521C103.295 123.744 104.253 124.394 105.963 125.474C105.792 125.86 105.573 125.455 105.407 125.906C105.796 126.54 106.64 126.689 107.225 127.114C107.361 126.248 106.58 126.365 106.119 126.139C106.715 124.752 106.793 126.1 107.506 125.979C107.298 128.819 109.684 128.184 111.025 128.357C111.066 127.814 110.484 127.94 110.393 127.539C111.863 126.798 112.49 128.722 113.699 128.314C113.565 128.68 113.433 129.043 113.3 129.408C115.368 130.804 117.217 130.79 119.672 130.883C119.997 130.816 119.685 130.409 120.092 130.101C122.804 130.85 125.589 132.438 128.583 131.963C128.557 131.672 127.358 131.909 127.915 130.519C128.228 131.093 129.406 131.373 129.551 132.587C132.475 133.172 135.977 133.371 139.075 134.174C141.638 134.837 144.416 134.843 146.954 135.529C151.96 136.88 155.786 139.07 160.07 140.741C161.317 141.227 162.369 141.943 162.932 143.821C161.721 146.211 160.873 145.306 159.439 145.739C159.571 146.319 159.419 147.202 159.89 147.418C159.794 147.574 159.21 148.373 159.49 148.512C158.158 150.948 156.969 149.547 155.798 150.975C156.059 152.432 157.543 151.315 158.666 152.221C158.759 151.29 158.303 150.948 157.758 150.7C159.133 150.01 160.672 151.274 161.496 152.841C160.588 153.91 160.556 152.472 159.416 153.078C159.218 154.443 158.432 154.587 158.178 155.736C158.314 156.255 158.802 156.398 159.165 156.671C158.756 156.957 158.398 158.103 157.972 158.117C157.599 159.072 157.822 159.386 157.847 159.914C158.032 160.122 158.688 158.785 158.466 158.586C159.124 157.543 159.34 159.835 159.853 158.426C159.666 159.672 158.85 159.399 158.422 159.796C158.383 160.614 158.831 160.909 158.991 161.513C158.433 162.154 158.039 161.214 157.685 161.085C157.465 161.147 157.603 161.451 157.385 161.906C157.967 162.659 159.245 163.479 159.816 163.62C159.392 164.836 159.528 163.38 159.141 164.012C159.437 165.274 158.667 167.474 157.873 170.026C157.028 170.305 156.752 170.63 156.011 170.028C155.788 170.23 155.795 170.642 155.374 171.044C155.173 172.307 156.232 172.745 156.755 172.721C156.009 173.82 156.42 174.909 156.686 175.454C156.392 176.356 156.028 176.122 155.711 176.666C155.002 179.938 153.128 179.978 151.931 181.551C149.434 181.398 147.51 179.112 145.027 178.985C144.242 178.943 143.257 179.462 142.49 179.378C140.744 179.191 139.145 178.419 137.403 178.02C132.125 176.807 127.418 174.684 121.788 173.826C120.006 173.554 117.753 173.423 115.789 172.78C112.513 171.708 108.859 171.344 106.61 169.162C106.386 169.364 106.397 169.832 105.953 169.867C105.667 168.407 103.448 170.617 103.741 167.917Z" fill="#FF7B29" fill-opacity="0.3"/>
</svg>
