<svg width="24" height="24" viewBox="0 0 24 24" fill="none" xmlns="http://www.w3.org/2000/svg">
<path d="M15.3722 12.9924C15.3722 13.0484 15.4637 13.0936 15.5756 13.0936C15.6872 13.0936 15.8573 13.1591 15.9535 13.2386C16.0499 13.3181 16.1793 13.3181 16.2409 13.2386C16.3027 13.1593 16.2772 13.0936 16.185 13.0936C16.0928 13.0936 15.9633 13.0484 15.8976 12.9924C15.8321 12.937 15.6872 12.8913 15.5756 12.8913C15.4635 12.8913 15.3722 12.9373 15.3722 12.9924Z" fill="#FF7B29"/>
<path d="M14.6583 12.7904C14.7278 12.8457 14.797 12.9305 14.8125 12.9781C14.8125 12.9781 14.8125 12.9781 14.9524 12.8916C15.0928 12.8049 15.0928 12.8049 15.0928 12.8049C15.2468 12.7358 15.4991 12.5669 15.6533 12.4289C15.6533 12.4289 15.6533 12.4289 15.3732 12.4289C15.2049 12.4289 15.2049 12.4289 15.2049 12.4289C14.9737 12.4289 14.728 12.4289 14.6585 12.4289C14.5892 12.4289 14.5326 12.4871 14.5326 12.5587C14.5324 12.6304 14.589 12.7346 14.6583 12.7904Z" fill="#FF7B29"/>
<path d="M8.42023 17.4685C8.42023 17.4617 8.42023 17.4617 8.42023 17.4617C8.50822 17.3264 8.58006 17.1505 8.58006 17.0707C8.58006 16.9915 8.56626 16.8839 8.54894 16.832C8.53209 16.7803 8.43918 16.8098 8.34324 16.8975C8.24682 16.9849 8.1366 17.076 8.09822 17.1C8.0596 17.1239 8.02824 17.222 8.02824 17.3172C8.02824 17.3172 8.02824 17.3172 8.02824 17.375C8.02824 17.4327 8.12606 17.5772 8.15391 17.6352C8.18223 17.693 8.26577 17.8087 8.27303 17.8955C8.28005 17.9822 8.28005 17.9822 8.28005 17.9822C8.33387 18.1016 8.4345 18.1995 8.50307 18.1995C8.50307 18.1995 8.50307 18.1995 8.51781 18.1995C8.53256 18.1995 8.54636 18.04 8.57445 17.9967C8.6023 17.953 8.60229 17.953 8.60229 17.953C8.55619 17.8097 8.47382 17.5951 8.42023 17.4752C8.42023 17.4755 8.42023 17.4755 8.42023 17.4685Z" fill="#FF7B29"/>
<path d="M8.98257 17.1288C8.9126 17.1433 8.9126 17.1433 8.9126 17.1433C8.8431 17.1832 8.76119 17.31 8.7303 17.4253C8.69964 17.541 8.68069 17.7005 8.68818 17.78C8.68818 17.78 8.68818 17.78 8.78646 17.722C8.88428 17.6643 8.98257 17.6355 8.98257 17.5485C8.98257 17.4618 9.05255 17.1143 8.98257 17.1288Z" fill="#FF7B29"/>
<path d="M3.32215 9.46384C3.52996 9.18329 3.72935 8.92521 3.76515 8.89017C3.80049 8.85537 3.91001 8.69057 4.00877 8.52287C4.00877 8.52287 4.00877 8.52287 4.03661 8.46487C4.0647 8.40712 4.0647 8.40712 4.0647 8.40712C3.9877 8.29644 3.90322 8.20462 3.87701 8.20462C3.8508 8.20462 3.79651 8.19858 3.75626 8.19036C3.75626 8.19036 3.75626 8.19036 3.72818 8.20462C3.70009 8.21936 3.67225 8.23362 3.6444 8.30635C3.61608 8.37836 3.58823 8.3931 3.57419 8.50861C3.56015 8.62436 3.36428 8.95711 3.35 9.01486C3.33573 9.0731 3.33573 9.0731 3.33573 9.0731C3.26669 9.31136 3.15927 9.65668 3.09749 9.83984C3.09749 9.83984 3.09749 9.83984 3.20959 9.65184C3.32215 9.46384 3.32215 9.46384 3.32215 9.46384Z" fill="#FF7B29"/>
<path fill-rule="evenodd" clip-rule="evenodd" d="M9.92922 3.50159C4.44546 3.50159 0 8.0903 0 13.7508C0 19.4112 4.44546 24 9.92922 24C15.413 24 19.8584 19.4112 19.8584 13.7508C19.8584 13.7188 19.8583 13.6868 19.858 13.6549C19.8496 12.7013 19.7149 11.7787 19.4705 10.9042C19.4154 10.7072 19.2073 10.5987 19.0117 10.6587C18.8129 10.7197 18.7031 10.9312 18.7587 11.1315C18.9405 11.7856 19.0559 12.4685 19.0969 13.1722C18.987 13.1235 18.987 13.1237 18.987 13.1237C18.987 13.1237 19.0148 13.1814 18.987 13.2974C18.969 13.3722 18.9156 13.314 18.9104 13.3182C18.9076 13.3205 18.9193 13.3415 18.9591 13.4131C19.0241 13.5305 19.0324 13.5021 19.039 13.5025C19.0437 13.5029 19.0475 13.5184 19.0712 13.6157L19.1137 13.7916C19.1134 13.8582 19.1125 13.9247 19.1109 13.991C19.1073 13.9917 19.1033 13.9921 19.099 13.9921C19.015 13.9921 18.9102 13.6737 18.9102 13.6737C18.9102 13.6737 18.7628 13.3263 18.6785 13.2686L18.5945 13.2109C18.5945 13.2109 18.4824 13.0952 18.4546 12.9795C18.4428 12.9304 18.4661 12.8969 18.4863 12.8681C18.5137 12.8288 18.5352 12.798 18.4546 12.7481C18.3846 12.7048 18.3986 12.7265 18.4056 12.7373C18.4127 12.7482 18.4127 12.7482 18.3146 12.6616C18.1866 12.5485 18.0945 12.5214 18.0226 12.5003C17.984 12.489 17.9513 12.4794 17.9219 12.4591C17.8857 12.4342 17.8599 12.4627 17.8356 12.4896C17.8034 12.5253 17.7737 12.5581 17.7258 12.4591C17.6727 12.3496 17.7538 12.3784 17.7571 12.3708C17.7591 12.3664 17.7346 12.3496 17.6418 12.2857C17.3898 12.1115 17.2496 12.0248 17.2496 12.0248C17.2496 12.0248 17.2217 12.1985 17.053 12.0248C16.8852 11.8516 16.6891 11.8226 16.6891 11.8226C16.6891 11.8226 16.661 11.7354 16.5209 11.62C16.4373 11.5511 16.4532 11.5846 16.4502 11.5865C16.4481 11.5878 16.4373 11.5745 16.3805 11.5043L16.3804 11.5043L16.2403 11.3311L15.9882 11.1574H15.8761L15.7919 11.0127L15.5677 10.7238V10.5209C15.5677 10.5209 15.7081 10.7238 15.7081 10.5209C15.7081 10.4115 15.6999 10.4119 15.6968 10.408C15.6942 10.4047 15.6952 10.3983 15.7081 10.3184L15.736 10.145L15.5677 9.91309V9.50824C15.5677 9.50824 15.3997 9.30581 15.3157 9.24832C15.2738 9.21945 15.3088 9.25556 15.3263 9.27362C15.3439 9.29168 15.3439 9.29168 15.2319 9.19059L15.0077 8.98792L14.6992 8.69853V8.58282C14.6992 8.58282 14.5034 8.72751 14.4194 8.58282C14.3353 8.43788 14.2232 8.29343 14.2232 8.29343V8.17772C14.2232 8.17772 14.1109 8.40914 14.055 8.17772C13.9988 7.94655 14.055 7.83084 14.055 7.83084C14.055 7.83084 13.8865 7.68615 13.8586 7.59943C13.8462 7.56086 13.8558 7.5223 13.8655 7.48372C13.8776 7.43554 13.8897 7.38732 13.8586 7.33902C13.8027 7.2523 13.7185 6.87595 13.7185 6.87595L13.4945 6.41336C13.4945 6.41336 13.5502 6.24016 13.4945 6.15344C13.4383 6.06672 13.3541 5.89304 13.3541 5.89304C13.3541 5.89304 13.5502 5.7196 13.3541 5.51693C13.2436 5.40288 13.2309 5.41719 13.2208 5.41539C13.213 5.414 13.2069 5.40288 13.1578 5.31435L13.1578 5.31426C13.0457 5.11159 12.9616 4.90916 12.9616 4.90916L12.8304 4.75296C13.4847 4.97764 14.1063 5.27624 14.6859 5.63916C14.8656 5.75167 15.1043 5.70653 15.2223 5.53041C15.3384 5.35723 15.294 5.12225 15.1179 5.01064C13.608 4.05351 11.831 3.50159 9.92922 3.50159ZM8.5611 23.1268C7.2274 22.9212 5.98739 22.4196 4.90582 21.6889C4.93757 21.6229 4.90926 21.5393 4.88261 21.4607C4.85939 21.3922 4.83743 21.3274 4.85755 21.2812C4.90833 21.1655 4.85755 20.9923 4.85755 20.9923C4.85755 20.9923 4.47095 20.6741 4.34364 20.6164C4.28443 20.5896 4.20416 20.4927 4.11898 20.3799C4.12904 20.3649 4.13489 20.356 4.13489 20.356C4.13489 20.356 4.15993 20.327 4.34364 20.2403C4.52735 20.1536 4.85755 19.9801 4.85755 19.9801C4.85755 19.9801 5.19945 19.8642 5.22753 19.9801C5.25561 20.0958 5.50765 20.1536 5.50765 20.1536C5.50765 20.1536 5.61975 20.2693 5.75969 20.3273C5.9001 20.3852 6.06813 20.5299 6.06813 20.5299C6.06813 20.5299 6.32017 20.6167 6.4325 20.5009C6.47288 20.4593 6.54231 20.4213 6.61725 20.3803C6.75035 20.3075 6.90079 20.2252 6.93658 20.0958C6.96577 19.9906 7.00256 19.8853 7.03506 19.7922C7.06509 19.7062 7.09147 19.6306 7.10484 19.5753C7.13315 19.4596 7.46921 19.0257 7.5813 18.9103C7.6934 18.7946 7.83334 18.5629 7.74956 18.4472C7.66531 18.3315 7.44136 18.0421 7.35711 18.0998L7.2731 18.1578L6.88065 17.8687C6.88065 17.8687 6.55793 18.582 6.57923 18.5868C6.60076 18.5919 6.70537 18.9972 6.56893 19.0837C6.50462 19.1246 6.45196 19.2427 6.40542 19.347C6.35324 19.4639 6.30877 19.5636 6.26424 19.5178C6.17999 19.4311 6.37633 18.7948 6.37633 18.7948L5.89987 18.5871C5.89987 18.5871 5.56382 18.7559 5.70376 18.5871C5.76764 18.5102 5.85493 18.4322 5.93361 18.3619C6.0273 18.2781 6.1088 18.2053 6.12406 18.1583C6.15214 18.0716 6.579 17.5798 6.579 17.5798H6.93634C6.93634 17.5798 7.24478 17.6955 7.44089 17.5798C7.637 17.464 8.02968 17.0592 8.02968 17.0592V16.6541C8.02968 16.6541 8.30957 16.8278 8.36574 16.6541C8.4219 16.4804 8.36574 16.2647 8.36574 16.2647L8.25364 16.0181C8.25364 16.0181 8.3084 15.9089 8.51925 15.8767C8.61594 15.8619 8.68013 15.8973 8.72667 15.923C8.78151 15.9533 8.81184 15.97 8.84197 15.8751C8.89813 15.6997 8.84197 15.4393 8.84197 15.4393L8.86701 15.1083C8.86701 15.1083 8.72987 15.5581 8.75795 15.1083C8.77498 14.8356 8.69915 14.8665 8.68688 14.8492C8.67891 14.838 8.69771 14.8065 8.78603 14.6586C8.89801 14.4706 8.89801 14.4489 8.89801 14.4381C8.89801 14.4273 8.89801 14.4273 9.00999 14.2827C9.13751 14.1182 9.1925 14.009 9.24717 13.9004C9.28862 13.8181 9.32989 13.7361 9.40244 13.6307C9.48392 13.5122 9.53815 13.3901 9.58372 13.2875C9.6324 13.1779 9.67121 13.0906 9.72282 13.0534C9.78157 13.0106 9.76581 12.973 9.74604 12.9257C9.73218 12.8926 9.71636 12.8548 9.72282 12.8072C9.73849 12.6915 9.72282 12.3446 9.72282 12.3446C9.72282 12.3446 9.51454 11.9106 9.45837 11.8238C9.43933 11.7941 9.42351 11.7645 9.4065 11.7326C9.37355 11.6709 9.33611 11.6007 9.26203 11.5055L9.15017 11.3608C9.15017 11.3608 8.8979 11.4475 8.81365 11.3608C8.7294 11.274 8.72964 11.274 8.72964 11.274H8.33718C8.30816 11.274 8.28243 11.2671 8.2577 11.2605C8.21105 11.2479 8.16799 11.2363 8.11323 11.274C8.02945 11.3323 7.80503 11.4187 7.80503 11.4187L7.4685 11.2489L7.18838 11.1296C7.14497 11.0103 7.16142 10.8753 7.17586 10.7568C7.18938 10.646 7.20114 10.5495 7.16053 10.4936C7.15114 10.4806 7.14033 10.4655 7.12844 10.4489C7.034 10.3167 6.87076 10.0882 6.79593 10.0882C6.71215 10.0882 6.57853 9.97252 6.57853 9.97252V9.42369L6.71192 9.10556L6.73977 8.93139C6.73977 8.93139 6.7957 8.64249 6.73977 8.46856C6.7202 8.40764 6.70367 8.31816 6.68627 8.22396C6.65412 8.04998 6.619 7.85989 6.5563 7.80378C6.45965 7.71706 6.40395 7.42767 6.40395 7.42767L6.17952 6.93562C6.17952 6.93562 5.67545 7.1093 5.50695 7.16703C5.33892 7.22476 5.19875 7.36994 5.08665 7.65909C5.03961 7.78033 5.01033 7.90671 4.98432 8.01898C4.94836 8.17425 4.91864 8.30252 4.85684 8.35285C4.7506 8.43957 4.61042 8.58451 4.49833 8.7292C4.38623 8.8739 4.13419 9.22078 4.10611 9.33697C4.07803 9.45244 4.16204 10.1757 4.16204 10.1757C4.16204 10.1757 4.21797 10.3781 4.10611 10.4938C3.99401 10.6095 3.62965 11.0144 3.57372 11.1298C3.54736 11.1845 3.45247 11.3161 3.35658 11.4491C3.24895 11.5983 3.14006 11.7493 3.12533 11.7953C3.09725 11.8821 3.04155 12.2874 3.12533 12.2297C3.20935 12.1712 3.54563 11.998 3.54563 11.998C3.54563 11.998 3.79791 12.3744 3.68604 12.3454C3.57395 12.3161 3.12533 12.4123 2.87306 12.5956C2.62102 12.779 2.28473 13.1838 2.28473 13.1838V13.6314C2.28473 13.6314 2.42491 13.7336 2.50893 13.7624C2.5927 13.7914 2.84498 13.8203 2.84498 13.8203L3.0694 14.023C3.0694 14.023 3.62988 14.3989 3.43377 14.3701C3.23766 14.3414 2.48131 14.023 2.48131 14.023C2.48131 14.023 2.00461 13.9943 1.9206 14.023C1.83659 14.052 1.36012 13.7025 1.27611 13.6314C1.21326 13.578 1.0721 13.3704 0.958032 13.2026L0.957926 13.2025C0.919555 13.146 0.884256 13.0941 0.856044 13.0541C0.833479 13.022 0.806363 12.9843 0.777443 12.9445C1.17386 8.08593 5.11986 4.27028 9.92922 4.27028C10.7037 4.27028 11.4558 4.36922 12.1742 4.55553L12.2895 4.7937C12.2895 4.7937 12.2336 4.96714 12.3176 5.05386L12.4016 5.14058L12.4854 5.28551V5.4877C12.4854 5.4877 12.3733 5.63264 12.4854 5.69037C12.5591 5.72848 12.5844 5.66649 12.593 5.66886C12.5975 5.6701 12.5975 5.68883 12.5975 5.74834V5.92203C12.5975 5.92203 12.4573 6.03749 12.4014 6.12421C12.3658 6.17921 12.3866 6.11802 12.3852 6.11745C12.3843 6.11712 12.3761 6.13696 12.3452 6.21093C12.2615 6.41336 12.2051 6.67376 12.2051 6.67376L12.009 6.8472V7.22331C12.009 7.22331 12.0373 7.30979 12.009 7.42623C11.9811 7.54193 12.009 7.71537 12.009 7.71537C12.009 7.71537 11.9252 7.77287 11.8407 7.83108C11.7569 7.88881 11.5327 8.09124 11.5327 8.09124C11.5327 8.09124 11.6729 8.17772 11.5327 8.26468C11.3923 8.3514 11.3083 8.43836 11.3366 8.55407C11.3544 8.62805 11.3379 8.53634 11.3383 8.53626C11.3386 8.53621 11.3442 8.56508 11.3642 8.66851L11.3645 8.66978C11.3865 8.78372 11.4042 8.84827 11.4176 8.89702C11.4382 8.9721 11.4485 9.00974 11.4485 9.13261C11.4485 9.25826 11.4915 9.23951 11.4976 9.24825C11.5013 9.25362 11.4912 9.26939 11.4485 9.33552C11.3364 9.50872 11.1684 9.84159 11.1684 9.84159C11.1684 9.84159 11.3645 10.058 11.4485 10.0873C11.4908 10.1018 11.5332 10.1237 11.5828 10.1494C11.6316 10.1747 11.6873 10.2036 11.7567 10.2324C11.8969 10.2899 12.2888 10.4346 12.2888 10.4346C12.2888 10.4346 12.485 10.5213 12.569 10.5503C12.6532 10.5793 12.9333 10.9844 12.9333 10.9844C12.9333 10.9844 12.9614 10.9844 13.2139 11.0711C13.466 11.1579 13.5219 11.1868 13.6061 11.2733C13.6902 11.36 13.9141 11.5627 13.9141 11.5627L13.97 11.7072C13.97 11.7072 14.0543 11.6207 14.3066 11.6494C14.5586 11.6784 14.7828 11.8811 14.7828 11.8811C14.7828 11.8811 14.923 11.8811 15.0353 11.8234C15.1474 11.7656 15.3433 11.6207 15.3433 11.6207L15.5394 11.563L15.9037 11.5917L16.156 11.7362L16.296 12.0548C16.296 12.0548 16.324 12.1992 16.4081 12.2574C16.4918 12.3149 16.7163 12.4886 16.7163 12.4886L16.6042 12.8357C16.6042 12.8357 16.7163 12.9804 16.8281 12.9222C16.9402 12.8647 17.1082 12.6623 17.1082 12.6623C17.1082 12.6623 17.1923 12.6046 17.2765 12.6333C17.3605 12.6623 17.5009 12.72 17.6409 12.8647C17.781 13.0092 17.8091 13.1539 17.8091 13.2406C17.8091 13.3273 17.6409 13.7034 17.6409 13.7034L17.1646 14.0508H16.8845L16.5761 14.1955L16.2681 13.7901L16.0158 13.4723C16.0158 13.4723 15.7079 13.6747 15.7776 13.7612C15.8478 13.8484 15.9599 14.0218 15.9599 14.0218C15.9599 14.0218 15.8197 14.2532 15.7776 14.3399C15.757 14.3824 15.7331 14.4109 15.7009 14.4494C15.6673 14.4895 15.6247 14.5403 15.5675 14.6288C15.4554 14.8025 15.3994 14.8892 15.3435 14.976C15.2873 15.0629 15.0634 15.4678 15.0634 15.4678L14.839 15.6417L14.6428 15.9019L14.5029 16.0463H14.2787L13.886 16.249H13.634L13.8582 16.5379L13.9984 16.7118C13.8582 16.8568 13.4662 16.943 13.4662 16.943C13.4662 16.943 13.0737 17.1747 13.1016 17.0879C13.1294 17.0012 13.4381 16.5959 13.4381 16.5959L13.2142 16.4224C13.2142 16.4224 12.9616 16.3647 12.9057 16.4512C12.8496 16.5379 12.8217 16.7406 12.8217 16.7406L12.9057 17.107V17.522C12.9057 17.6665 12.9616 18.0423 13.0459 17.9846C13.1297 17.9266 13.2144 18.2445 13.2144 18.2445V18.6499L13.5224 18.3607C13.5224 18.3607 13.7463 18.3897 13.7185 18.4764C13.6906 18.5631 13.5502 18.6501 13.5502 18.6501L13.8584 18.9108C13.8584 18.9108 14.1947 19.1419 14.2509 19.0554C14.3068 18.9687 14.391 18.7373 14.391 18.7373L14.5312 18.4189V18.2163L14.6433 17.9271L14.9798 17.58L15.1481 17.2331C15.1481 17.2331 15.2038 17.6667 15.2038 17.7534C15.2038 17.8402 15.5682 18.187 15.5682 18.187L15.6522 18.5344C15.6522 18.5344 15.5401 18.7658 15.5401 18.8525C15.5401 18.939 15.3999 19.1127 15.2878 19.2284C15.1757 19.3441 14.8956 19.5758 14.8116 19.6333C14.7276 19.691 14.5315 19.8069 14.5315 19.8069L14.5871 19.3154L14.2232 19.3731L14.2792 19.6333L13.9707 19.8069L13.8027 20.27C13.8027 20.27 13.6345 20.6749 13.5504 20.6174C13.4667 20.5594 13.2703 20.2988 13.2703 20.2988L13.5788 19.6627H13.8306L13.9146 19.4023C13.9146 19.4023 13.7744 19.3733 13.6623 19.2866C13.5502 19.1999 13.3543 18.9687 13.3543 18.9687L13.0178 19.2286V19.4601H12.7658L12.5975 19.8362L12.6537 20.0966C12.6537 20.0966 12.6537 20.1833 12.6256 20.2988L12.5975 20.4147L12.7096 20.6225V21.1377L12.8779 21.4554H13.4098L14.2789 21.8897H14.5031L14.5785 21.9286C14.0396 22.2557 13.4656 22.5277 12.8636 22.7371C12.8417 22.5769 12.7963 22.4138 12.7445 22.3238C12.6712 22.1965 12.5423 22.0791 12.4571 22.0634L12.345 22.0926C12.2329 22.1211 12.0087 22.4105 11.953 22.497C11.8969 22.5837 11.5044 22.8151 11.3923 22.8731L11.3418 22.8994C11.2711 22.8994 11.2007 22.9028 11.1857 22.9064L11.1684 22.9018L11.1066 22.8866C11.1655 22.8931 11.2589 22.8105 11.3151 22.7016L11.5046 22.5552L11.7288 22.3815C11.7906 22.2153 11.7906 21.9812 11.7288 21.8609L11.5608 21.5715C11.5456 21.4918 11.533 21.4008 11.533 21.3686V21.2819C11.533 21.2386 11.5399 21.1518 11.5469 21.0651L11.5469 21.0649C11.5473 21.0595 11.5478 21.0541 11.5482 21.0487C11.5547 20.9676 11.5608 20.8889 11.5608 20.8483C11.5608 20.805 11.6029 20.6675 11.6449 20.5301C11.687 20.3926 11.7291 20.2552 11.7291 20.2118C11.7291 20.1253 11.7782 19.8922 11.8384 19.6067L11.8388 19.6045L12.0083 19.4888C12.1257 19.4086 12.0931 19.3423 12.0532 19.261C12.0356 19.225 12.0164 19.1861 12.0083 19.1417C11.9974 19.0832 12.0274 19.0531 12.0539 19.0264C12.0928 18.9873 12.1242 18.9557 12.0083 18.8525C11.8933 18.7501 11.8753 18.7685 11.8627 18.7652C11.854 18.7629 11.8478 18.7501 11.8133 18.6789C11.7629 18.5746 11.7629 18.5746 11.7346 18.6038C11.7158 18.6233 11.6844 18.6557 11.6172 18.6789L11.4595 18.733C11.2058 19.0564 11.0041 19.3158 11.0097 19.3125C11.0057 19.3154 11.002 19.3183 10.9964 19.3229C10.9956 19.3236 10.9949 19.3242 10.9942 19.3248C10.9935 19.3254 10.9929 19.3259 10.9924 19.3265L10.986 19.3315L10.9781 19.3381L10.9727 19.3429L10.9272 19.378L10.9266 19.3784L10.8606 19.4311C10.6784 19.5755 10.6433 19.6117 10.6258 19.6298C10.6082 19.6479 10.6082 19.6479 10.4963 19.72C10.3642 19.8051 10.4068 19.8101 10.4072 19.8174C10.4075 19.8226 10.3871 19.8289 10.2719 19.8646L10.2718 19.8647L9.9917 19.9516C9.80683 20.0473 9.55456 20.2814 9.43123 20.4724L9.40314 20.5589C9.3955 20.5825 9.38582 20.5997 9.37746 20.6145C9.35508 20.6542 9.34216 20.6771 9.40314 20.7613C9.44503 20.8192 9.49412 20.7758 9.51866 20.7541C9.54321 20.7324 9.54321 20.7324 9.48692 20.8771C9.42774 21.0296 9.41416 21.1016 9.40453 21.1526C9.39592 21.1982 9.39048 21.2271 9.35845 21.2817C9.33283 21.3257 9.34458 21.3279 9.36218 21.3312C9.3909 21.3367 9.43518 21.3451 9.35845 21.5423L9.23488 21.8605C9.18855 21.9397 9.22646 22.0568 9.31913 22.1206L9.15087 22.2363C8.98337 22.3515 8.93879 22.4167 8.88506 22.4952L8.88432 22.4962C8.8305 22.576 8.84945 22.7062 8.92645 22.7854L8.7865 22.8721C8.7322 22.9056 8.70313 22.904 8.68303 22.9029C8.65116 22.901 8.64183 22.9005 8.59016 23.0436C8.5765 23.0817 8.5673 23.1082 8.5611 23.1268ZM4.03005 20.5239C3.97044 20.6239 3.89904 20.7522 3.85408 20.8612C4.08984 21.0759 4.33636 21.2784 4.59271 21.4677C4.48645 21.2651 4.30292 20.7604 4.30292 20.7604L4.03005 20.5239ZM6.56963 15.2772L6.74117 15.033C6.74117 15.033 6.93728 15.174 6.88135 15.2777C6.85908 15.3185 6.82368 15.334 6.79428 15.3469C6.74953 15.3665 6.71869 15.38 6.76925 15.4673C6.8535 15.612 7.10554 15.7854 7.10554 15.7854H7.32996C7.32996 15.7854 7.6941 15.9879 7.77811 15.7854C7.79778 15.738 7.81591 15.6873 7.83395 15.6367C7.89295 15.4715 7.95093 15.3091 8.05847 15.2774C8.19841 15.2361 8.70272 14.8305 8.45068 14.8888C8.19841 14.9467 8.05847 15.0624 8.05847 15.0624C7.73576 15.1456 7.5936 15.0959 7.50839 15.0661C7.50475 15.0649 7.5012 15.0636 7.49776 15.0624C7.47487 15.0545 7.42704 15.0445 7.36898 15.0323L7.36889 15.0323C7.21381 14.9996 6.98585 14.9517 6.9656 14.8888C6.93728 14.8018 6.56963 14.4837 6.56963 14.4837L6.26494 14.3392L5.95674 14.5414L5.7047 14.5124H5.20015C5.20015 14.5124 4.83578 14.6163 4.77985 14.7238C4.72369 14.8305 4.63968 15.1081 4.63968 15.1081H5.34033L5.73255 15.4671H5.92865L5.90081 15.1199L6.34919 15.2772H6.56963ZM5.228 16.2632C5.31201 16.1611 5.50812 16.0743 5.50812 16.0743L5.34033 15.8751C5.1159 15.8717 4.9198 15.8751 4.9198 15.8751L4.47141 15.8734L4.30315 16.0451C4.30315 16.0451 4.61183 16.1898 4.63968 16.2765C4.66776 16.3635 4.82198 16.6526 4.82198 16.6526L4.97596 16.2632C4.97596 16.2632 5.14422 16.3657 5.228 16.2632ZM4.30315 13.6293C4.35932 13.8182 4.4995 14.0208 4.4995 14.0208H4.77985C4.77985 14.0208 4.75177 13.3841 4.63968 13.2976C4.52781 13.2109 4.27531 12.9507 4.19129 12.806C4.10728 12.6613 3.85501 12.3434 3.85501 12.3434C3.85501 12.3434 3.79908 12.5649 3.85501 12.8444C3.88707 13.0046 4.01133 13.1769 4.12205 13.3304C4.20447 13.4447 4.27938 13.5485 4.30315 13.6293Z" fill="#FF7B29"/>
<path d="M22.6211 5.3292C22.9868 4.67523 23.0844 3.8972 22.8926 3.16628C22.7008 2.43536 22.2352 1.81141 21.5983 1.4317C20.9614 1.05199 20.2053 0.94762 19.4964 1.14155C18.7874 1.33548 18.1837 1.81182 17.8181 2.46579C16.7884 4.30733 17.4622 8.82908 17.4622 8.82908C17.4622 8.82908 21.5915 7.17074 22.6211 5.3292ZM18.9062 3.15396C19.3174 2.41866 20.2307 2.16883 20.9473 2.59605C21.2911 2.80106 21.5425 3.13792 21.6461 3.53255C21.7496 3.92717 21.6969 4.34723 21.4995 4.70031C21.3021 5.05338 20.9761 5.31056 20.5934 5.41526C20.2106 5.51997 19.8024 5.46362 19.4586 5.25861C19.1146 5.05357 18.8632 4.71664 18.7596 4.32194C18.656 3.92724 18.7088 3.50711 18.9062 3.15396Z" fill="#FF7B29"/>
</svg>
