<svg width="18" height="24" viewBox="0 0 18 24" fill="none" xmlns="http://www.w3.org/2000/svg">
<path fill-rule="evenodd" clip-rule="evenodd" d="M16.2622 0.516438C16.313 0.848719 16.086 1.15943 15.7554 1.21043L1.652 3.38545C1.56448 3.39895 1.48487 3.43392 1.41815 3.48453C1.46412 3.48043 1.51066 3.47833 1.55769 3.47833H16.4423C17.3026 3.47833 18 4.1791 18 5.04355V22.4348C18 23.2992 17.3026 24 16.4423 24H1.55769C0.697402 24 0 23.2992 0 22.4348V6.26093V5.04355V3.90115C0 3.04253 0.623603 2.31241 1.46821 2.18216L15.5716 0.00713038C15.9022 -0.043868 16.2115 0.184157 16.2622 0.516438ZM5.16202 14.2307C5.23806 14.2307 5.30026 14.2606 5.30026 14.2977C5.30026 14.3342 5.23822 14.3645 5.16202 14.3645C5.08613 14.3645 4.98765 14.3343 4.94311 14.2977C4.89841 14.2606 4.81043 14.2307 4.74775 14.2307C4.68507 14.2307 4.66773 14.1872 4.70973 14.1348C4.75157 14.0822 4.83954 14.0822 4.90509 14.1348C4.97047 14.1874 5.08613 14.2307 5.16202 14.2307ZM5.78582 14.4315C5.73857 14.3949 5.69148 14.3388 5.68098 14.3073L5.58585 14.3645L5.49039 14.4219C5.38571 14.4676 5.21422 14.5794 5.10938 14.6706H5.2998H5.41419H5.78566C5.83275 14.6706 5.87125 14.6321 5.87125 14.5848C5.87141 14.5373 5.83291 14.4684 5.78582 14.4315ZM8.1759 7.68955C8.17438 7.68943 8.17218 7.68922 8.1694 7.68894C8.16034 7.68806 8.14512 7.68656 8.12695 7.68586C8.13602 7.68218 8.14573 7.68123 8.1575 7.6841L8.15917 7.68451C8.17269 7.6878 8.17846 7.68921 8.17839 7.68956C8.17838 7.68964 8.17805 7.68966 8.17744 7.68964C8.17705 7.68963 8.17653 7.6896 8.1759 7.68955ZM10.0243 11.3354V11.3399C9.96447 11.4294 9.91563 11.5458 9.91563 11.5985C9.91563 11.6509 9.92501 11.7221 9.93679 11.7564C9.94824 11.7907 10.0114 11.7712 10.0766 11.7131C10.1422 11.6553 10.2171 11.595 10.2432 11.5792C10.2694 11.5633 10.2908 11.4984 10.2908 11.4355V11.3972C10.2908 11.3703 10.2576 11.3147 10.2315 11.2708C10.2206 11.2526 10.2109 11.2364 10.2053 11.2251C10.2003 11.215 10.1926 11.2023 10.1839 11.188C10.1598 11.1479 10.128 11.0952 10.1244 11.0529L10.1196 10.9955C10.083 10.9166 10.0146 10.8518 9.96797 10.8518H9.95794C9.9533 10.8518 9.94878 10.8745 9.94338 10.9017L9.94338 10.9017C9.93713 10.9331 9.92968 10.9706 9.91944 10.9859L9.90051 11.0149C9.93185 11.1097 9.98785 11.2516 10.0243 11.3309V11.3354ZM9.6909 11.5507L9.64333 11.5603C9.60927 11.5672 9.62399 11.4513 9.6351 11.3638C9.6395 11.3291 9.64333 11.2989 9.64333 11.2826C9.64333 11.2372 9.68505 11.2157 9.73536 11.1899C9.74872 11.1831 9.76269 11.1759 9.77665 11.1679L9.84347 11.1295C9.84856 11.1821 9.83567 11.2876 9.81483 11.3642C9.79383 11.4404 9.73815 11.5243 9.6909 11.5507ZM13.491 16.6326C13.3497 16.8182 13.2142 16.9889 13.1898 17.0121C13.1658 17.0351 13.0914 17.1441 13.0242 17.2551L13.0053 17.2934L12.9862 17.3316C13.0385 17.4048 13.096 17.4656 13.1138 17.4656C13.1316 17.4656 13.1685 17.4696 13.1959 17.475L13.215 17.4656L13.2153 17.4654C13.2343 17.4557 13.2531 17.4461 13.2719 17.3983C13.2778 17.3837 13.2837 17.3726 13.2893 17.3621C13.3019 17.3384 13.313 17.3175 13.3197 17.2645C13.3257 17.216 13.3812 17.1102 13.4236 17.0292C13.4483 16.9822 13.4685 16.9436 13.4721 16.9296L13.4818 16.8911C13.5287 16.7334 13.6017 16.505 13.6437 16.3838L13.5675 16.5082L13.491 16.6326ZM2.25 13.7393C2.25 9.99931 5.27795 6.95658 9 6.95658C12.7219 6.95658 15.75 9.99915 15.75 13.7392C15.75 17.4792 12.7219 20.5218 9 20.5218C5.27795 20.5218 2.25 17.4793 2.25 13.7393ZM13.1545 8.79206C12.9717 8.63684 12.7804 8.49169 12.5813 8.35741C12.5693 8.43542 12.5599 8.54764 12.5961 8.58361C12.6533 8.64132 12.8248 9.10043 12.8248 9.10043L13.0103 9.25693C13.0892 9.12808 13.1985 8.92826 13.1463 8.8899C13.1225 8.87263 13.1295 8.83746 13.1545 8.79206ZM11.2839 12.729L11.1673 12.8906C11.1673 12.8906 11.034 12.7973 11.072 12.7287C11.0871 12.7017 11.1112 12.6914 11.1312 12.6829C11.1616 12.6699 11.1826 12.661 11.1482 12.6032C11.0909 12.5075 10.9196 12.3927 10.9196 12.3927H10.767C10.767 12.3927 10.5195 12.2587 10.4623 12.3927C10.449 12.4241 10.4367 12.4577 10.4244 12.4911C10.3843 12.6005 10.3449 12.7079 10.2718 12.7289C10.1766 12.7562 9.83379 13.0246 10.0051 12.9861C10.1766 12.9477 10.2718 12.8711 10.2718 12.8711C10.4911 12.8161 10.5878 12.849 10.6457 12.8687C10.6482 12.8695 10.6506 12.8704 10.6529 12.8711C10.6685 12.8764 10.701 12.883 10.7405 12.8911C10.846 12.9127 11.0009 12.9444 11.0147 12.9861C11.034 13.0436 11.2839 13.2542 11.2839 13.2542L11.491 13.3498L11.7005 13.216L11.8719 13.2351H12.2149C12.2149 13.2351 12.4626 13.1664 12.5006 13.0953C12.5388 13.0246 12.5959 12.8409 12.5959 12.8409H12.1196L11.8529 12.6034H11.7196L11.7386 12.8331L11.4337 12.729H11.2839ZM12.1959 12.0765C12.1388 12.1441 12.0055 12.2015 12.0055 12.2015L12.1196 12.3334C12.2721 12.3356 12.4055 12.3334 12.4055 12.3334L12.7103 12.3345L12.8247 12.2208C12.8247 12.2208 12.6148 12.1251 12.5959 12.0677C12.5768 12.0101 12.472 11.8188 12.472 11.8188L12.3673 12.0765C12.3673 12.0765 12.2529 12.0087 12.1959 12.0765ZM12.8247 13.8196C12.7865 13.6946 12.6912 13.5604 12.6912 13.5604H12.5006C12.5006 13.5604 12.5197 13.9818 12.5959 14.0391C12.6719 14.0964 12.8436 14.2686 12.9007 14.3644C12.9578 14.4601 13.1293 14.6705 13.1293 14.6705C13.1293 14.6705 13.1673 14.5239 13.1293 14.339C13.1075 14.2329 13.023 14.1189 12.9478 14.0173C12.8918 13.9417 12.8408 13.873 12.8247 13.8196ZM8.29062 10.0385L8.28696 10.0417C8.28579 10.0426 8.28386 10.0442 8.28162 10.046C8.27897 10.048 8.27743 10.0492 8.27726 10.0493C8.27688 10.0497 8.27646 10.0501 8.27603 10.0504C8.27555 10.0508 8.27505 10.0512 8.27455 10.0517C8.27205 10.0537 8.2701 10.0552 8.26828 10.0566C8.26733 10.0573 8.26642 10.058 8.26548 10.0586C8.2693 10.0564 8.13217 10.2281 7.95971 10.4421L7.85249 10.4779C7.80682 10.4933 7.78549 10.5147 7.77269 10.5276C7.75346 10.5469 7.75345 10.5469 7.71917 10.4779C7.69574 10.4308 7.69154 10.4223 7.68558 10.4208C7.67701 10.4186 7.66481 10.4308 7.58665 10.363C7.50781 10.2947 7.5292 10.2738 7.55564 10.2479C7.57365 10.2303 7.594 10.2104 7.58665 10.1716C7.58108 10.1422 7.56809 10.1165 7.55607 10.0926C7.52894 10.0388 7.50682 9.99499 7.58665 9.94192L7.70183 9.86534L7.70215 9.86385C7.74305 9.67494 7.77644 9.5207 7.77644 9.46346C7.77644 9.43477 7.80504 9.34381 7.83364 9.25285C7.86223 9.16189 7.89083 9.07093 7.89083 9.04224C7.89083 9.01355 7.89556 8.95616 7.9003 8.89877C7.90503 8.84138 7.90976 8.78399 7.90976 8.7553V8.69791C7.90976 8.67665 7.90117 8.61638 7.89083 8.56363L7.83372 8.46787L7.7766 8.37212C7.7346 8.29251 7.7346 8.13761 7.7766 8.02763L7.92901 7.91269L8.05787 7.81581C8.09605 7.74372 8.15953 7.68905 8.19962 7.69336L8.15762 7.68329L8.14585 7.68026C8.13567 7.68265 8.08778 7.68489 8.03974 7.68489L8.00537 7.70232C7.92917 7.74068 7.66238 7.89383 7.6242 7.95121C7.58633 8.00844 7.43392 8.19995 7.35772 8.21881L7.28152 8.23816C7.22361 8.22777 7.13595 8.15008 7.08616 8.06583C7.03652 7.98191 6.99563 7.80207 6.99563 7.66667C6.99563 7.6347 7.02888 7.59649 7.0887 7.55397C6.57118 7.7159 6.08119 7.94098 5.62842 8.22121L5.8906 8.3531H6.04301L6.63386 8.64052H6.99548L7.10986 8.85073V9.00387V9.19171L7.18606 9.32918L7.16697 9.40591C7.14788 9.48233 7.14788 9.53972 7.14788 9.53972L7.18606 9.71204L7.07168 9.96094H6.90034V10.1141L6.67157 10.2861C6.67157 10.2861 6.53841 10.1331 6.46221 10.0757C6.386 10.0183 6.29071 9.99915 6.29071 9.99915L6.34782 9.82682H6.519L6.72868 9.40591C6.72868 9.40591 6.59521 9.23343 6.53825 9.19506C6.48114 9.15702 6.36675 9.42494 6.36675 9.42494L6.25253 9.73138L6.04285 9.84632L6.08087 10.0185L5.83349 10.0567L5.87135 9.73138C5.87135 9.73138 5.73803 9.80812 5.68092 9.84632C5.62381 9.88437 5.43338 10.0377 5.35717 10.1142C5.28097 10.1908 5.18567 10.3058 5.18567 10.363C5.18567 10.4204 5.10947 10.5735 5.10947 10.5735L5.16658 10.8034C5.16658 10.8034 5.41429 11.0329 5.41429 11.0903C5.41429 11.1477 5.45215 11.4347 5.45215 11.4347L5.56653 11.2051L5.79531 10.9754L5.87151 10.784V10.6499L5.9668 10.4392C5.9668 10.4392 6.02408 10.2861 6.0621 10.2287C6.10028 10.1715 6.32889 10.3245 6.32889 10.3245L6.53841 10.4969C6.53841 10.4969 6.44296 10.5545 6.42403 10.6119C6.40509 10.6693 6.55734 10.6884 6.55734 10.6884L6.76671 10.4971V10.7653C6.76671 10.7653 6.82429 10.9757 6.88125 10.9373C6.93852 10.8991 6.97654 11.1479 6.97654 11.2435V11.5181L7.03366 11.7606C7.03366 11.7606 7.01472 11.8947 6.97654 11.9521C6.93852 12.0093 6.76686 11.9711 6.76686 11.9711L6.61462 11.8564C6.61462 11.8564 6.82445 11.5881 6.84339 11.5307C6.86232 11.4733 6.59552 11.6267 6.59552 11.6267C6.59552 11.6267 6.32905 11.6837 6.23376 11.7796L6.32905 11.8947L6.48146 12.0859H6.31012L6.04317 12.22H5.89076L5.79562 12.3156L5.66231 12.4878L5.50974 12.6029C5.50974 12.6029 5.35749 12.8708 5.31931 12.9284C5.28129 12.9858 5.24326 13.0431 5.16706 13.1581C5.12816 13.2167 5.0992 13.2503 5.07637 13.2769C5.05448 13.3023 5.03822 13.3212 5.0242 13.3493C4.99556 13.4067 4.90027 13.5598 4.90027 13.5598C4.90027 13.5598 4.97647 13.6746 5.0242 13.7323C5.07161 13.7895 4.86225 13.9235 4.86225 13.9235L4.69075 13.7131L4.48139 13.4449L4.27171 13.5406H4.08128L3.75753 13.7705C3.75753 13.7705 3.64315 14.0194 3.64315 14.0768C3.64315 14.1342 3.66224 14.2299 3.75753 14.3255C3.85267 14.4213 3.94812 14.4595 4.00523 14.4787C4.0625 14.4977 4.11962 14.4595 4.11962 14.4595C4.11962 14.4595 4.23384 14.3255 4.31005 14.2875C4.38609 14.249 4.4623 14.3447 4.4623 14.3447L4.38609 14.5744C4.38609 14.5744 4.53866 14.6894 4.59561 14.7274C4.65273 14.7659 4.67182 14.8615 4.67182 14.8615L4.76695 15.0724L4.93845 15.168L5.18615 15.187L5.31947 15.1488C5.31947 15.1488 5.45263 15.0529 5.52883 15.0147C5.60519 14.9765 5.70049 14.9765 5.70049 14.9765C5.70049 14.9765 5.8529 15.1106 6.02423 15.1298C6.19573 15.1488 6.25301 15.0916 6.25301 15.0916L6.29103 15.1872C6.29103 15.1872 6.44328 15.3213 6.50039 15.3787C6.55766 15.4359 6.59568 15.4551 6.76702 15.5125C6.93868 15.5699 6.95777 15.5699 6.95777 15.5699C6.95777 15.5699 7.1482 15.8379 7.20547 15.8571C7.26259 15.8763 7.3959 15.9337 7.3959 15.9337C7.3959 15.9337 7.66238 16.0294 7.75767 16.0675C7.80485 16.0866 7.84271 16.1057 7.87586 16.1224C7.90957 16.1394 7.9384 16.154 7.96719 16.1636C8.02431 16.1829 8.15762 16.3261 8.15762 16.3261C8.15762 16.3261 8.0434 16.5464 7.96719 16.661C7.93818 16.7048 7.93126 16.7152 7.93381 16.7188C7.93797 16.7246 7.96719 16.7122 7.96719 16.7953C7.96719 16.8766 7.97421 16.9015 7.98821 16.9512C7.9973 16.9835 8.00934 17.0262 8.02431 17.1016C8.03808 17.1707 8.04191 17.19 8.04208 17.19C8.04237 17.1899 8.03113 17.1292 8.04324 17.1782C8.06249 17.2547 8.00537 17.3123 7.90992 17.3697C7.81463 17.4272 7.90992 17.4845 7.90992 17.4845C7.90992 17.4845 7.75751 17.6184 7.70056 17.6566C7.64313 17.6952 7.58617 17.7332 7.58617 17.7332C7.58617 17.7332 7.6051 17.848 7.58617 17.9245C7.56692 18.0016 7.58617 18.0588 7.58617 18.0588V18.1928V18.3077L7.45286 18.4225C7.45286 18.4225 7.41452 18.5948 7.35756 18.7288C7.33661 18.7777 7.33099 18.7909 7.33041 18.7907C7.32942 18.7903 7.34359 18.7498 7.31938 18.7862C7.28136 18.8436 7.18606 18.92 7.18606 18.92V19.0349C7.18606 19.0743 7.18606 19.0867 7.18913 19.0875C7.19501 19.0891 7.21217 19.0481 7.26227 19.0733C7.33847 19.1115 7.26227 19.2074 7.26227 19.2074V19.3412L7.31922 19.4371L7.37633 19.4945C7.43345 19.5519 7.39543 19.6667 7.39543 19.6667L7.58586 20.0495H7.5472C8.01444 20.1582 8.50062 20.2153 9 20.2153C12.2922 20.2153 15.0155 17.7223 15.3994 14.5145C15.3978 14.5074 15.3968 14.5034 15.3968 14.5034C15.3968 14.5034 15.2443 14.3057 15.1681 14.2002C15.1489 14.1737 15.1248 14.1393 15.0987 14.1019C15.0212 13.9909 14.9252 13.8535 14.8825 13.8181C14.8254 13.7711 14.5015 13.5398 14.4444 13.559C14.3872 13.578 14.0632 13.559 14.0632 13.559C14.0632 13.559 13.549 13.3483 13.4157 13.3293C13.2824 13.3103 13.6634 13.559 13.6634 13.559L13.816 13.6931C13.816 13.6931 13.9874 13.7123 14.0444 13.7315C14.1015 13.7505 14.1968 13.8181 14.1968 13.8181V14.1144C14.1968 14.1144 13.9682 14.3823 13.7969 14.5036C13.6254 14.6249 13.3204 14.6886 13.2442 14.6692C13.1681 14.65 13.3396 14.8991 13.3396 14.8991C13.3396 14.8991 13.5682 14.7845 13.6254 14.7458C13.6823 14.7076 13.6445 14.9758 13.6254 15.0332C13.6153 15.0636 13.5413 15.1636 13.4682 15.2624C13.403 15.3504 13.3385 15.4375 13.3205 15.4736C13.2825 15.55 13.0348 15.818 12.9586 15.8945C12.8826 15.9711 12.9206 16.1051 12.9206 16.1051C12.9206 16.1051 12.9777 16.5837 12.9586 16.6601C12.9395 16.737 12.7682 16.9665 12.692 17.0623C12.6158 17.158 12.5205 17.2539 12.4483 17.3113C12.4063 17.3446 12.3861 17.4295 12.3616 17.5323C12.3439 17.6066 12.324 17.6902 12.292 17.7704C12.2158 17.9618 12.1205 18.0579 12.0063 18.0961C11.8918 18.1343 11.5491 18.2492 11.5491 18.2492L11.3965 17.9236C11.3965 17.9236 11.3587 17.7321 11.293 17.6747C11.2503 17.6376 11.2265 17.5118 11.2046 17.3966C11.1928 17.3343 11.1815 17.2751 11.1682 17.2348C11.1302 17.1197 11.1682 16.9285 11.1682 16.9285L11.1872 16.8132L11.2778 16.6027V16.2395C11.2778 16.2395 11.187 16.1629 11.13 16.1629C11.0792 16.1629 10.9682 16.0117 10.904 15.9243C10.8959 15.9132 10.8886 15.9032 10.8822 15.8947C10.8546 15.8577 10.8626 15.7938 10.8718 15.7205C10.8816 15.642 10.8928 15.5527 10.8633 15.4738L10.6728 15.3948L10.4441 15.2824C10.4441 15.2824 10.2915 15.3397 10.2345 15.3782C10.1973 15.4032 10.168 15.3955 10.1363 15.3872C10.1195 15.3828 10.102 15.3782 10.0823 15.3782H9.81549C9.81549 15.3782 9.81565 15.3782 9.75838 15.3208C9.70111 15.2634 9.52961 15.3208 9.52961 15.3208L9.45356 15.225C9.4032 15.162 9.37775 15.1156 9.35535 15.0747C9.34379 15.0536 9.33303 15.034 9.32009 15.0143C9.28191 14.957 9.14032 14.6697 9.14032 14.6697C9.14032 14.6697 9.12966 14.4401 9.14032 14.3636C9.14471 14.3321 9.13395 14.3071 9.12453 14.2852C9.11109 14.2539 9.10037 14.229 9.14032 14.2007C9.1754 14.1761 9.20178 14.1183 9.23487 14.0457C9.26586 13.9779 9.30272 13.8971 9.35811 13.8186C9.40743 13.7489 9.43549 13.6946 9.46367 13.6401C9.50083 13.5683 9.53821 13.496 9.6249 13.3872C9.70103 13.2915 9.70103 13.2915 9.70103 13.2843C9.70103 13.2771 9.70103 13.2628 9.77715 13.1384C9.8372 13.0405 9.84998 13.0197 9.84456 13.0123C9.83621 13.0008 9.78467 13.0213 9.79624 12.8408C9.81533 12.5431 9.72211 12.8408 9.72211 12.8408L9.73913 12.6218C9.73913 12.6218 9.70095 12.4494 9.73913 12.3334C9.75961 12.2705 9.78023 12.2816 9.81751 12.3016C9.84914 12.3186 9.89278 12.3421 9.95851 12.3323C10.1019 12.311 10.1391 12.2387 10.1391 12.2387L10.0629 12.0755C10.0629 12.0755 10.0247 11.9328 10.0629 11.8178C10.1011 11.7029 10.2913 11.8178 10.2913 11.8178V11.5498C10.2913 11.5498 10.5583 11.2818 10.6916 11.2053C10.8249 11.1287 11.0346 11.2053 11.0346 11.2053H11.2775C11.2775 11.2053 11.5677 10.8798 11.5868 10.8224C11.5972 10.7913 11.6526 10.7431 11.7163 10.6877C11.7698 10.6411 11.8291 10.5895 11.8725 10.5387C11.9677 10.4269 11.7392 10.5387 11.7392 10.5387L11.4153 10.4012C11.4153 10.4012 11.5488 9.98012 11.4915 9.92273C11.4612 9.8924 11.431 9.95837 11.3955 10.0358C11.3639 10.1048 11.3281 10.1829 11.2844 10.21C11.1916 10.2672 11.2627 10.5355 11.2774 10.5388C11.2918 10.542 11.0725 11.0141 11.0725 11.0141L10.8057 10.8227L10.7486 10.8611C10.6913 10.8993 10.539 10.7078 10.4818 10.6312C10.4248 10.5546 10.5199 10.4013 10.5961 10.3248C10.6723 10.2484 10.9008 9.96126 10.92 9.88469C10.9291 9.84807 10.9471 9.79808 10.9675 9.74117C10.9896 9.67955 11.0146 9.60983 11.0344 9.54019C11.0588 9.45459 11.161 9.40013 11.2515 9.35196C11.3025 9.32483 11.3497 9.2997 11.3771 9.27211C11.4535 9.19554 11.6248 9.25293 11.6248 9.25293C11.6248 9.25293 11.739 9.34869 11.8345 9.38705C11.9296 9.42542 12.0058 9.50199 12.0058 9.50199C12.0058 9.50199 12.1772 9.54019 12.1963 9.61677C12.2154 9.6935 12.4478 9.61677 12.4478 9.61677C12.4478 9.61677 12.6723 9.50199 12.7971 9.4446C12.922 9.38721 12.9391 9.36803 12.9391 9.36803C12.9391 9.36803 12.9402 9.3663 12.9424 9.36314C12.9442 9.36046 12.9467 9.35675 12.9499 9.3522C12.892 9.27755 12.8374 9.21345 12.7971 9.1957C12.7106 9.1575 12.4478 8.94696 12.4478 8.94696C12.4478 8.94696 12.4133 8.83235 12.4478 8.75578C12.4615 8.72517 12.4465 8.68229 12.4307 8.63696C12.407 8.5689 12.3814 8.49529 12.4478 8.44933C12.4992 8.41336 12.5348 8.37388 12.5584 8.34142C11.8038 7.83788 10.9382 7.48939 10.007 7.34168C9.9986 7.3615 9.98604 7.39107 9.96726 7.43471C9.93982 7.49941 9.93882 7.50177 9.93879 7.50414C9.93875 7.50669 9.93982 7.50926 9.91031 7.58946C9.87519 7.68416 9.86884 7.68381 9.84717 7.68261C9.83351 7.68185 9.81375 7.68076 9.77683 7.70296L9.6817 7.76034C9.73404 7.81278 9.74692 7.89894 9.71033 7.95169L9.70984 7.9524C9.67331 8.00436 9.643 8.04747 9.52913 8.1237L9.41475 8.20027C9.47775 8.24247 9.50352 8.32 9.47202 8.37244L9.38802 8.58297C9.33585 8.71347 9.36596 8.71904 9.38548 8.72265C9.39745 8.72487 9.40544 8.72635 9.38802 8.75546C9.36624 8.7916 9.36254 8.81068 9.35669 8.84087C9.35015 8.87463 9.34091 8.92228 9.30068 9.02322C9.27434 9.08913 9.26613 9.10967 9.26902 9.11139C9.27451 9.11466 9.32028 9.04957 9.35763 9.09979C9.39909 9.15553 9.39031 9.17069 9.3751 9.19695C9.36941 9.20677 9.36283 9.21813 9.35763 9.23375L9.33854 9.29098C9.2547 9.41743 9.0832 9.57233 8.95752 9.63563L8.76709 9.69318C8.68872 9.71686 8.67486 9.72105 8.67505 9.72446C8.67531 9.72932 8.7043 9.73259 8.61453 9.78893C8.5384 9.83665 8.5384 9.83665 8.52647 9.84862C8.51454 9.86059 8.49068 9.88453 8.36682 9.98012L8.32196 10.015L8.29062 10.0385ZM8.2844 10.0439C8.28337 10.0447 8.28244 10.0454 8.28162 10.046C8.27595 10.0507 8.26826 10.057 8.26564 10.0593C8.2684 10.0571 8.27133 10.0547 8.27438 10.0523C8.27538 10.0515 8.27639 10.0507 8.27742 10.0498C8.27742 10.0499 8.27741 10.0499 8.27739 10.05C8.27727 10.05 8.27717 10.0501 8.2771 10.0501C8.2771 10.0501 8.27732 10.0501 8.27739 10.05C8.27808 10.0495 8.27959 10.0482 8.28164 10.0466C8.28226 10.0461 8.28292 10.0455 8.28362 10.0449C8.28154 10.0466 8.27953 10.0482 8.27742 10.0498C8.27963 10.048 8.28187 10.0461 8.28402 10.0442C8.28415 10.0441 8.28427 10.044 8.2844 10.0439ZM8.30537 10.0278C8.29662 10.0345 8.28935 10.0401 8.2844 10.0439C8.28659 10.042 8.28866 10.0402 8.29046 10.0386C8.30362 10.0287 8.3072 10.0262 8.30537 10.0278ZM8.30537 10.0278C8.31004 10.0242 8.31514 10.0203 8.32053 10.0161L8.3216 10.0153C8.31668 10.0192 8.312 10.0229 8.30762 10.0264C8.30262 10.0303 8.29799 10.0339 8.2938 10.037C8.29954 10.0326 8.30399 10.029 8.30537 10.0278ZM2.57581 13.8477C2.57581 13.8477 2.56834 13.8412 2.55593 13.8301C2.55609 13.8415 2.55625 13.8528 2.55625 13.8643C2.56707 13.8539 2.57581 13.8477 2.57581 13.8477ZM2.56224 14.0111L2.56086 14.0101C2.67938 16.8879 4.67532 19.2869 7.34818 19.9995L7.18622 19.8772L6.93852 19.5903C6.93852 19.5903 6.88141 19.4563 6.8052 19.3222C6.77181 19.2635 6.76762 19.2562 6.76232 19.2553C6.7555 19.2541 6.74684 19.2635 6.67173 19.1881C6.53841 19.0539 6.67173 18.9392 6.67173 18.9392C6.67173 18.9392 6.61446 18.8242 6.57627 18.7668C6.53841 18.7094 6.57627 18.5948 6.57627 18.5948L6.42403 18.2887C6.42403 18.2887 6.36675 18.0396 6.32873 17.9823C6.30762 17.9503 6.31584 17.9184 6.32406 17.8865C6.33064 17.861 6.33722 17.8354 6.32873 17.8099C6.3098 17.7525 6.19526 17.6568 6.19526 17.6568C6.19526 17.6568 6.23344 17.5802 6.19526 17.4272C6.15723 17.2741 6.08087 17.4272 6.08087 17.4272V17.3507C6.08087 17.3507 6.00467 17.2551 5.94755 17.1592C5.89044 17.0634 5.75728 17.1592 5.75728 17.1592V17.0826L5.5476 16.8911L5.3952 16.757C5.31907 16.6901 5.31907 16.6901 5.33098 16.702C5.3429 16.714 5.36672 16.7378 5.33824 16.7187C5.28113 16.6807 5.1669 16.5467 5.1669 16.5467V16.4126V16.2788L5.05252 16.1254L5.07145 16.0106C5.08022 15.9577 5.08093 15.9535 5.07914 15.9513C5.07702 15.9487 5.07145 15.949 5.07145 15.8766C5.07145 15.7423 5.1669 15.8766 5.1669 15.8766V15.7423L5.01449 15.5511L4.95722 15.4554H4.88102L4.70968 15.3405L4.61439 15.2258C4.57572 15.1793 4.56838 15.1705 4.56699 15.1714C4.56494 15.1727 4.57572 15.1948 4.51893 15.1493C4.42364 15.0729 4.40455 15.0151 4.40455 15.0151C4.40455 15.0151 4.27123 14.996 4.15716 14.8813C4.04246 14.7664 4.02353 14.8813 4.02353 14.8813C4.02353 14.8813 3.92823 14.824 3.75689 14.7087C3.69379 14.6664 3.67717 14.6553 3.6785 14.6524C3.68077 14.6473 3.73586 14.6664 3.69978 14.5939C3.66721 14.5285 3.64705 14.5502 3.62512 14.5738C3.6086 14.5915 3.59107 14.6104 3.56646 14.5939C3.54649 14.5805 3.52424 14.5742 3.49806 14.5667C3.44916 14.5527 3.38655 14.5348 3.29951 14.46C3.23285 14.4027 3.23285 14.4027 3.23763 14.4098C3.2424 14.417 3.25194 14.4313 3.20438 14.4027C3.14958 14.3697 3.16419 14.3493 3.18281 14.3233C3.19652 14.3042 3.2124 14.2821 3.20438 14.2496C3.18545 14.173 3.10924 14.0964 3.10924 14.0964L3.05213 14.0582C2.99486 14.02 2.89463 13.7902 2.89463 13.7902C2.89463 13.7902 2.82336 13.5795 2.76624 13.5795C2.70913 13.5795 2.74715 13.6752 2.74715 13.6752L2.78518 13.8285C2.80129 13.893 2.80386 13.9032 2.80708 13.9034C2.81152 13.9037 2.81721 13.8849 2.86138 13.9626C2.88844 14.01 2.89636 14.0239 2.89446 14.0254C2.89099 14.0282 2.85469 13.9897 2.84245 14.0392C2.82352 14.1159 2.84245 14.1542 2.84245 14.1542C2.84245 14.1542 2.84245 14.1543 2.70913 14.0968C2.64656 14.0698 2.64272 14.0681 2.64249 14.066C2.64222 14.0637 2.64656 14.0608 2.57581 14.0202C2.57052 14.0172 2.56638 14.0142 2.56224 14.0111Z" fill="#FF7B29"/>
</svg>
