<svg width="16" height="24" viewBox="0 0 16 24" fill="none" xmlns="http://www.w3.org/2000/svg">
<path fill-rule="evenodd" clip-rule="evenodd" d="M4.70588 0.600004H11.2941C11.684 0.600004 12 0.868635 12 1.20001V6.00004H9.88235V5.20003C9.88235 4.7582 9.46097 4.40003 8.94118 4.40003H7.05882C6.53903 4.40003 6.11765 4.7582 6.11765 5.20003V6.00004H4V1.20001C4 0.868635 4.31603 0.600004 4.70588 0.600004ZM9.17647 5.20003V6.00004H6.82353V5.20003C6.82353 5.08958 6.92887 5.00003 7.05882 5.00003H8.94118C9.07113 5.00003 9.17647 5.08958 9.17647 5.20003ZM3.29412 6.00004V1.20001C3.29412 0.537262 3.92619 0 4.70588 0H11.2941C12.0738 0 12.7059 0.537262 12.7059 1.20001V6.00004H13.8824C15.0519 6.00004 16 6.80593 16 7.80005V20.2001C16 21.1943 15.0519 22.0001 13.8824 22.0001H2.11765C0.948103 22.0001 0 21.1943 0 20.2001V7.80005C0 6.80593 0.948103 6.00004 2.11765 6.00004H3.29412ZM4.70588 9.60006C4.44598 9.60006 4.23529 9.77914 4.23529 10.0001V18.4001C4.23529 18.621 4.44598 18.8001 4.70588 18.8001C4.96578 18.8001 5.17647 18.621 5.17647 18.4001V10.0001C5.17647 9.77914 4.96578 9.60006 4.70588 9.60006ZM8 9.60006C7.7401 9.60006 7.52941 9.77914 7.52941 10.0001V18.4001C7.52941 18.621 7.7401 18.8001 8 18.8001C8.2599 18.8001 8.47059 18.621 8.47059 18.4001V10.0001C8.47059 9.77914 8.2599 9.60006 8 9.60006ZM10.8235 10.0001C10.8235 9.77914 11.0342 9.60006 11.2941 9.60006C11.554 9.60006 11.7647 9.77914 11.7647 10.0001V18.4001C11.7647 18.621 11.554 18.8001 11.2941 18.8001C11.0342 18.8001 10.8235 18.621 10.8235 18.4001V10.0001Z" fill="#FF7B29"/>
<path d="M2.23576 22.8H5.05929V23.4001C5.05929 23.7314 4.74326 24.0001 4.35341 24.0001H2.94165C2.5518 24.0001 2.23576 23.7314 2.23576 23.4001V22.8Z" fill="#FF7B29"/>
<path d="M10.9402 22.8H13.7637V23.4001C13.7637 23.7314 13.4477 24.0001 13.0578 24.0001H11.6461C11.2562 24.0001 10.9402 23.7314 10.9402 23.4001V22.8Z" fill="#FF7B29"/>
</svg>
