<svg width="152" height="34" viewBox="0 0 152 34" fill="none" xmlns="http://www.w3.org/2000/svg">
<path d="M17 34C26.3888 34 34 26.3888 34 17C34 7.61116 26.3888 0 17 0C7.61116 0 0 7.61116 0 17C0 26.3888 7.61116 34 17 34Z" fill="#FF7B29"/>
<path d="M13.7379 13.7102C13.6925 13.2519 13.4974 12.8958 13.1527 12.642C12.808 12.3883 12.3402 12.2614 11.7493 12.2614C11.3478 12.2614 11.0088 12.3182 10.7322 12.4318C10.4557 12.5417 10.2436 12.6951 10.0959 12.892C9.95194 13.089 9.87997 13.3125 9.87997 13.5625C9.8724 13.7708 9.91596 13.9527 10.0107 14.108C10.1091 14.2633 10.2436 14.3977 10.4141 14.5114C10.5845 14.6212 10.7815 14.7178 11.005 14.8011C11.2285 14.8807 11.4671 14.9489 11.7209 15.0057L12.7663 15.2557C13.2739 15.3693 13.7398 15.5208 14.1641 15.7102C14.5883 15.8996 14.9557 16.1326 15.2663 16.4091C15.5769 16.6856 15.8175 17.0114 15.9879 17.3864C16.1622 17.7614 16.2512 18.1913 16.255 18.6761C16.2512 19.3883 16.0694 20.0057 15.7095 20.5284C15.3535 21.0473 14.8383 21.4508 14.1641 21.7386C13.4936 22.0227 12.6849 22.1648 11.7379 22.1648C10.7985 22.1648 9.98035 22.0208 9.28338 21.733C8.5902 21.4451 8.04853 21.0189 7.65838 20.4545C7.27202 19.8864 7.06937 19.1837 7.05043 18.3466H9.43111C9.45762 18.7367 9.56937 19.0625 9.76634 19.3239C9.96709 19.5814 10.2341 19.7765 10.5675 19.9091C10.9046 20.0379 11.2853 20.1023 11.7095 20.1023C12.1262 20.1023 12.4879 20.0417 12.7947 19.9205C13.1054 19.7992 13.3459 19.6307 13.5163 19.4148C13.6868 19.1989 13.772 18.9508 13.772 18.6705C13.772 18.4091 13.6944 18.1894 13.5391 18.0114C13.3875 17.8333 13.1641 17.6818 12.8686 17.5568C12.5769 17.4318 12.219 17.3182 11.7947 17.2159L10.5277 16.8977C9.54664 16.6591 8.77202 16.286 8.20384 15.7784C7.63565 15.2708 7.35346 14.5871 7.35724 13.7273C7.35346 13.0227 7.54096 12.4072 7.91974 11.8807C8.30232 11.3542 8.82694 10.9432 9.49361 10.6477C10.1603 10.3523 10.9179 10.2045 11.7663 10.2045C12.63 10.2045 13.3838 10.3523 14.0277 10.6477C14.6754 10.9432 15.1792 11.3542 15.5391 11.8807C15.8989 12.4072 16.0845 13.017 16.0959 13.7102H13.7379ZM17.4666 12.392V10.3636H27.0234V12.392H23.4609V22H21.0291V12.392H17.4666Z" fill="white"/>
<path d="M52.0703 13.6016C52.0078 12.9714 51.7396 12.4818 51.2656 12.1328C50.7917 11.7839 50.1484 11.6094 49.3359 11.6094C48.7839 11.6094 48.3177 11.6875 47.9375 11.8437C47.5573 11.9948 47.2656 12.2057 47.0625 12.4766C46.8646 12.7474 46.7656 13.0547 46.7656 13.3984C46.7552 13.6849 46.8151 13.9349 46.9453 14.1484C47.0807 14.362 47.2656 14.5469 47.5 14.7031C47.7344 14.8542 48.0052 14.987 48.3125 15.1016C48.6198 15.2109 48.9479 15.3047 49.2969 15.3828L50.7344 15.7266C51.4323 15.8828 52.0729 16.0911 52.6562 16.3516C53.2396 16.612 53.7448 16.9323 54.1719 17.3125C54.599 17.6927 54.9297 18.1406 55.1641 18.6562C55.4036 19.1719 55.526 19.763 55.5312 20.4297C55.526 21.4089 55.276 22.2578 54.7813 22.9766C54.2917 23.6901 53.5833 24.2448 52.6562 24.6406C51.7344 25.0312 50.6224 25.2266 49.3203 25.2266C48.0286 25.2266 46.9036 25.0286 45.9453 24.6328C44.9922 24.237 44.2474 23.651 43.7109 22.875C43.1797 22.0937 42.901 21.1276 42.875 19.9766H46.1484C46.1849 20.513 46.3385 20.9609 46.6094 21.3203C46.8854 21.6745 47.2526 21.9427 47.7109 22.125C48.1745 22.3021 48.6979 22.3906 49.2812 22.3906C49.8542 22.3906 50.3516 22.3073 50.7734 22.1406C51.2005 21.974 51.5313 21.7422 51.7656 21.4453C52 21.1484 52.1172 20.8073 52.1172 20.4219C52.1172 20.0625 52.0104 19.7604 51.7969 19.5156C51.5885 19.2708 51.2813 19.0625 50.875 18.8906C50.474 18.7187 49.9818 18.5625 49.3984 18.4219L47.6563 17.9844C46.3073 17.6562 45.2422 17.1432 44.4609 16.4453C43.6797 15.7474 43.2917 14.8073 43.2969 13.625C43.2917 12.6562 43.5495 11.8099 44.0703 11.0859C44.5964 10.362 45.3177 9.79687 46.2344 9.39062C47.151 8.98437 48.1927 8.78125 49.3594 8.78125C50.5469 8.78125 51.5833 8.98437 52.4688 9.39062C53.3594 9.79687 54.0521 10.362 54.5469 11.0859C55.0417 11.8099 55.2969 12.6484 55.3125 13.6016H52.0703ZM61.166 25.2266C60.4004 25.2266 59.7181 25.0938 59.1191 24.8281C58.5202 24.5573 58.0462 24.1589 57.6973 23.6328C57.3535 23.1016 57.1816 22.4401 57.1816 21.6484C57.1816 20.9818 57.304 20.4219 57.5488 19.9687C57.7936 19.5156 58.127 19.151 58.5488 18.875C58.9707 18.599 59.4499 18.3906 59.9863 18.25C60.528 18.1094 61.0957 18.0104 61.6895 17.9531C62.3874 17.8802 62.9499 17.8125 63.377 17.75C63.804 17.6823 64.1139 17.5833 64.3066 17.4531C64.4993 17.3229 64.5957 17.1302 64.5957 16.875V16.8281C64.5957 16.3333 64.4395 15.9505 64.127 15.6797C63.8197 15.4089 63.3822 15.2734 62.8145 15.2734C62.2155 15.2734 61.7389 15.4062 61.3848 15.6719C61.0306 15.9323 60.7962 16.2604 60.6816 16.6562L57.6035 16.4062C57.7598 15.6771 58.0671 15.0469 58.5254 14.5156C58.9837 13.9792 59.5749 13.5677 60.2988 13.2812C61.028 12.9896 61.8717 12.8438 62.8301 12.8438C63.4967 12.8438 64.1348 12.9219 64.7441 13.0781C65.3587 13.2344 65.903 13.4766 66.377 13.8047C66.8561 14.1328 67.2337 14.5547 67.5098 15.0703C67.7858 15.5807 67.9238 16.1927 67.9238 16.9062V25H64.7676V23.3359H64.6738C64.4811 23.7109 64.2233 24.0417 63.9004 24.3281C63.5775 24.6094 63.1895 24.8307 62.7363 24.9922C62.2832 25.1484 61.7598 25.2266 61.166 25.2266ZM62.1191 22.9297C62.6087 22.9297 63.041 22.8333 63.416 22.6406C63.791 22.4427 64.0853 22.1771 64.2988 21.8438C64.5124 21.5104 64.6191 21.1328 64.6191 20.7109V19.4375C64.515 19.5052 64.3717 19.5677 64.1895 19.625C64.0124 19.6771 63.8118 19.7266 63.5879 19.7734C63.3639 19.8151 63.14 19.8542 62.916 19.8906C62.6921 19.9219 62.4889 19.9505 62.3066 19.9766C61.916 20.0339 61.5749 20.125 61.2832 20.25C60.9915 20.375 60.765 20.5443 60.6035 20.7578C60.4421 20.9661 60.3613 21.2266 60.3613 21.5391C60.3613 21.9922 60.5254 22.3385 60.8535 22.5781C61.1868 22.8125 61.6087 22.9297 62.1191 22.9297ZM76.959 13V15.5H69.5527V13H76.959ZM71.248 25V12.1328C71.248 11.263 71.4173 10.5417 71.7559 9.96875C72.0996 9.39583 72.5684 8.96614 73.1621 8.67969C73.7559 8.39323 74.4303 8.25 75.1855 8.25C75.696 8.25 76.1621 8.28906 76.584 8.36719C77.0111 8.44531 77.3288 8.51562 77.5371 8.57812L76.9434 11.0781C76.8132 11.0365 76.6517 10.9974 76.459 10.9609C76.2715 10.9245 76.0788 10.9062 75.8809 10.9062C75.3913 10.9062 75.0501 11.0208 74.8574 11.25C74.6647 11.474 74.5684 11.7891 74.5684 12.1953V25H71.248ZM84.0313 25.2344C82.7969 25.2344 81.7344 24.9844 80.8438 24.4844C79.9583 23.9792 79.276 23.2656 78.7969 22.3437C78.3177 21.4167 78.0781 20.3203 78.0781 19.0547C78.0781 17.8203 78.3177 16.737 78.7969 15.8047C79.276 14.8724 79.9505 14.1458 80.8203 13.625C81.6953 13.1042 82.7214 12.8438 83.8984 12.8438C84.6901 12.8438 85.4271 12.9714 86.1094 13.2266C86.7969 13.4766 87.3958 13.8542 87.9063 14.3594C88.4219 14.8646 88.8229 15.5 89.1094 16.2656C89.3958 17.026 89.5391 17.9167 89.5391 18.9375V19.8516H79.4063V17.7891H86.4063C86.4063 17.3099 86.3021 16.8854 86.0938 16.5156C85.8854 16.1458 85.5964 15.8568 85.2266 15.6484C84.862 15.4349 84.4375 15.3281 83.9531 15.3281C83.4479 15.3281 83 15.4453 82.6094 15.6797C82.224 15.9089 81.9219 16.2187 81.7031 16.6094C81.4844 16.9948 81.3724 17.4245 81.3672 17.8984V19.8594C81.3672 20.4531 81.4766 20.9661 81.6953 21.3984C81.9193 21.8307 82.2344 22.1641 82.6406 22.3984C83.0469 22.6328 83.5286 22.75 84.0859 22.75C84.4557 22.75 84.7943 22.6979 85.1016 22.5938C85.4089 22.4896 85.6719 22.3333 85.8906 22.125C86.1094 21.9167 86.276 21.6615 86.3906 21.3594L89.4688 21.5625C89.3125 22.3021 88.9922 22.9479 88.5078 23.5C88.0286 24.0469 87.4089 24.474 86.6484 24.7813C85.8932 25.0833 85.0208 25.2344 84.0313 25.2344ZM96.2559 11.7891V9H109.396V11.7891H104.498V25H101.154V11.7891H96.2559ZM115.18 25.2344C113.966 25.2344 112.917 24.9766 112.031 24.4609C111.151 23.9401 110.471 23.2161 109.992 22.2891C109.513 21.3568 109.273 20.276 109.273 19.0469C109.273 17.8073 109.513 16.724 109.992 15.7969C110.471 14.8646 111.151 14.1406 112.031 13.625C112.917 13.1042 113.966 12.8438 115.18 12.8438C116.393 12.8438 117.44 13.1042 118.32 13.625C119.206 14.1406 119.888 14.8646 120.367 15.7969C120.846 16.724 121.086 17.8073 121.086 19.0469C121.086 20.276 120.846 21.3568 120.367 22.2891C119.888 23.2161 119.206 23.9401 118.32 24.4609C117.44 24.9766 116.393 25.2344 115.18 25.2344ZM115.195 22.6562C115.747 22.6562 116.208 22.5 116.578 22.1875C116.948 21.8698 117.227 21.4375 117.414 20.8906C117.607 20.3437 117.703 19.7214 117.703 19.0234C117.703 18.3255 117.607 17.7031 117.414 17.1562C117.227 16.6094 116.948 16.1771 116.578 15.8594C116.208 15.5417 115.747 15.3828 115.195 15.3828C114.638 15.3828 114.169 15.5417 113.789 15.8594C113.414 16.1771 113.13 16.6094 112.938 17.1562C112.75 17.7031 112.656 18.3255 112.656 19.0234C112.656 19.7214 112.75 20.3437 112.938 20.8906C113.13 21.4375 113.414 21.8698 113.789 22.1875C114.169 22.5 114.638 22.6562 115.195 22.6562ZM130.945 19.8906V13H134.273V25H131.078V22.8203H130.953C130.682 23.5234 130.232 24.0885 129.602 24.5156C128.977 24.9427 128.214 25.1563 127.313 25.1563C126.51 25.1563 125.805 24.974 125.195 24.6094C124.586 24.2448 124.109 23.7266 123.766 23.0547C123.427 22.3828 123.255 21.5781 123.25 20.6406V13H126.578V20.0469C126.583 20.7552 126.773 21.3151 127.148 21.7266C127.523 22.138 128.026 22.3437 128.656 22.3437C129.057 22.3437 129.432 22.2526 129.781 22.0703C130.13 21.8828 130.411 21.6068 130.625 21.2422C130.844 20.8776 130.951 20.4271 130.945 19.8906ZM136.936 25V13H140.162V15.0937H140.287C140.506 14.349 140.873 13.7865 141.389 13.4063C141.904 13.0208 142.498 12.8281 143.17 12.8281C143.337 12.8281 143.516 12.8385 143.709 12.8594C143.902 12.8802 144.071 12.9089 144.217 12.9453V15.8984C144.061 15.8516 143.844 15.8099 143.568 15.7734C143.292 15.737 143.04 15.7188 142.811 15.7188C142.321 15.7188 141.883 15.8255 141.498 16.0391C141.118 16.2474 140.816 16.5391 140.592 16.9141C140.373 17.2891 140.264 17.7214 140.264 18.2109V25H136.936Z" fill="#212832"/>
<path d="M147.883 25.2031C147.367 25.2031 146.924 25.0208 146.555 24.6562C146.19 24.2865 146.008 23.8437 146.008 23.3281C146.008 22.8177 146.19 22.3802 146.555 22.0156C146.924 21.651 147.367 21.4687 147.883 21.4687C148.383 21.4687 148.82 21.651 149.195 22.0156C149.57 22.3802 149.758 22.8177 149.758 23.3281C149.758 23.6719 149.669 23.987 149.492 24.2734C149.32 24.5547 149.094 24.7812 148.813 24.9531C148.531 25.1198 148.221 25.2031 147.883 25.2031Z" fill="#FF7B29"/>
</svg>
