<svg width="313" height="352" viewBox="0 0 313 352" fill="none" xmlns="http://www.w3.org/2000/svg">
<g filter="url(#filter0_d_1_309)">
<path d="M75 41C75 32.1634 82.1634 25 91 25H222C230.837 25 238 32.1634 238 41V211C238 219.837 230.837 227 222 227H91C82.1634 227 75 219.837 75 211V41Z" fill="white"/>
</g>
<circle cx="156.529" cy="91.8768" r="45.806" fill="white"/>
<path d="M190.5 122.603C185.222 128.439 178.53 132.816 171.069 135.314C163.608 137.811 155.629 138.345 147.902 136.863C140.175 135.381 132.959 131.934 126.951 126.854C120.943 121.773 116.345 115.231 113.6 107.857C110.856 100.483 110.056 92.5265 111.28 84.7541C112.503 76.9817 115.708 69.6555 120.586 63.4815C125.463 57.3076 131.849 52.4941 139.127 49.505C146.405 46.5159 154.331 45.452 162.139 46.4157L160.737 57.781C154.88 57.0582 148.936 57.8561 143.477 60.0979C138.019 62.3398 133.23 65.9499 129.571 70.5803C125.913 75.2108 123.51 80.7055 122.592 86.5348C121.674 92.3641 122.274 98.3315 124.333 103.862C126.391 109.392 129.84 114.299 134.346 118.109C138.852 121.92 144.263 124.505 150.059 125.617C155.854 126.728 161.838 126.328 167.434 124.454C173.03 122.581 178.049 119.298 182.007 114.922L190.5 122.603Z" fill="#F3F3F3"/>
<path d="M156.529 51.7966C156.529 48.6343 159.102 46.0339 162.24 46.4282C169.592 47.352 176.64 50.0501 182.761 54.3261C190.453 59.6998 196.31 67.3061 199.538 76.1165C202.766 84.9268 203.211 94.5161 200.812 103.588C198.903 110.806 195.267 117.419 190.253 122.875C188.113 125.203 184.469 124.881 182.425 122.467C180.382 120.054 180.727 116.467 182.768 114.052C186.042 110.178 188.433 105.609 189.741 100.66C191.541 93.8563 191.207 86.6643 188.786 80.0565C186.364 73.4488 181.972 67.744 176.203 63.7138C172.007 60.7824 167.229 58.8397 162.228 57.9983C159.11 57.4737 156.529 54.9588 156.529 51.7966Z" fill="#D3ED68"/>
<path d="M106.978 191.163H109.696V198.757H111.009V191.163H113.732V190.03H106.978V191.163ZM116.93 198.889C118.775 198.889 119.981 197.538 119.981 195.514C119.981 193.477 118.775 192.126 116.93 192.126C115.085 192.126 113.879 193.477 113.879 195.514C113.879 197.538 115.085 198.889 116.93 198.889ZM116.934 197.819C115.728 197.819 115.166 196.767 115.166 195.51C115.166 194.257 115.728 193.191 116.934 193.191C118.132 193.191 118.694 194.257 118.694 195.51C118.694 196.767 118.132 197.819 116.934 197.819ZM124.459 192.211H123.116V190.643H121.842V192.211H120.884V193.234H121.842V197.099C121.838 198.288 122.746 198.863 123.751 198.842C124.156 198.838 124.429 198.761 124.578 198.706L124.348 197.653C124.263 197.67 124.105 197.709 123.901 197.709C123.487 197.709 123.116 197.572 123.116 196.835V193.234H124.459V192.211ZM127.773 198.902C128.855 198.902 129.465 198.352 129.708 197.862H129.759V198.757H131.003V194.41C131.003 192.505 129.503 192.126 128.463 192.126C127.279 192.126 126.188 192.603 125.762 193.797L126.959 194.069C127.147 193.605 127.624 193.157 128.48 193.157C129.303 193.157 129.725 193.588 129.725 194.329V194.359C129.725 194.824 129.248 194.815 128.071 194.951C126.831 195.096 125.561 195.42 125.561 196.907C125.561 198.194 126.529 198.902 127.773 198.902ZM128.05 197.879C127.33 197.879 126.81 197.555 126.81 196.924C126.81 196.243 127.415 196 128.152 195.902C128.566 195.846 129.546 195.736 129.729 195.552V196.396C129.729 197.172 129.111 197.879 128.05 197.879ZM133.974 190.03H132.7V198.757H133.974V190.03ZM141.92 192.211H140.577V190.643H139.303V192.211H138.344V193.234H139.303V197.099C139.299 198.288 140.207 198.863 141.212 198.842C141.617 198.838 141.89 198.761 142.039 198.706L141.809 197.653C141.724 197.67 141.566 197.709 141.362 197.709C140.948 197.709 140.577 197.572 140.577 196.835V193.234H141.92V192.211ZM143.329 198.757H144.603V194.76C144.603 193.903 145.264 193.285 146.167 193.285C146.431 193.285 146.73 193.332 146.832 193.362V192.143C146.704 192.126 146.453 192.113 146.291 192.113C145.524 192.113 144.868 192.548 144.629 193.251H144.561V192.211H143.329V198.757ZM147.935 198.757H149.209V192.211H147.935V198.757ZM148.578 191.201C149.017 191.201 149.384 190.861 149.384 190.443C149.384 190.025 149.017 189.68 148.578 189.68C148.135 189.68 147.773 190.025 147.773 190.443C147.773 190.861 148.135 191.201 148.578 191.201ZM150.923 201.211H152.197V197.738H152.274C152.504 198.156 152.973 198.885 154.166 198.885C155.751 198.885 156.902 197.615 156.902 195.497C156.902 193.375 155.734 192.126 154.153 192.126C152.939 192.126 152.5 192.868 152.274 193.272H152.167V192.211H150.923V201.211ZM152.172 195.484C152.172 194.116 152.768 193.209 153.88 193.209C155.035 193.209 155.615 194.184 155.615 195.484C155.615 196.797 155.018 197.798 153.88 197.798C152.785 197.798 152.172 196.861 152.172 195.484ZM161.876 195.135C161.876 197.274 162.447 199.055 163.529 200.572H164.697C163.857 199.447 163.197 197.163 163.197 195.135C163.197 193.111 163.857 190.826 164.697 189.701H163.529C162.447 191.218 161.876 193 161.876 195.135ZM166.04 198.757H167.314V194.721C167.314 193.839 167.932 193.226 168.657 193.226C169.364 193.226 169.854 193.694 169.854 194.406V198.757H171.124V194.585C171.124 193.797 171.605 193.226 172.436 193.226C173.11 193.226 173.664 193.601 173.664 194.487V198.757H174.938V194.368C174.938 192.872 174.103 192.126 172.918 192.126C171.976 192.126 171.269 192.578 170.953 193.277H170.885C170.6 192.561 169.999 192.126 169.125 192.126C168.26 192.126 167.617 192.557 167.344 193.277H167.263V192.211H166.04V198.757ZM179.403 198.889C181.248 198.889 182.454 197.538 182.454 195.514C182.454 193.477 181.248 192.126 179.403 192.126C177.558 192.126 176.352 193.477 176.352 195.514C176.352 197.538 177.558 198.889 179.403 198.889ZM179.407 197.819C178.201 197.819 177.638 196.767 177.638 195.51C177.638 194.257 178.201 193.191 179.407 193.191C180.604 193.191 181.167 194.257 181.167 195.51C181.167 196.767 180.604 197.819 179.407 197.819ZM185.15 194.87C185.15 193.826 185.789 193.23 186.676 193.23C187.541 193.23 188.065 193.797 188.065 194.747V198.757H189.339V194.593C189.339 192.974 188.449 192.126 187.11 192.126C186.126 192.126 185.483 192.582 185.18 193.277H185.099V192.211H183.876V198.757H185.15V194.87ZM194.103 192.211H192.761V190.643H191.487V192.211H190.528V193.234H191.487V197.099C191.483 198.288 192.39 198.863 193.396 198.842C193.801 198.838 194.074 198.761 194.223 198.706L193.993 197.653C193.907 197.67 193.75 197.709 193.545 197.709C193.132 197.709 192.761 197.572 192.761 196.835V193.234H194.103V192.211ZM196.928 194.87C196.928 193.826 197.588 193.23 198.496 193.23C199.374 193.23 199.898 193.788 199.898 194.747V198.757H201.172V194.593C201.172 192.961 200.277 192.126 198.93 192.126C197.912 192.126 197.298 192.569 196.991 193.277H196.911V190.03H195.653V198.757H196.928V194.87ZM205.322 195.139C205.322 193 204.751 191.218 203.669 189.701H202.501C203.341 190.826 204.001 193.111 204.001 195.139C204.001 197.163 203.341 199.447 202.501 200.572H203.669C204.751 199.055 205.322 197.274 205.322 195.139Z" fill="#AEB4CF"/>
<path d="M149.9 95.179C152.84 95.179 154.943 93.5618 154.937 91.3246C154.943 89.6946 153.908 88.5312 151.984 88.2884V88.1861C153.447 87.924 154.457 86.8885 154.451 85.4183C154.457 83.3537 152.648 81.7301 149.938 81.7301C147.254 81.7301 145.234 83.3026 145.195 85.5653H147.848C147.88 84.5682 148.794 83.9226 149.925 83.9226C151.044 83.9226 151.792 84.6001 151.786 85.5845C151.792 86.6136 150.916 87.3104 149.657 87.3104H148.436V89.343H149.657C151.14 89.343 152.067 90.0845 152.06 91.1392C152.067 92.1811 151.172 92.897 149.906 92.897C148.685 92.897 147.771 92.2578 147.72 91.299H144.933C144.978 93.5874 147.023 95.179 149.9 95.179ZM161.663 81.7301C158.735 81.7173 156.76 83.6349 156.773 86.2685C156.779 88.7102 158.473 90.4808 160.794 90.4808C162.232 90.4808 163.51 89.7841 164.092 88.6335H164.181C164.175 91.2287 163.274 92.8075 161.567 92.8075C160.563 92.8075 159.841 92.2578 159.63 91.3054H156.901C157.156 93.5107 158.946 95.179 161.567 95.179C164.808 95.179 166.898 92.5582 166.892 88.1158C166.885 83.3729 164.354 81.7429 161.663 81.7301ZM161.682 83.9034C162.954 83.9034 163.894 84.9389 163.906 86.1854C163.913 87.4382 162.922 88.4737 161.656 88.4737C160.378 88.4737 159.464 87.4766 159.458 86.1918C159.445 84.9134 160.397 83.9034 161.682 83.9034Z" fill="#0D1E3F"/>
<path d="M135.559 102.817H136.919V106.614H137.575V102.817H138.936V102.25H135.559V102.817ZM139.631 106.614H140.268V103.341H139.631V106.614ZM139.953 102.836C140.173 102.836 140.356 102.666 140.356 102.457C140.356 102.248 140.173 102.075 139.953 102.075C139.732 102.075 139.55 102.248 139.55 102.457C139.55 102.666 139.732 102.836 139.953 102.836ZM141.126 106.614H141.763V104.596C141.763 104.155 142.072 103.848 142.434 103.848C142.787 103.848 143.032 104.083 143.032 104.438V106.614H143.667V104.528C143.667 104.134 143.908 103.848 144.324 103.848C144.66 103.848 144.937 104.036 144.937 104.479V106.614H145.574V104.419C145.574 103.671 145.157 103.298 144.564 103.298C144.094 103.298 143.74 103.524 143.582 103.874H143.548C143.405 103.516 143.105 103.298 142.668 103.298C142.236 103.298 141.914 103.514 141.778 103.874H141.737V103.341H141.126V106.614ZM147.839 106.68C148.553 106.68 149.058 106.328 149.202 105.796L148.599 105.687C148.484 105.996 148.207 106.154 147.845 106.154C147.3 106.154 146.933 105.8 146.916 105.169H149.243V104.943C149.243 103.761 148.536 103.298 147.794 103.298C146.882 103.298 146.281 103.993 146.281 104.999C146.281 106.015 146.874 106.68 147.839 106.68ZM146.918 104.692C146.944 104.227 147.281 103.825 147.798 103.825C148.293 103.825 148.616 104.191 148.619 104.692H146.918ZM152.402 104.14C152.27 103.631 151.872 103.298 151.164 103.298C150.425 103.298 149.901 103.688 149.901 104.268C149.901 104.732 150.182 105.041 150.796 105.178L151.35 105.299C151.665 105.369 151.812 105.51 151.812 105.715C151.812 105.968 151.541 106.166 151.124 106.166C150.742 106.166 150.497 106.002 150.421 105.681L149.805 105.774C149.911 106.354 150.393 106.68 151.128 106.68C151.919 106.68 152.466 106.26 152.466 105.668C152.466 105.205 152.172 104.92 151.571 104.781L151.051 104.662C150.691 104.577 150.536 104.455 150.538 104.234C150.536 103.982 150.808 103.803 151.171 103.803C151.567 103.803 151.75 104.023 151.825 104.242L152.402 104.14ZM156.282 103.341H155.611V102.557H154.974V103.341H154.494V103.852H154.974V105.785C154.972 106.379 155.426 106.667 155.928 106.656C156.131 106.654 156.267 106.616 156.342 106.588L156.227 106.062C156.184 106.07 156.105 106.09 156.003 106.09C155.796 106.09 155.611 106.021 155.611 105.653V103.852H156.282V103.341ZM156.987 106.614H157.624V104.615C157.624 104.187 157.954 103.878 158.406 103.878C158.538 103.878 158.687 103.901 158.738 103.916V103.307C158.674 103.298 158.549 103.292 158.468 103.292C158.084 103.292 157.756 103.509 157.637 103.861H157.603V103.341H156.987V106.614ZM160.213 106.686C160.754 106.686 161.059 106.411 161.18 106.166H161.206V106.614H161.828V104.44C161.828 103.488 161.078 103.298 160.558 103.298C159.966 103.298 159.42 103.537 159.207 104.134L159.806 104.27C159.9 104.038 160.138 103.814 160.566 103.814C160.978 103.814 161.189 104.029 161.189 104.4V104.415C161.189 104.647 160.95 104.643 160.362 104.711C159.742 104.784 159.107 104.945 159.107 105.689C159.107 106.333 159.591 106.686 160.213 106.686ZM160.351 106.175C159.991 106.175 159.731 106.013 159.731 105.698C159.731 105.357 160.034 105.235 160.402 105.186C160.609 105.159 161.099 105.103 161.191 105.011V105.433C161.191 105.821 160.882 106.175 160.351 106.175ZM165.359 103.341H164.675L163.848 105.86H163.814L162.985 103.341H162.301L163.49 106.614H164.172L165.359 103.341ZM167.251 106.68C167.965 106.68 168.47 106.328 168.615 105.796L168.012 105.687C167.896 105.996 167.619 106.154 167.257 106.154C166.712 106.154 166.345 105.8 166.328 105.169H168.655V104.943C168.655 103.761 167.948 103.298 167.206 103.298C166.294 103.298 165.693 103.993 165.693 104.999C165.693 106.015 166.286 106.68 167.251 106.68ZM166.33 104.692C166.356 104.227 166.693 103.825 167.21 103.825C167.705 103.825 168.029 104.191 168.031 104.692H166.33ZM169.999 102.25H169.362V106.614H169.999V102.25ZM172.267 106.68C172.98 106.68 173.485 106.328 173.63 105.796L173.027 105.687C172.912 105.996 172.635 106.154 172.273 106.154C171.727 106.154 171.361 105.8 171.344 105.169H173.671V104.943C173.671 103.761 172.963 103.298 172.222 103.298C171.31 103.298 170.709 103.993 170.709 104.999C170.709 106.015 171.301 106.68 172.267 106.68ZM171.346 104.692C171.372 104.227 171.708 103.825 172.226 103.825C172.72 103.825 173.044 104.191 173.046 104.692H171.346ZM175.603 106.678C176.199 106.678 176.434 106.313 176.549 106.105H176.602V106.614H177.224V102.25H176.587V103.872H176.549C176.434 103.669 176.216 103.298 175.607 103.298C174.816 103.298 174.235 103.923 174.235 104.984C174.235 106.043 174.808 106.678 175.603 106.678ZM175.743 106.134C175.174 106.134 174.878 105.634 174.878 104.977C174.878 104.328 175.168 103.84 175.743 103.84C176.299 103.84 176.598 104.293 176.598 104.977C176.598 105.666 176.293 106.134 175.743 106.134Z" fill="#A5A8B4"/>
<path d="M134.852 177V174.341L141.065 168.588C141.594 168.077 142.037 167.616 142.395 167.207C142.759 166.798 143.034 166.398 143.222 166.006C143.409 165.608 143.503 165.179 143.503 164.719C143.503 164.207 143.386 163.767 143.153 163.398C142.92 163.023 142.602 162.736 142.199 162.537C141.795 162.332 141.338 162.23 140.827 162.23C140.293 162.23 139.827 162.338 139.429 162.554C139.031 162.77 138.724 163.08 138.509 163.483C138.293 163.886 138.185 164.366 138.185 164.923H134.682C134.682 163.781 134.94 162.79 135.457 161.949C135.974 161.108 136.699 160.457 137.631 159.997C138.563 159.537 139.636 159.307 140.852 159.307C142.102 159.307 143.19 159.528 144.116 159.972C145.048 160.409 145.773 161.017 146.29 161.795C146.807 162.574 147.065 163.466 147.065 164.472C147.065 165.131 146.935 165.781 146.673 166.423C146.418 167.065 145.96 167.778 145.301 168.562C144.642 169.341 143.713 170.276 142.514 171.366L139.966 173.864V173.983H147.295V177H134.852ZM149.969 177V174.341L156.183 168.588C156.711 168.077 157.154 167.616 157.512 167.207C157.876 166.798 158.151 166.398 158.339 166.006C158.526 165.608 158.62 165.179 158.62 164.719C158.62 164.207 158.504 163.767 158.271 163.398C158.038 163.023 157.719 162.736 157.316 162.537C156.913 162.332 156.455 162.23 155.944 162.23C155.41 162.23 154.944 162.338 154.546 162.554C154.148 162.77 153.842 163.08 153.626 163.483C153.41 163.886 153.302 164.366 153.302 164.923H149.799C149.799 163.781 150.058 162.79 150.575 161.949C151.092 161.108 151.816 160.457 152.748 159.997C153.68 159.537 154.754 159.307 155.969 159.307C157.219 159.307 158.308 159.528 159.234 159.972C160.165 160.409 160.89 161.017 161.407 161.795C161.924 162.574 162.183 163.466 162.183 164.472C162.183 165.131 162.052 165.781 161.79 166.423C161.535 167.065 161.077 167.778 160.418 168.562C159.759 169.341 158.83 170.276 157.631 171.366L155.083 173.864V173.983H162.413V177H149.969ZM164.447 173.932V171.026L171.734 159.545H174.24V163.568H172.757L168.163 170.838V170.974H178.518V173.932H164.447ZM172.825 177V173.045L172.893 171.759V159.545H176.354V177H172.825Z" fill="#0D1E3F"/>
<defs>
<filter id="filter0_d_1_309" x="0" y="0" width="313" height="352" filterUnits="userSpaceOnUse" color-interpolation-filters="sRGB">
<feFlood flood-opacity="0" result="BackgroundImageFix"/>
<feColorMatrix in="SourceAlpha" type="matrix" values="0 0 0 0 0 0 0 0 0 0 0 0 0 0 0 0 0 0 127 0" result="hardAlpha"/>
<feMorphology radius="25" operator="erode" in="SourceAlpha" result="effect1_dropShadow_1_309"/>
<feOffset dy="50"/>
<feGaussianBlur stdDeviation="50"/>
<feColorMatrix type="matrix" values="0 0 0 0 0 0 0 0 0 0 0 0 0 0 0 0 0 0 0.1 0"/>
<feBlend mode="normal" in2="BackgroundImageFix" result="effect1_dropShadow_1_309"/>
<feBlend mode="normal" in="SourceGraphic" in2="effect1_dropShadow_1_309" result="shape"/>
</filter>
</defs>
</svg>
